<?xml version="1.0" encoding="UTF-8" standalone="no"?>
<svg
   xmlns:dc="http://purl.org/dc/elements/1.1/"
   xmlns:cc="http://creativecommons.org/ns#"
   xmlns:rdf="http://www.w3.org/1999/02/22-rdf-syntax-ns#"
   xmlns:svg="http://www.w3.org/2000/svg"
   xmlns="http://www.w3.org/2000/svg"
   xmlns:sodipodi="http://sodipodi.sourceforge.net/DTD/sodipodi-0.dtd"
   xmlns:inkscape="http://www.inkscape.org/namespaces/inkscape"
   version="1.0"
   width="300.000000pt"
   height="300.000000pt"
   viewBox="0 0 300.000000 300.000000"
   preserveAspectRatio="xMidYMid meet"
   id="svg3354"
   sodipodi:docname="icon.svg"
   inkscape:version="0.92.2 (5c3e80d, 2017-08-06)">
  <defs
     id="defs3358">
    <clipPath
       id="clipPath2063"
       clipPathUnits="userSpaceOnUse">
      <path
         inkscape:connector-curvature="0"
         id="path2061"
         d="M 0,0 H 708.661 V 498.898 H 0 Z" />
    </clipPath>
  </defs>
  <sodipodi:namedview
     pagecolor="#ffffff"
     bordercolor="#666666"
     borderopacity="1"
     objecttolerance="10"
     gridtolerance="10"
     guidetolerance="10"
     inkscape:pageopacity="0"
     inkscape:pageshadow="2"
     inkscape:window-width="640"
     inkscape:window-height="480"
     id="namedview3356"
     showgrid="false"
     inkscape:zoom="0.59"
     inkscape:cx="200"
     inkscape:cy="200"
     inkscape:window-x="222"
     inkscape:window-y="105"
     inkscape:window-maximized="0"
     inkscape:current-layer="svg3354" />
  <metadata
     id="metadata3328">
Created by potrace 1.10, written by Peter Selinger 2001-2011
<rdf:RDF>
  <cc:Work
     rdf:about="">
    <dc:format>image/svg+xml</dc:format>
    <dc:type
       rdf:resource="http://purl.org/dc/dcmitype/StillImage" />
  </cc:Work>
</rdf:RDF>
</metadata>
  <g
     transform="matrix(3.2400781,0,0,-3.2400781,-661.8973,1476.2646)"
     id="g2057">
    <g
       clip-path="url(#clipPath2063)"
       id="g2059">
      <g
         transform="translate(267.6861,433.7445)"
         id="g2065">
        <path
           inkscape:connector-curvature="0"
           id="path2067"
           style="fill:none;stroke:#494949;stroke-width:0.5;stroke-linecap:butt;stroke-linejoin:miter;stroke-miterlimit:10;stroke-dasharray:none;stroke-opacity:1"
           d="m 0,0 c -1.316,-2.031 -26.529,-42.553 -26.529,-42.553 0,0 -2.64,-4.396 -4.444,-5.967 0,0 -5.848,-4.596 -10.726,-1.42 -4.878,3.175 0.301,10.997 0.301,10.997 l 28.066,45.528 c 0,0 4.16,6.719 11.252,5.616 0,0 6.566,-1.655 4.135,-8.173 C 2.055,4.028 1.134,1.75 0,0 Z m -43.792,-45.837 c 0,0 -0.738,-5.691 4.474,-6.819 5.212,-1.129 9.961,3.171 9.961,3.171 0,0 1.708,1.483 3.512,4.492 1.805,3.008 27.098,43.856 27.098,43.856 0,0 3.784,5.867 2.28,10.054 -1.503,4.187 -7.82,3.385 -7.82,3.385 m -38.176,-63.138 5.943,-7.177 c 0,0 1.061,-1.036 2.89,-1.538 1.83,-0.501 1.988,-0.551 1.988,-0.551 l 1.003,-0.803 c 0,0 5.179,-0.267 8.787,4.012 0,0 1.504,1.629 2.707,3.635 1.203,2.006 27.866,44.851 27.866,44.851 0,0 4.084,6.393 1.679,9.702 0,0 -2.206,3.899 -7.944,9.314 M -3.998,8.519 C -2.695,7.138 -3.116,4.621 -4.94,2.898 -6.764,1.175 -9.299,0.897 -10.603,2.278 c -1.304,1.381 -0.882,3.898 0.942,5.621 1.823,1.724 4.359,2.001 5.663,0.62 z M -5.713,6.313 C -5.205,5.775 -5.37,4.795 -6.08,4.123 -6.791,3.452 -7.779,3.344 -8.286,3.882 -8.795,4.42 -8.63,5.401 -7.92,6.072 c 0.711,0.671 1.699,0.78 2.207,0.241 z m -2.423,-32.386 c 0,-0.351 -0.265,-0.635 -0.593,-0.635 -0.328,0 -0.593,0.284 -0.593,0.635 0,0.35 0.265,0.635 0.593,0.635 0.328,0 0.593,-0.285 0.593,-0.635 z M 2.459,-7.022 c -0.509,-0.98 -1.528,-1.459 -2.277,-1.07 -0.749,0.389 -0.944,1.499 -0.436,2.478 0.509,0.98 1.528,1.459 2.277,1.07 0.749,-0.389 0.944,-1.498 0.436,-2.478 z m -3.963,-17.681 -2.004,2.106 m 4.945,17.215 c 0,-0.182 -0.136,-0.33 -0.305,-0.33 -0.168,0 -0.304,0.148 -0.304,0.33 0,0.182 0.136,0.33 0.304,0.33 0.169,0 0.305,-0.148 0.305,-0.33 z M 0.659,-6.459 c 0,-0.182 -0.137,-0.33 -0.305,-0.33 -0.168,0 -0.304,0.148 -0.304,0.33 0,0.182 0.136,0.33 0.304,0.33 0.168,0 0.305,-0.148 0.305,-0.33 z m 0.928,-0.745 c 0,-0.182 -0.136,-0.329 -0.304,-0.329 -0.168,0 -0.304,0.147 -0.304,0.329 0,0.183 0.136,0.33 0.304,0.33 0.168,0 0.304,-0.147 0.304,-0.33 z m 0.602,0.97 c 0,-0.182 -0.137,-0.33 -0.305,-0.33 -0.168,0 -0.304,0.148 -0.304,0.33 0,0.182 0.136,0.33 0.304,0.33 0.168,0 0.305,-0.148 0.305,-0.33 z m -33.831,-53.868 -4.694,5.816 c 0,0 -0.652,1.153 0.551,0.05 1.203,-1.103 4.828,-5.816 4.828,-5.816 m -1.219,0.1 c 0,0 1.854,0.125 2.932,-0.852" />
      </g>
    </g>
  </g>
</svg>
