<?xml version="1.0" encoding="UTF-8" standalone="no"?>
<svg
   xmlns:dc="http://purl.org/dc/elements/1.1/"
   xmlns:cc="http://creativecommons.org/ns#"
   xmlns:rdf="http://www.w3.org/1999/02/22-rdf-syntax-ns#"
   xmlns:svg="http://www.w3.org/2000/svg"
   xmlns="http://www.w3.org/2000/svg"
   xmlns:sodipodi="http://sodipodi.sourceforge.net/DTD/sodipodi-0.dtd"
   xmlns:inkscape="http://www.inkscape.org/namespaces/inkscape"
   version="1.0"
   width="500.000000pt"
   height="500.000000pt"
   viewBox="0 0 500.000000 500.000000"
   preserveAspectRatio="xMidYMid meet"
   id="svg4082"
   sodipodi:docname="icon.svg"
   inkscape:version="0.92.1 r15371">
  <defs
     id="defs4086" />
  <sodipodi:namedview
     pagecolor="#ffffff"
     bordercolor="#666666"
     borderopacity="1"
     objecttolerance="10"
     gridtolerance="10"
     guidetolerance="10"
     inkscape:pageopacity="0"
     inkscape:pageshadow="2"
     inkscape:window-width="640"
     inkscape:window-height="480"
     id="namedview4084"
     showgrid="false"
     inkscape:zoom="0.354"
     inkscape:cx="333.33333"
     inkscape:cy="333.33333"
     inkscape:window-x="65"
     inkscape:window-y="24"
     inkscape:window-maximized="0"
     inkscape:current-layer="svg4082" />
  <metadata
     id="metadata4062">
Created by potrace 1.13, written by Peter Selinger 2001-2015
<rdf:RDF>
  <cc:Work
     rdf:about="">
    <dc:format>image/svg+xml</dc:format>
    <dc:type
       rdf:resource="http://purl.org/dc/dcmitype/StillImage" />
  </cc:Work>
</rdf:RDF>
</metadata>
  <path
     style="fill:#000000;stroke-width:1.01601934"
     d="M 46.614647,456.68945 C 33.102067,453.05037 23.605604,445.12506 17.18003,432.12469 L 13.325235,424.3256 13.050211,303.36604 c -0.26871,-118.18489 -0.228734,-121.11198 1.742941,-127.60585 3.455958,-11.38248 10.406413,-20.42042 20.376482,-26.4963 6.982986,-4.25547 11.688586,-5.33405 25.775746,-5.90801 l 14.091522,-0.57413 2.959426,-9.08979 c 5.137444,-15.77941 11.201491,-26.34059 23.551102,-41.016773 35.90388,-42.667893 97.72003,-62.037716 159.17851,-49.8779 30.15047,5.965397 68.56114,20.773333 110.32906,42.533663 14.96197,7.794905 47.66912,26.84011 55.79008,32.48628 2.23526,1.55405 6.00695,4.04042 8.38154,5.52524 4.30583,2.69239 4.3222,2.69414 6.0679,0.65527 0.96276,-1.12441 2.71929,-2.04438 3.90342,-2.04438 2.18271,0 31.1651,19.24507 38.4492,25.53125 7.17968,6.1961 9.54472,15.57602 6.09877,24.18829 -1.27889,3.19622 -2.69955,4.57955 -6.80361,6.62468 -3.04151,1.51564 -6.8909,2.57567 -9.30579,2.56258 -4.34181,-0.0234 -11.93617,-2.97606 -15.11314,-5.87566 -1.03779,-0.94719 -8.81856,-6.55181 -17.29059,-12.45468 -15.2725,-10.6411 -15.4019,-10.76366 -15.19044,-14.38877 0.24969,-4.28165 -0.29301,-4.76323 -17.4856,-15.51517 C 355.87971,99.68256 295.81179,72.415541 259.74051,65.07277 c -29.53522,-6.012274 -58.64373,-4.622487 -84.48013,4.033501 -24.2096,8.110958 -44.51424,22.204373 -60.15598,41.754139 -6.70808,8.38409 -15.232241,23.51409 -16.410118,29.1273 l -0.692893,3.30205 H 224.41879 c 119.39291,0 126.72803,0.10249 132.00734,1.84413 16.23314,5.35535 28.26581,18.72172 31.31162,34.78224 0.62843,3.31361 1,48.67683 0.98899,120.74132 -0.0212,126.64457 0.10291,123.93411 -6.07185,134.72626 -3.49617,6.11065 -12.4826,14.82668 -18.3982,17.8446 -10.20183,5.20459 -4.51202,5.03242 -163.94337,4.96059 C 75.978452,458.1327 51.071966,457.88991 46.614647,456.68945 Z m 179.566623,-6.79442 c 119.77749,-0.11139 125.60093,-0.20111 128.17529,-1.97414 1.48329,-1.02154 3.37045,-1.85737 4.19369,-1.85737 0.82322,0 2.06595,-0.68581 2.76158,-1.52404 0.69568,-0.83819 1.8387,-1.52401 2.54008,-1.52401 0.70133,0 1.88389,-0.73345 2.62787,-1.62986 0.74398,-0.89646 2.40352,-2.02945 3.6879,-2.51776 1.28441,-0.4883 2.22174,-1.2408 2.08301,-1.67219 -0.13893,-0.43136 1.4598,-2.53983 3.55232,-4.68545 2.09253,-2.14556 3.57734,-4.26875 3.29962,-4.71811 -0.27764,-0.44938 0.29213,-2.58017 1.26632,-4.73508 1.64543,-3.63967 1.7912,-12.11 2.05143,-119.23621 0.24885,-102.36473 0.0984,-116.14412 -1.33634,-122.67095 -1.00075,-4.55185 -2.26857,-7.71768 -3.32822,-8.3107 -0.94144,-0.52685 -1.59739,-1.21868 -1.45769,-1.53741 0.61099,-1.39387 0.0474,-2.43997 -3.25974,-6.05055 -3.04287,-3.32202 -3.34925,-4.10641 -2.28606,-5.85282 1.05063,-1.72582 0.86276,-2.31561 -1.30264,-4.08924 -3.82431,-3.13241 -11.48727,-6.77052 -16.7404,-7.94777 -7.66577,-1.71793 -282.315987,-1.19582 -300.704061,0.57163 -11.543471,1.10956 -24.628429,10.4625 -30.493785,21.79651 -2.017678,3.89888 -3.487697,7.08889 -3.266695,7.08889 0.220983,0 -0.172056,2.4687 -0.873453,5.486 -0.992588,4.27 -1.186233,27.9728 -0.873642,106.93603 0.220904,55.79752 0.579894,107.16513 0.797794,114.15028 0.427483,13.70453 2.059745,20.4714 6.294426,26.09472 1.339574,1.77885 2.435596,3.52854 2.435596,3.8882 0,0.88104 5.756154,6.59376 6.643841,6.59376 0.38722,0 2.822747,1.53269 5.41226,3.406 2.589512,1.87327 5.851231,3.74562 7.248267,4.16072 1.397025,0.41514 4.597486,1.39426 7.112152,2.17582 3.581943,1.11332 9.302631,1.29988 26.416481,0.86149 12.01444,-0.3078 78.309699,-0.61215 147.322799,-0.67639 z M 93.547451,420.8023 c -9.860479,-6.01312 -12.114523,-16.44894 -5.397263,-24.98854 4.717573,-5.99742 14.890342,-7.59169 21.292622,-3.33705 4.67068,3.10389 8.2939,10.27625 7.6803,15.20353 -1.42338,11.43017 -14.45545,18.68376 -23.575659,13.12206 z m 4.107388,-18.4276 c 0.345341,-0.55879 1.972577,-1.01602 3.616021,-1.01602 1.97873,0 2.98812,-0.51481 2.98812,-1.52404 0,-0.9889 -0.99091,-1.52404 -2.82199,-1.52404 -2.945096,0 -7.338213,2.46753 -7.338213,4.12172 0,1.27543 2.759815,1.23073 3.556062,-0.0577 z m 2.364011,-6.21312 c 1.49385,-0.0643 3.6305,-0.0516 4.74811,0.0288 1.94617,0.1394 1.95207,0.0965 0.13969,-1.01344 -2.63154,-1.6118 -8.594597,-0.43874 -11.461691,2.25477 -3.526662,3.31311 -2.915793,4.54661 0.731679,1.47745 1.719271,-1.44667 4.348254,-2.683 5.842102,-2.74733 z m 33.88718,24.88236 c -5.02792,-2.56346 -8.5374,-7.76438 -9.08502,-13.46373 -0.53783,-5.59702 0.98766,-9.23693 5.78136,-13.79465 2.65916,-2.52826 4.15399,-3.06249 9.4889,-3.39107 5.36239,-0.3303 6.86143,-0.0259 9.78532,1.98501 12.76298,8.77911 7.64254,28.73044 -7.69521,29.98388 -3.27921,0.26814 -6.01848,-0.16883 -8.27535,-1.31944 z m 5.35404,-19.06744 c 5.8617,-1.54398 7.37214,-3.6659 2.60948,-3.6659 -3.76708,0 -6.65506,1.36089 -7.48662,3.52784 -0.32757,0.85376 -0.49568,1.53211 -0.37351,1.50743 0.12212,-0.0259 2.48497,-0.64088 5.25065,-1.36937 z m 0.95535,-5.81038 c 1.17934,-0.0618 3.28729,-0.0414 4.68432,0.0452 2.03079,0.12622 2.23447,-0.0518 1.01603,-0.88801 -3.62253,-2.4858 -12.01583,-0.12315 -14.22456,4.00371 -0.95135,1.7776 -0.64295,1.71731 2.6517,-0.51852 2.05053,-1.39153 4.69319,-2.58068 5.87251,-2.64252 z m 33.64312,24.9867 c -6.56209,-3.54735 -9.65442,-8.42876 -9.65442,-15.23987 0,-4.437 1.84793,-8.1578 6.02302,-12.12739 2.65913,-2.52826 4.154,-3.06249 9.48889,-3.39107 5.3624,-0.3303 6.86144,-0.0259 9.78533,1.98501 12.76033,8.77729 7.65233,28.69197 -7.69525,30.00158 -3.27551,0.27935 -5.91229,-0.12811 -7.94757,-1.22826 z m 7.03391,-19.69194 c 4.19687,-0.93542 4.62,-3.15028 0.60184,-3.15028 -4.01382,0 -7.13,1.61734 -7.13,3.70052 0,1.12644 0.52393,1.37823 1.77805,0.85459 0.97789,-0.40831 3.11547,-1.04048 4.75011,-1.40483 z m 1.1879,-5.19783 c 3.59262,-0.0118 4.55866,-0.29055 3.46015,-1.00048 -3.78231,-2.44434 -12.04169,-0.0142 -14.30131,4.20805 -1.03613,1.93598 -0.79717,1.88328 2.35183,-0.51855 2.67364,-2.03928 4.68749,-2.67717 8.48933,-2.68902 z m 31.35738,24.53925 c -4.5085,-2.74935 -8.41527,-7.81155 -9.18173,-11.89721 -1.32535,-7.06472 4.62205,-16.64011 11.39047,-18.33888 5.25826,-1.31973 12.50096,0.18981 15.74563,3.28175 6.15148,5.86199 7.50553,13.36854 3.64192,20.19024 -4.32588,7.63791 -14.78928,10.91514 -21.59629,6.7641 z m 4.15819,-18.34156 c 0.53088,-0.51151 2.07243,-1.08301 3.42567,-1.27004 3.62303,-0.50069 3.94552,-2.8801 0.39035,-2.8801 -3.01456,0 -7.42289,2.44781 -7.42289,4.12172 0,1.22513 2.34564,1.2436 3.60687,0.0287 z m 1.29717,-6.32554 c 0.93504,-0.0789 3.0717,-0.0784 4.74815,0.003 2.32899,0.11069 2.6885,-0.0916 1.52401,-0.85704 -2.83103,-1.86135 -7.84564,-1.13965 -11.09823,1.59722 -1.71931,1.44672 -3.12602,3.0876 -3.12602,3.64642 0,0.55881 1.40671,-0.16767 3.12602,-1.61438 1.71927,-1.4467 3.89103,-2.69489 4.82607,-2.77375 z m 33.67556,24.43331 c -8.06008,-4.67592 -11.12131,-14.37512 -6.85517,-21.71984 1.28875,-2.21871 3.93642,-5.11633 5.88374,-6.43913 3.00591,-2.04187 4.49851,-2.34607 9.88351,-2.01438 5.58784,0.34419 6.77023,0.8049 9.93286,3.87024 1.97448,1.91374 4.09435,5.16292 4.71077,7.22044 4.11421,13.73201 -11.28089,26.20369 -23.55571,19.08267 z m 4.60121,-18.19381 c 0.34537,-0.55879 1.9726,-1.01602 3.61606,-1.01602 1.97872,0 2.98808,-0.51481 2.98808,-1.52404 0,-0.9889 -0.99091,-1.52404 -2.82197,-1.52404 -2.9451,0 -7.33824,2.46753 -7.33824,4.12172 0,1.27543 2.75984,1.23073 3.55607,-0.0577 z m 1.85601,-6.20858 c 1.21445,-0.0618 3.35109,-0.049 4.74813,0.0288 2.31617,0.12834 2.37327,0.0389 0.6478,-1.01796 -2.63157,-1.61179 -8.59462,-0.43871 -11.46171,2.25478 -3.52663,3.3131 -2.91582,4.54663 0.73167,1.47745 1.7193,-1.44668 4.11965,-2.68095 5.33411,-2.74281 z m 34.39519,24.82024 c -7.13014,-3.51357 -10.87844,-12.35522 -8.40939,-19.83648 0.63414,-1.92157 2.73956,-5.03147 4.67868,-6.91095 3.00894,-2.9164 4.39671,-3.48016 9.47011,-3.84714 9.21959,-0.66689 14.37614,2.96282 17.38431,12.23691 1.48906,4.59078 0.23148,9.35777 -3.70218,14.03258 -5.05745,6.01046 -12.59508,7.68904 -19.42153,4.32508 z m 7.36169,-19.4769 c 4.35045,-1.04076 4.57828,-3.19886 0.33774,-3.19886 -2.44881,0 -4.18534,0.78837 -5.92681,2.69058 l -2.46315,2.69059 2.54003,-0.73562 c 1.39704,-0.40462 3.87752,-1.05561 5.51219,-1.44669 z m 1.18788,-5.24641 c 3.59262,-0.0118 4.55869,-0.29055 3.46013,-1.00048 -3.7823,-2.44434 -12.0417,-0.0142 -14.30129,4.20805 -1.03613,1.93598 -0.79716,1.88328 2.35183,-0.51855 2.67362,-2.03928 4.68747,-2.67717 8.48933,-2.68902 z M 169.70294,369.94674 c -0.2304,-0.23267 -0.41875,-1.03293 -0.41875,-1.77804 0,-0.97761 1.68805,-1.35469 6.06424,-1.35469 4.97298,0 5.95897,-0.27418 5.47942,-1.52404 -0.83067,-2.1646 1.99717,-1.9312 4.04717,0.33403 3.05046,3.37071 2.01537,4.06987 -6.53592,4.4147 -4.51957,0.18227 -8.40586,0.14082 -8.63616,-0.0919 z m -78.652244,-8.15286 c 0,-4.4375 0.420377,-8.32797 0.934116,-8.64549 1.175439,-0.72647 3.272553,1.35076 6.332519,6.27256 l 2.385549,3.837 0.30941,-5.4003 c 0.20794,-3.63088 0.70737,-5.2686 1.52404,-4.99832 0.77623,0.25689 1.32114,3.39782 1.50972,8.70236 0.36297,10.2096 -1.24527,11.00091 -6.179189,3.04051 l -3.260073,-5.25991 -0.30713,5.25991 c -0.220318,3.7723 -0.723095,5.25986 -1.778021,5.25986 -1.160411,0 -1.470941,-1.70323 -1.470941,-8.06818 z m 40.853704,-0.31396 c 0.23385,-6.64232 0.61142,-8.38216 1.81911,-8.38216 1.14771,0 1.56941,1.37989 1.70774,5.5881 0.10109,3.07346 0.21542,6.15962 0.25402,6.85813 0.042,0.76072 1.49636,1.27002 3.62636,1.27002 2.48362,0 3.55609,0.45962 3.55609,1.52403 0,1.1713 -1.30282,1.52402 -5.62921,1.52402 h -5.62918 z m 78.02057,3.30205 c 0,-3.14346 0.44429,-5.08006 1.1654,-5.08006 0.64094,0 3.17082,1.64328 5.62192,3.65177 2.53195,2.07473 5.10009,3.40484 5.94674,3.07994 1.93142,-0.74115 1.91279,-2.56927 -0.034,-3.31627 -1.86855,-0.71702 -2.02912,-3.41544 -0.20303,-3.41544 2.11282,0 3.75927,2.22485 3.75927,5.08006 0,5.469 -3.79226,6.49434 -9.20079,2.48775 l -3.49946,-2.59232 -0.32149,2.59232 c -0.17682,1.4258 -0.97693,2.59234 -1.77802,2.59234 -1.07051,0 -1.45656,-1.34638 -1.45656,-5.08009 z m 39.05691,3.58841 c -2.14481,-1.62229 -1.74419,-1.84116 3.6159,-1.97534 4.22101,-0.10572 5.04398,-2.93126 1.01601,-3.48846 -3.4857,-0.48214 -5.08009,-1.99798 -5.08009,-4.82969 0,-3.48632 4.37543,-6.13437 7.66178,-4.63704 3.12729,1.42489 3.26089,3.42116 0.21218,3.17423 -3.8957,-0.31559 -4.82609,-0.0142 -4.82609,1.56379 0,0.8382 0.81266,1.52404 1.80597,1.52404 2.69946,0 6.32217,2.9024 6.32217,5.0651 0,4.51416 -6.59511,6.72934 -10.72801,3.60337 z m 16.82418,-4.57252 c 0,-4.97304 -0.27418,-5.95903 -1.52404,-5.47943 -2.2151,0.85002 -1.90801,-2.01817 0.44398,-4.14671 3.15507,-2.85531 4.12808,-1.05871 4.12808,7.62216 0,6.49437 -0.29726,8.06818 -1.52399,8.06818 -1.18449,0 -1.52403,-1.35115 -1.52403,-6.0642 z m 21.78457,4.57252 c -2.11048,-1.59631 -1.83352,-1.74893 3.52115,-1.94051 4.52935,-0.16225 5.34117,-2.47825 1.1616,-3.31415 -4.04712,-0.80943 -6.44856,-3.99988 -5.01993,-6.66934 1.56478,-2.92383 5.29267,-4.2987 7.88862,-2.90938 3.21169,1.71885 2.61491,3.29111 -1.11133,2.92783 -2.46103,-0.23992 -3.36079,0.12152 -3.63057,1.45902 -0.23847,1.1821 0.2716,1.77806 1.52179,1.77806 2.71895,0 6.39668,2.86333 6.39668,4.98022 0,4.38772 -6.73972,6.70482 -10.72801,3.68825 z m 11.74405,0.69552 c 0,-0.49632 1.65318,-3.02432 3.67373,-5.61781 2.3602,-3.0294 3.44247,-5.31817 3.02688,-6.40113 -0.59348,-1.54661 -0.81484,-1.53373 -2.68173,0.15589 -3.0202,2.73324 -4.97747,0.40966 -2.08848,-2.47934 2.5442,-2.54417 4.47013,-2.70011 6.63319,-0.53702 2.29274,2.29274 1.97448,5.15566 -1.00783,9.0657 l -2.60444,3.41455 2.63604,0.3277 c 4.71257,0.58586 3.22058,2.3517 -2.25328,2.66687 -2.93376,0.16884 -5.33408,-0.0991 -5.33408,-0.59527 z M 170.6381,358.06078 c -1.55893,-2.37919 -1.58464,-2.93574 -0.24596,-5.32069 1.96979,-3.50945 5.92554,-4.84444 10.78143,-3.63856 4.89823,1.21641 6.59866,5.0376 4.00399,8.99759 -1.49688,2.2845 -2.42322,2.61878 -7.25716,2.61878 -4.85462,0 -5.75701,-0.32926 -7.28227,-2.65712 z m 12.36237,-2.93096 c 0,-1.70406 -0.78073,-2.08213 -4.83648,-2.34216 -3.75553,-0.24076 -4.98076,0.066 -5.48215,1.37257 -0.902,2.35058 1.4518,3.57998 6.25456,3.26668 3.29836,-0.21522 4.06407,-0.64792 4.06407,-2.29709 z m 28.52109,0.94341 c -1.93398,-1.93398 -2.06494,-5.50267 -0.29091,-7.92875 1.90556,-2.60607 9.197,-3.34188 12.38913,-1.25032 2.81637,1.84535 3.58452,7.31423 1.34228,9.55646 -1.82222,1.82222 -11.51298,1.55011 -13.4405,-0.37739 z m 11.41208,-4.12167 c 0.2261,-1.58463 -0.36577,-2.33146 -2.21552,-2.79574 -4.70937,-1.18198 -9.6408,2.21554 -7.01995,4.83641 0.39886,0.39885 2.57059,0.58937 4.8261,0.42334 3.29188,-0.2422 4.1618,-0.72839 4.40937,-2.46401 z m -53.64945,-6.99134 c 0,-0.84341 2.28604,-2.94003 5.0801,-4.65925 2.79404,-1.71919 5.08009,-3.34971 5.08009,-3.62342 0,-0.2736 -2.16845,-0.36423 -4.81878,-0.20135 -3.89047,0.23933 -4.88352,-0.0396 -5.15462,-1.44729 -0.29618,-1.53805 0.69139,-1.74365 8.37489,-1.74365 10.47429,0 11.20874,1.23321 3.63056,6.09612 -2.79405,1.79295 -5.08009,3.35528 -5.08009,3.47182 0,0.11657 2.15857,0.18321 4.79684,0.14813 3.78615,-0.0505 4.87225,0.31079 5.1546,1.71416 0.31848,1.58293 -0.59813,1.77804 -8.35293,1.77804 -7.08916,0 -8.71066,-0.28541 -8.71066,-1.5334 z m 40.64078,-3.01168 c 0,-0.82338 2.39423,-3.10942 5.32054,-5.08008 l 5.32052,-3.58308 h -5.32052 c -4.05201,0 -5.32054,-0.36336 -5.32054,-1.52402 0,-1.2277 1.58047,-1.52404 8.12816,-1.52404 7.10322,0 8.12814,0.22725 8.12814,1.80099 0,1.07866 -2.13861,3.11616 -5.33219,5.08011 l -5.33219,3.2791 h 5.33219 c 4.06238,0 5.33219,0.36292 5.33219,1.52402 0,1.2277 -1.58049,1.52404 -8.12814,1.52404 -6.48254,0 -8.12816,-0.3031 -8.12816,-1.49704 z M 118.14456,304.1595 c -0.37254,-0.37255 -0.67733,-10.52465 -0.67733,-22.56026 0,-17.77191 -0.55537,-26.56797 -2.95624,-46.82156 -5.42148,-45.73504 -5.44961,-46.07803 -4.03334,-49.18638 2.29967,-5.04724 5.17462,-5.72484 24.2896,-5.72484 h 17.40095 l 2.96988,2.9699 c 2.13331,2.13331 2.9699,3.95608 2.9699,6.47083 0,4.97938 -6.01066,58.83056 -6.77115,60.66459 -0.34756,0.83822 -0.90937,13.41146 -1.24847,27.94053 -0.59594,25.53366 -0.68445,26.41653 -2.64858,26.41653 -1.96186,0 -2.0415,-0.76877 -2.30632,-22.26065 -0.24567,-19.94258 0.0982,-25.53248 3.30207,-53.68085 1.96699,-17.28114 3.57694,-31.72451 3.57765,-32.09641 6.2e-4,-0.37189 -7.71162,-0.5325 -17.13856,-0.35693 -14.80457,0.27578 -17.22301,0.10273 -17.74977,-1.27002 -0.53798,-1.4019 1.35581,-1.58927 16.06261,-1.58927 12.23789,0 16.88325,-0.33782 17.46501,-1.27003 1.38984,-2.22702 1.44386,-5.16127 0.11059,-6.00746 -1.90651,-1.21005 -31.05419,-1.03435 -33.36264,0.20108 -2.86409,1.53281 -2.76559,3.06669 3.66182,57.03276 2.41812,20.30337 3.53253,55.90362 1.88436,60.19861 -0.62143,1.61946 -3.54613,2.18576 -4.80205,0.92981 z M 88.002655,140.82229 c 0,-0.7983 0.571508,-2.07648 1.27002,-2.84042 2.563563,-2.80363 4.650855,-7.84301 4.108132,-9.91838 -0.384861,-1.47172 -0.123843,-2.04048 0.84216,-1.83532 0.94382,0.20042 1.316093,-0.53021 1.142738,-2.24278 -0.179123,-1.76974 0.01437,-2.122 0.635025,-1.16155 1.049841,1.62226 2.676235,-0.23264 1.654109,-1.8865 -0.345351,-0.55881 -0.003,-1.01602 0.760543,-1.01602 0.763636,0 2.147648,-1.72081 3.075598,-3.82402 3.24187,-7.3479 24.47713,-29.505696 34.7726,-36.283263 4.73136,-3.114691 10.89611,-6.608474 13.97025,-7.917439 1.53674,-0.65434 2.79406,-1.487258 2.79406,-1.850935 0,-0.363672 2.05743,-1.237273 4.57209,-1.941332 2.51462,-0.704056 4.57208,-1.677893 4.57208,-2.16408 0,-0.486188 0.85843,-0.883975 1.90764,-0.883975 1.04919,0 2.47264,-0.680781 3.16316,-1.512846 0.69057,-0.832061 1.58994,-1.306199 1.99859,-1.053635 0.40865,0.252551 3.21439,-0.510067 6.23496,-1.694728 6.71843,-2.634924 16.32568,-4.393601 34.88893,-6.386674 19.91422,-2.138119 38.39321,-0.36928 61.53684,5.890416 11.32338,3.062663 30.56723,9.666454 31.95377,10.965371 0.53087,0.497325 1.98982,0.90423 3.24209,0.90423 1.25229,0 2.53884,0.423855 2.85904,0.941897 0.32015,0.518041 2.29026,1.459056 4.37802,2.091147 5.21683,1.57946 13.88284,5.43822 14.29478,6.36513 0.18627,0.419117 1.07065,0.76202 1.96528,0.76202 0.89461,0 3.71406,0.956587 6.26544,2.125751 2.55136,1.169164 6.69629,3.037157 9.21094,4.151091 2.51468,1.113923 5.94372,2.748048 7.62017,3.631364 1.67642,0.883326 7.64614,3.983158 13.26605,6.888524 5.61988,2.905366 12.02079,6.388866 14.22424,7.741136 5.37566,3.29899 9.56825,5.06276 10.56715,4.44544 0.45123,-0.27888 1.97502,0.40111 3.38618,1.51113 1.41114,1.11 3.0921,2.01819 3.73543,2.01819 0.64336,0 0.88718,0.45721 0.54182,1.01602 -0.34539,0.5588 0.20746,1.01601 1.22819,1.01601 1.02089,0 3.44822,1.07843 5.39409,2.39649 1.94585,1.31806 6.28116,3.68164 9.634,5.25242 3.35287,1.57076 7.80158,3.92139 9.88602,5.22365 4.45701,2.78451 4.84627,2.85332 4.84627,0.85644 0,-0.8312 -1.71452,-2.62679 -3.81005,-3.99018 -2.09558,-1.3634 -6.32473,-4.33465 -9.3982,-6.6028 -3.07344,-2.26813 -7.41694,-5.34159 -9.65219,-6.8299 -2.23524,-1.4883 -4.29265,-3.03324 -4.57209,-3.43319 -0.27936,-0.39996 -1.53672,-1.04824 -2.79405,-1.44062 -1.25732,-0.39237 -2.28603,-1.15113 -2.28603,-1.68611 0,-0.535 -1.14301,-1.40729 -2.54003,-1.93843 -1.39705,-0.53114 -2.54008,-1.43425 -2.54008,-2.00689 0,-0.57265 -0.3978,-0.92687 -0.88401,-0.78717 -0.48621,0.13973 -3.80098,-1.63538 -7.36614,-3.944638 -6.51385,-4.219187 -9.83365,-6.100166 -15.80619,-8.955683 -1.7754,-0.848821 -5.47779,-2.86983 -8.22752,-4.491129 -2.74973,-1.621309 -6.09783,-3.28529 -7.44024,-3.697737 -1.34238,-0.412456 -3.02306,-1.216167 -3.73485,-1.78602 -1.50706,-1.206562 -22.60224,-10.907432 -23.71893,-10.907432 -0.41449,0 -3.64309,-1.33292 -7.17465,-2.96205 -9.91119,-4.572089 -32.89677,-12.74926 -42.48965,-15.115789 -18.01771,-4.444892 -43.40407,-8.253833 -51.30899,-7.69834 -2.79405,0.196335 -8.73775,0.547315 -13.20827,0.779936 -8.02173,0.417412 -23.45563,2.831146 -29.43785,4.60383 -1.69113,0.501122 -5.24939,1.407168 -7.9073,2.013433 -2.65789,0.606265 -6.77276,1.974035 -9.14418,3.039492 -2.3714,1.065451 -6.59768,2.748455 -9.39175,3.74 -2.79402,0.991548 -6.2231,2.543429 -7.62012,3.448626 -1.39703,0.905195 -3.68307,2.225582 -5.08009,2.934187 -10.60616,5.379709 -16.33565,9.711399 -27.51942,20.805481 -4.98149,4.941569 -9.05729,9.203033 -9.05729,9.469909 0,0.266856 -1.76567,2.624681 -3.92375,5.239579 -2.15806,2.614915 -4.75659,6.215445 -5.774513,8.001195 -1.017924,1.78574 -2.273076,2.9858 -2.789244,2.6668 -0.536181,-0.33137 -0.64467,0.34558 -0.253158,1.57929 0.406609,1.28109 0.244227,2.15928 -0.399144,2.15928 -0.596457,0 -1.084484,0.71278 -1.084484,1.58399 0,0.93859 -0.477947,1.28861 -1.17302,0.85903 -0.726009,-0.4487 -0.897223,-0.27876 -0.44932,0.44597 0.397995,0.64399 0.05244,2.42918 -0.768195,3.96706 -1.695165,3.17729 -5.238846,14.36251 -6.116592,19.30644 -0.531551,2.99388 -0.351546,3.30207 1.928379,3.30207 1.502016,0 2.514666,-0.5845 2.514666,-1.45146 z m 1.047125,-5.15267 c 0,-0.55881 0.443204,-1.70183 0.984926,-2.54004 0.541672,-0.83822 0.984896,-1.06683 0.984896,-0.50801 0,0.55881 -0.443224,1.70182 -0.984896,2.54004 -0.541722,0.8382 -0.984926,1.06682 -0.984926,0.50801 z"
     id="path3851"
     inkscape:connector-curvature="0" />
</svg>
