<?xml version="1.0" encoding="UTF-8" standalone="no"?>
<svg
   xmlns:dc="http://purl.org/dc/elements/1.1/"
   xmlns:cc="http://creativecommons.org/ns#"
   xmlns:rdf="http://www.w3.org/1999/02/22-rdf-syntax-ns#"
   xmlns:svg="http://www.w3.org/2000/svg"
   xmlns="http://www.w3.org/2000/svg"
   xmlns:sodipodi="http://sodipodi.sourceforge.net/DTD/sodipodi-0.dtd"
   xmlns:inkscape="http://www.inkscape.org/namespaces/inkscape"
   version="1.0"
   width="500.000000pt"
   height="500.000000pt"
   viewBox="0 0 500.000000 500.000000"
   preserveAspectRatio="xMidYMid meet"
   id="svg4082"
   sodipodi:docname="icon.svg"
   inkscape:version="0.92.1 r15371">
  <defs
     id="defs4086" />
  <sodipodi:namedview
     pagecolor="#ffffff"
     bordercolor="#666666"
     borderopacity="1"
     objecttolerance="10"
     gridtolerance="10"
     guidetolerance="10"
     inkscape:pageopacity="0"
     inkscape:pageshadow="2"
     inkscape:window-width="640"
     inkscape:window-height="480"
     id="namedview4084"
     showgrid="false"
     inkscape:zoom="0.354"
     inkscape:cx="333.33333"
     inkscape:cy="333.33333"
     inkscape:window-x="65"
     inkscape:window-y="24"
     inkscape:window-maximized="0"
     inkscape:current-layer="svg4082" />
  <metadata
     id="metadata4062">
Created by potrace 1.13, written by Peter Selinger 2001-2015
<rdf:RDF>
  <cc:Work
     rdf:about="">
    <dc:format>image/svg+xml</dc:format>
    <dc:type
       rdf:resource="http://purl.org/dc/dcmitype/StillImage" />
    <dc:title></dc:title>
  </cc:Work>
</rdf:RDF>
</metadata>
  <path
     style="fill:#000000;stroke-width:1.00000012"
     d="m 132.5716,470.90584 c -29.7824,-0.61507 -45.499998,-1.98579 -45.499998,-3.96803 0,-0.42358 -2.325547,-0.99357 -5.167874,-1.26669 -3.472956,-0.33372 -5.615475,-1.10871 -6.532636,-2.36298 -1.109821,-1.51779 -1.311967,-9.18026 -1.082129,-41.01872 l 0.282643,-39.15229 2.500002,-2.09934 c 1.374998,-1.15463 3.850002,-2.47598 5.500002,-2.93633 l 3,-0.83701 -0.235927,-17.92562 C 85.20591,349.47974 84.821565,331.7126 84.481568,319.85627 l -0.618188,-21.55694 -4.344022,-2.30451 c -2.389218,-1.26746 -4.50508,-3.04186 -4.70192,-3.94305 -0.196839,-0.90119 -0.156955,-35.45067 0.08861,-76.77658 l 0.446516,-75.13803 -2.390486,-0.71538 c -6.41419,-1.91952 -14.84143,-6.30725 -18.89048,-9.83549 -2.475,-2.15666 -6.300003,-4.73456 -8.500003,-5.72865 -2.199999,-0.9941 -6.249999,-3.91713 -8.999999,-6.49565 -12.220905,-11.45884 -16.500001,-15.77414 -16.500001,-16.6396 0,-0.51073 -3.487498,-4.228017 -7.75,-8.260635 L 4.571594,85.129726 4.2499694,70.048654 3.9283449,54.967583 6.749971,51.190398 c 4.138098,-5.53949 4.975367,-6.277184 7.124471,-6.277184 1.070135,0 3.914779,-0.70126 6.321427,-1.558358 15.059071,-5.363087 54.802442,-9.618479 126.875731,-13.5848 28.49429,-1.568092 238.6935,-1.647338 259,-0.09765 40.06142,3.057292 47.4639,3.818664 69.50001,7.148335 7.64791,1.155603 14.53487,4.138912 17.87817,7.744479 2.59857,2.802452 2.62185,2.967406 2.62185,18.584889 V 78.90744 l -3.62824,4.016013 c -1.99553,2.208807 -4.66282,4.27568 -5.92732,4.593053 -1.77948,0.446621 -2.44962,1.517221 -2.96508,4.736868 -0.56142,3.507083 -1.90955,5.37041 -8.59127,11.874606 -8.46252,8.23766 -15.8051,13.78523 -18.24571,13.78523 -0.82349,0 -2.3174,1.03961 -3.31982,2.31024 -3.00526,3.80935 -16.54146,12.46092 -20.7144,13.23947 l -3.89185,0.72609 0.7052,30.61212 c 0.38787,16.83663 1.07544,51.3121 1.52799,76.61208 0.79988,44.72149 0.7685,46.07637 -1.12978,48.74763 -1.07388,1.51117 -2.9785,3.00509 -4.23247,3.31982 -2.21572,0.55613 -2.29821,1.01367 -2.93025,16.25241 -0.35771,8.62407 -0.65186,27.46811 -0.6537,41.8756 l -0.003,26.19541 2.74087,1.31369 c 1.50749,0.72252 3.28306,2.44485 3.94571,3.82743 0.79435,1.65738 1.61629,15.00553 2.41271,39.182 1.11325,33.79495 1.07719,36.86774 -0.46032,39.21426 -2.12207,3.23869 -7.27285,5.83773 -16.139,8.14362 -6.56974,1.70864 -14.46803,1.82858 -128.50001,1.95106 -66.82499,0.0717 -135.89999,-0.16696 -153.5,-0.5303 z m 257.95894,-2.18045 c 15.9141,-0.92063 24.88008,-2.54995 32.07895,-5.82942 7.75403,-3.53236 7.53891,-2.18973 6.41197,-40.01669 -0.54837,-18.40631 -1.26315,-34.36605 -1.58837,-35.46606 -0.67819,-2.29371 -4.28782,-6.49998 -5.57799,-6.49998 -2.75618,0 -3.27778,-2.6737 -3.09767,-15.8781 0.46993,-34.45135 1.35975,-71.82822 1.75853,-73.86749 0.49374,-2.52491 -1.44538,-3.33607 -7.44435,-3.11415 -1.925,0.0712 -6.03495,-0.1029 -9.13325,-0.38655 -3.09829,-0.28384 -6.24829,-0.12643 -7.00002,0.34979 -1.14352,0.72445 -1.14511,0.86836 -0.0113,0.88117 0.81329,0.008 1.11835,0.63712 0.76144,1.56726 -0.32754,0.85356 -0.1817,1.29622 0.32392,0.98367 0.5057,-0.31251 1.24506,-0.0414 1.64305,0.60259 0.39798,0.64395 0.29508,0.90599 -0.22876,0.58229 -0.52376,-0.32371 -1.60577,-0.17517 -2.40452,0.33018 -0.89436,0.56577 -0.99592,0.92458 -0.26447,0.93402 1.45377,0.0199 1.30462,4.00912 -0.15052,4.03061 -0.57048,0.008 -0.42823,0.40119 0.31606,0.87285 1.05551,0.66883 1.10276,1.32547 0.21487,2.98468 -0.91412,1.70802 -0.85703,2.12718 0.28975,2.12718 1.59143,0 2.95824,-2.6796 2.08641,-4.09026 -0.309,-0.50037 -0.11111,-0.90975 0.44023,-0.90975 0.84206,0 0.89702,2.13517 0.21713,8.44112 -0.0559,0.51763 -0.70659,0.11367 -1.44615,-0.89784 -1.29249,-1.76758 -1.36545,-1.75978 -1.87815,0.20069 -0.44966,1.71955 -0.0975,2.00962 2.24405,1.84751 2.53652,-0.17547 2.69884,0.0142 1.87098,2.19198 -0.49859,1.31133 -0.6768,2.75589 -0.39609,3.21009 0.28063,0.45422 0.21685,1.59072 -0.14173,2.52555 -0.57229,1.49131 -0.75722,1.51209 -1.50863,0.16951 -0.48824,-0.87247 -0.44266,-2.61838 0.10602,-4.06162 0.75685,-1.99068 0.67288,-2.42022 -0.3932,-2.01112 -0.74556,0.2861 -1.5357,2.06297 -1.75583,3.94861 -0.30781,2.63673 0.0142,3.5596 1.3896,3.99648 0.98441,0.31243 2.24249,0.2883 2.79575,-0.0535 0.67434,-0.41679 0.67493,0.24888 0.002,2.01936 -0.55227,1.45259 -0.70639,3.12285 -0.34248,3.71166 0.40802,0.66016 0.18567,0.77641 -0.57993,0.30322 -0.6829,-0.42205 -1.03919,-1.54156 -0.79173,-2.48782 0.26306,-1.00576 -0.11622,-1.72049 -0.91289,-1.72049 -1.67638,0 -1.48017,-2.53406 -1.68724,21.78941 -0.12161,14.28188 0.15279,20.4967 0.89266,20.21278 1.3464,-0.51673 1.29538,-8.5816 -0.0607,-9.57022 -0.66255,-0.48305 -0.64086,-0.73992 0.0632,-0.74999 0.58901,-0.008 0.9944,-1.55015 0.90082,-3.42606 -0.12444,-2.49625 0.19162,-3.27192 1.17907,-2.89301 1.55625,0.59728 1.84233,3.30375 0.34892,3.30375 -0.55001,0 -1.00001,0.49813 -1.00001,1.10698 0,0.60883 0.65208,0.85674 1.44907,0.55092 1.03369,-0.39666 1.26959,-0.0688 0.82293,1.14301 -0.34435,0.9345 -1.08,2.00228 -1.63477,2.37286 -0.64692,0.43216 -0.51684,1.26637 0.36278,2.32622 1.16479,1.40349 1.15636,1.78531 -0.0559,2.53456 -1.13674,0.70254 -1.17456,1.13494 -0.18566,2.12381 1.70566,1.70566 1.56163,3.1784 -0.24322,2.48587 -0.86379,-0.33148 -1.90932,0.22365 -2.49998,1.32726 -1.56694,2.92782 -1.13043,3.85396 0.48475,1.0285 1.09072,-1.90803 1.43751,-2.08562 1.46455,-0.74999 0.0199,0.9625 0.48543,1.75 1.03544,1.75 0.55,0 1,0.46973 1,1.04382 0,0.57411 -0.74083,0.91163 -1.64625,0.75 -0.90543,-0.16158 -1.83971,0.38117 -2.07615,1.20617 -0.38211,1.33333 -0.30129,1.33333 0.72715,0 0.9371,-1.2149 1.04845,-0.99908 0.5858,1.13558 -0.38287,1.76653 -0.0323,3.08288 1.06337,3.99215 1.45558,1.20804 1.56344,1.08369 0.98506,-1.13556 -0.62404,-2.39439 -0.60508,-2.4061 0.4836,-0.29815 0.88026,1.70445 2.38759,2.34845 6.75527,2.88618 3.09217,0.38072 6.52215,1.08232 7.62216,1.55917 1.84266,0.79875 -10.06307,0.54598 -30.50002,-0.64755 -19.62938,-1.14641 -76.62027,-1.74472 -160.49999,-1.68505 -72.36932,0.0516 -96.6943,0.39577 -114.00002,1.6135 -24.154363,1.69963 -27.186147,2.26645 -30.652107,5.73067 l -2.34792,2.34669 -0.297956,37.0012 c -0.296931,36.87437 -0.290553,37.00717 1.860783,38.75118 1.229438,0.99664 3.832988,1.75 6.047955,1.75 2.139075,0 3.889222,0.4019 3.889222,0.89315 0,2.21328 15.417203,3.25034 61.999993,4.17058 90.82367,1.79419 214.68978,2.18132 239.45894,0.74843 z m 8.41606,-126.31217 c -0.52627,-6.31562 -0.37635,-8.27317 0.78107,-10.19783 0.72694,-1.20884 0.93103,-2.43933 0.45354,-2.73444 -1.52643,-0.94338 -2.03182,-4.47512 -0.55956,-3.91014 0.72802,0.27921 1.09641,1.10018 0.81864,1.82403 -0.2778,0.72386 -0.002,1.62666 0.61169,2.00625 0.81584,0.50423 0.80124,1.07037 -0.0542,2.10115 -0.64406,0.77605 -0.77839,1.41787 -0.29855,1.42628 0.47982,0.008 0.1973,0.49269 -0.62756,1.07615 -1.12881,0.79829 -1.19069,1.18633 -0.25001,1.56802 0.68752,0.27892 1.24999,1.10721 1.24999,1.84053 0,0.73335 -0.56247,1.53958 -1.24999,1.79166 -1.00001,0.36666 -1.00001,0.72335 0,1.78334 1.50531,1.59565 1.61892,2.92501 0.25001,2.92501 -0.55,0 -1.05624,-0.67501 -1.12501,-1.50001 z m 0.15563,-45 c 0,-0.55001 0.43619,-1.67499 0.96936,-2.49998 0.53314,-0.82503 0.96936,-1.05002 0.96936,-0.50001 0,0.54998 -0.43622,1.67499 -0.96936,2.49999 -0.53317,0.825 -0.96936,1.05 -0.96936,0.5 z m -305.146648,79.5405 c 1.988813,-0.5277 5.216528,-1.2068 7.172698,-1.50903 3.31101,-0.51159 3.53649,-0.77343 3.26432,-3.79051 -0.16082,-1.78251 -0.27924,-5.71595 -0.26317,-8.74094 0.0427,-8.05346 0.0559,-7.54943 -0.52255,-20.00002 -0.29386,-6.325 -0.65116,-20.725 -0.79402,-32 l -0.25974,-20.49998 -4.83604,-0.3087 c -2.659823,-0.1698 -4.59192,0.0865 -4.293563,0.56906 0.298358,0.48277 -0.73047,0.69091 -2.286292,0.46255 -1.555823,-0.22818 -3.130433,0.0728 -3.499125,0.66949 -0.43335,0.70118 -0.0333,0.85325 1.131577,0.43013 1.375418,-0.49964 1.271895,-0.20097 -0.437355,1.26144 l -2.23929,1.916 0.9651,37 c 0.530805,20.35001 0.975983,38.91251 0.989288,41.25002 0.0261,4.60128 0.330172,4.7706 5.90817,3.29049 z m 302.116038,-7.73478 c 0,-0.1681 -0.45,-0.30573 -1.00001,-0.30573 -0.55,0 -1,0.72315 -1,1.607 0,1.0415 -0.54612,1.39742 -1.55194,1.01146 -0.88991,-0.34149 -1.29133,-0.17377 -0.94099,0.39302 0.33602,0.54368 0.18255,0.98852 -0.34107,0.98852 -0.52361,0 -1.22198,-0.7035 -1.55196,-1.56336 -0.32996,-0.85986 -1.02201,-1.30252 -1.53789,-0.98371 -0.51587,0.31884 -1.22513,0.11509 -1.57614,-0.45292 -0.35102,-0.56795 -1.12663,-0.73074 -1.72361,-0.36179 -0.65324,0.40371 -0.7973,0.20467 -0.36181,-0.5 0.39798,-0.64394 1.11144,-0.93115 1.58541,-0.63822 0.47399,0.29297 1.12706,0.10346 1.45128,-0.42114 0.34101,-0.5518 -0.50572,-0.7552 -2.00899,-0.4826 -2.28476,0.41431 -2.51575,0.21061 -1.91324,-1.68775 0.50561,-1.59307 0.35452,-1.95457 -0.57643,-1.37922 -0.78392,0.48449 -1.01146,0.37493 -0.60089,-0.28936 0.3634,-0.588 0.32043,-1.25878 -0.0955,-1.4906 -0.41596,-0.23188 -0.19362,-0.2844 0.49376,-0.11679 0.68749,0.16753 1.25689,-0.24349 1.2653,-0.91389 0.0113,-0.77071 0.37163,-0.66727 0.9847,0.28148 0.64624,1.00001 0.97447,1.08332 0.98467,0.25002 0.0283,-2.29218 -0.17773,-2.75196 -1.11416,-2.49015 -0.51122,0.14286 -0.23953,-0.79302 0.6035,-2.07984 0.84314,-1.28682 1.19392,-2.71337 0.7795,-3.17015 -0.41443,-0.45678 -0.11452,-0.45953 0.66642,-0.006 1.01571,0.58969 1.26,0.40759 0.85814,-0.63966 -0.39408,-1.02694 0.13294,-1.46404 1.76547,-1.46404 1.28001,0 2.10024,0.36733 1.82277,0.81629 -0.27752,0.44898 -0.83334,0.61307 -1.23526,0.3647 -1.19132,-0.73629 -3.01666,2.98604 -2.1511,4.38659 0.43804,0.70875 1.40924,0.97262 2.15825,0.58637 0.74899,-0.38624 0.46179,0.038 -0.6382,0.94246 -1.10001,0.90459 -1.8875,2.06298 -1.75,2.57415 0.13748,0.5112 -0.22648,0.92942 -0.80903,0.92942 -0.58247,0 -0.78015,0.45122 -0.43931,1.0027 0.40302,0.65211 1.38523,0.57875 2.80902,-0.20976 1.20412,-0.66688 2.68749,-1.11314 3.29635,-0.99171 0.60888,0.12133 1.11191,-1.02163 1.11784,-2.54018 0.006,-1.51858 0.33435,-3.88601 0.72973,-5.26101 0.58464,-2.03318 0.49835,-2.2199 -0.4622,-1.00001 -0.98473,1.25065 -1.06177,1.16753 -0.46343,-0.5 1.02874,-2.86697 1.24305,-14.52286 0.27808,-15.1193 -0.4468,-0.27637 -0.35992,-1.34758 0.19304,-2.38081 0.67387,-1.25915 0.67387,-2.08352 0,-2.50002 -0.67388,-0.41646 -0.67388,-1.24084 0,-2.49998 0.67387,-1.25916 0.67387,-2.08353 0,-2.50002 -0.67388,-0.41647 -0.67388,-1.24084 0,-2.49999 0.67387,-1.25915 0.67387,-2.08352 0,-2.50002 -0.67388,-0.41646 -0.67388,-1.24083 0,-2.49998 0.67699,-1.26496 0.67255,-2.08435 -0.0142,-2.50841 -0.56046,-0.34639 -0.72459,-1.10619 -0.36473,-1.68842 0.57467,-0.92985 0.86156,-15.65034 0.35674,-18.30317 -0.1046,-0.55001 -0.11849,-2.14577 -0.0303,-3.54617 0.0913,-1.45185 -0.71269,-3.33587 -1.87044,-4.38364 -1.11674,-1.01061 -1.78257,-2.23849 -1.47966,-2.72863 0.30291,-0.49011 0.17971,-0.82667 -0.27354,-0.74792 -0.45341,0.0788 -1.04936,0.0502 -1.32435,-0.0635 -0.27496,-0.11367 -4.99311,-0.43163 -10.48473,-0.70653 l -9.9847,-0.49981 1.9847,2.26 c 1.13089,1.28773 1.33944,1.87549 0.48473,1.36622 -2.23036,-1.32894 -3.91067,-1.40352 -4.65055,-0.20636 -0.38976,0.63065 -0.18454,0.77247 0.50309,0.34755 0.64962,-0.40149 1.42504,-0.0315 1.7593,0.83974 0.32876,0.85671 0.96106,1.33307 1.40516,1.05863 1.11373,-0.68834 0.65044,1.53039 -0.91485,4.38117 -0.71592,1.30388 -0.83787,2.08403 -0.27099,1.7337 0.56687,-0.35037 1.32024,-0.16839 1.67411,0.40407 0.35388,0.57263 0.0686,0.91746 -0.63419,0.76635 -0.70272,-0.15108 -1.29867,0.62521 -1.32435,1.72519 -0.0255,1.10002 -0.53419,1.91251 -1.13004,1.80559 -0.59583,-0.10687 -1.08334,0.43574 -1.08334,1.206 0,0.77026 0.35243,1.18264 0.78316,0.91644 0.43075,-0.26618 1.25697,0.40127 1.83606,1.48328 0.75815,1.41665 0.72895,2.16752 -0.10432,2.68251 -0.64826,0.40065 -0.88869,0.28064 -0.54669,-0.27269 0.33579,-0.54332 -0.0465,-0.98784 -0.84963,-0.98784 -1.24282,0 -1.25606,0.23556 -0.0887,1.58335 1.71828,1.98388 1.836,5.49337 0.13692,4.08333 -0.79977,-0.66376 -1.16665,-0.50151 -1.16665,0.51588 0,0.81626 0.59998,1.4841 1.33333,1.4841 1.63817,0 1.75008,1.6244 0.17886,2.59549 -0.77666,0.48002 -0.88781,0.25398 -0.33964,-0.69097 0.44824,-0.77264 0.42976,-1.05407 -0.0411,-0.62558 -1.42016,1.29243 -1.37993,3.72107 0.0615,3.72107 0.74217,0 1.28392,0.86882 1.20393,1.93073 -0.0799,1.06189 -0.50936,1.70581 -0.95417,1.4309 -0.44478,-0.27496 -0.50423,-1.03124 -0.13209,-1.68072 0.37215,-0.6495 0.29148,-0.83038 -0.17944,-0.40198 -1.42016,1.29243 -1.37993,3.72107 0.0615,3.72107 0.74217,0 1.28276,0.88415 1.20138,1.9648 -0.14088,1.8698 -0.24577,1.88187 -2.17063,0.25002 -1.95642,-1.65866 -1.97408,-1.64934 -0.53986,0.28522 0.81552,1.09999 1.93278,2.3306 2.48278,2.73467 0.91814,0.67456 -0.76836,1.20481 -2.77948,0.87393 -0.42874,-0.0706 -0.0394,1.00116 0.86499,2.38155 1.52904,2.33362 1.26717,3.00396 -1.00477,2.57184 -0.50561,-0.0961 -0.29546,0.63803 0.46701,1.63157 2.17741,2.83726 2.3119,2.92051 1.62303,1.00449 -0.38922,-1.08253 -0.25001,-1.55606 0.34864,-1.18605 0.54807,0.33871 0.79905,1.70476 0.55771,3.03565 -0.24123,1.33089 -0.0669,2.64975 0.38792,2.93074 0.45471,0.28091 0.48453,2.02819 0.0663,3.88262 -0.41822,1.85442 -0.36581,4.07681 0.11651,4.93866 0.52321,0.93498 0.48619,1.80845 -0.0919,2.1657 -0.53277,0.32927 -0.70293,1.29126 -0.37811,2.13774 0.32485,0.84648 0.64593,2.96957 0.71354,4.71796 0.0677,1.74841 0.52673,3.81095 1.02024,4.58342 0.61838,0.96792 0.53841,1.1827 -0.2571,0.691 -0.63496,-0.39248 -1.15446,-0.23697 -1.15446,0.34546 0,0.58246 0.47655,1.05903 1.05899,1.05903 0.58246,0 0.80014,0.4189 0.4837,0.93089 -0.31643,0.51199 -0.13776,1.20141 0.39731,1.53202 0.53495,0.3306 0.68916,1.33982 0.3427,2.24271 -0.47789,1.24532 -0.21627,1.48289 1.08321,0.98419 0.94224,-0.36156 2.6091,-0.10233 3.70412,0.5764 1.63091,1.01063 2.16354,0.9625 2.94517,-0.26618 0.63411,-0.99686 0.9593,-1.08073 0.96948,-0.25002 0.008,0.68749 0.90118,1.25 1.98393,1.25 1.33903,0 1.78452,-0.47971 1.393,-1.50001 -0.3166,-0.82499 -0.0774,-1.49998 0.53138,-1.49998 0.60886,0 0.99449,0.54808 0.85701,1.21799 -0.14343,0.69829 1.24344,1.45199 3.24997,1.76632 3.02426,0.47379 3.80585,0.14599 5.75003,-2.41228 1.23749,-1.62833 2.25,-3.09818 2.25,-3.26633 z m -20.00001,1.63527 c 0,-0.58246 0.45,-0.78092 1,-0.44098 0.55001,0.33993 1.00001,0.81649 1.00001,1.05902 0,0.24264 -0.45,0.44099 -1.00001,0.44099 -0.55,0 -1,-0.47657 -1,-1.05903 z m -0.66668,-6.441 c 0,-0.82499 0.2211,-1.27887 0.49133,-1.00867 0.27014,0.27013 1.16753,-0.0672 1.994,-0.74999 1.32611,-1.09548 1.33804,-0.97697 0.10148,1.00868 -1.62329,2.60662 -2.58678,2.88598 -2.58678,0.74998 z m 0.66668,-5 c 1.29175,-1.375 2.57363,-2.49998 2.84862,-2.49998 0.27496,0 -0.55687,1.12498 -1.84862,2.49998 -1.29174,1.37501 -2.57363,2.50002 -2.84865,2.50002 -0.27495,0 0.5569,-1.12501 1.84865,-2.50002 z m 0.56429,-5.7931 c 0.37553,-0.98624 0.9347,-1.54123 1.24257,-1.23336 0.3079,0.3079 6.5e-4,1.11481 -0.68278,1.79314 -0.98762,0.98028 -1.10248,0.86542 -0.55979,-0.55978 z m 9.89408,-3.77428 c -0.49467,-0.80036 -0.35709,-0.98804 0.38712,-0.52809 1.52011,0.93946 1.48683,-0.67218 -0.0454,-2.2045 -0.66002,-0.66003 -0.7725,-1.20691 -0.25001,-1.21533 0.52251,-0.008 0.30667,-0.42242 -0.47963,-0.92001 -0.7863,-0.49763 -1.53428,-1.61785 -1.66221,-2.48948 -0.12784,-0.87159 0.18511,-1.32649 0.69593,-1.01086 0.51069,0.31564 0.69878,0.94561 0.41798,1.39998 -0.28092,0.45436 0.2262,1.10886 1.1268,1.45443 0.90056,0.3456 1.35187,0.91383 1.00292,1.26277 -0.34894,0.34898 -0.11735,1.25745 0.51449,2.01887 0.79878,0.96244 0.83055,1.7028 0.10431,2.42912 -0.72632,0.72634 -1.27862,0.66634 -1.81213,-0.19701 z m -10.45837,-0.81456 c 0,-0.55001 0.45,-1.27811 1,-1.61805 0.55001,-0.33993 1.00001,-0.16809 1.00001,0.38198 0,0.55 -0.45,1.27811 -1.00001,1.61804 -0.55,0.3399 -1,0.16809 -1,-0.38197 z m 6.61309,-3.30103 c 0.28882,-0.46729 0.94402,-0.59074 1.45601,-0.27439 1.30839,0.80863 1.16107,1.12396 -0.52511,1.12396 -0.80082,0 -1.2197,-0.38234 -0.9309,-0.84966 z m 5.79192,-2.06703 -1.905,-2.25 2.25,1.905 c 2.11442,1.79022 2.70525,2.595 1.905,2.595 -0.18993,0 -1.20229,-1.01247 -2.25,-2.25 z m 1.92948,-1.48218 c 0.35391,-0.57265 -0.0255,-1.59726 -0.84549,-2.27695 -1.19554,-0.99218 -1.49202,-0.96526 -1.50432,0.13663 -0.0113,1.13425 -0.16214,1.14069 -0.86178,0.0368 -0.4656,-0.73449 -1.218,-1.28461 -1.67202,-1.2225 -0.45405,0.0621 -0.92438,-0.56052 -1.04517,-1.38359 -0.12075,-0.82307 0.15676,-1.39793 0.61674,-1.27749 0.46001,0.12047 1.47447,-0.63669 2.25431,-1.68251 1.1033,-1.47954 1.59706,-1.61166 2.22511,-0.59547 0.51049,0.82596 0.4142,1.06314 -0.26192,0.64525 -2.23132,-1.37902 -1.88362,1.96643 0.46684,4.49204 1.80295,1.93728 2.128,2.84377 1.22074,3.40449 -0.74736,0.46188 -0.98196,0.35232 -0.59301,-0.27694 z m -6.2606,-8.67877 c -0.8005,-0.96458 -0.83925,-1.616 -0.12245,-2.05903 0.5767,-0.3564 1.083,-0.50899 1.12507,-0.33903 0.44889,1.81298 0.68859,3.80903 0.45745,3.80903 -0.15902,0 -0.81601,-0.63493 -1.46007,-1.41097 z m 3.00506,-3.28003 c -0.11423,-1.72085 1.65561,-2.54752 2.50646,-1.17079 0.43129,0.69783 0.29171,0.90388 -0.34549,0.51006 -0.58802,-0.36339 -1.29702,-0.0955 -1.57555,0.5955 -0.36249,0.89913 -0.52892,0.9177 -0.58542,0.0652 z m -2.66306,-1.95043 c 0.53558,-1.39569 0.39345,-1.44522 -0.94941,-0.33075 -1.31482,1.0912 -1.52801,1.07362 -1.27289,-0.10488 0.16837,-0.77862 0.98141,-1.98088 1.8064,-2.67174 1.28769,-1.07827 1.23299,-1.1624 -0.38644,-0.59425 -1.31258,0.46048 -1.75241,0.25965 -1.44578,-0.66017 1.00357,-3.01079 4.94075,-1.70957 5.4738,1.80908 0.15705,1.0362 -0.10544,1.05409 -1.27102,0.0867 -1.2424,-1.03113 -1.39442,-0.80847 -0.98592,1.44419 0.26986,1.48771 0.0226,2.66323 -0.55783,2.66323 -0.57243,0 -0.75733,-0.73865 -0.41091,-1.64142 z m 6.45656,-5.10857 c -1.24387,-1.58607 -1.20852,-1.62145 0.37755,-0.37758 1.66575,1.30638 2.19549,2.12757 1.37244,2.12757 -0.20778,0 -0.99516,-0.78749 -1.74999,-1.74999 z m -6.38252,-4.26631 c -0.34549,-0.55897 -1.01593,-0.77664 -1.48994,-0.48371 -0.47399,0.29296 -1.18741,0.006 -1.5854,-0.63819 -0.45192,-0.73123 -0.29015,-0.90292 0.4309,-0.45729 0.64676,0.39972 1.16124,0.13777 1.16983,-0.5955 0.0113,-1.05967 0.17632,-1.05497 0.86083,0.0255 0.69145,1.09077 0.94776,1.06744 1.40655,-0.12813 0.30855,-0.80407 0.0337,-2.05761 -0.61084,-2.7856 -0.97112,-1.0969 -0.87208,-1.09678 0.57813,5.9e-4 1.41018,1.06708 1.75002,1.07388 1.75002,0.0352 0,-0.709 0.26107,-1.02815 0.57988,-0.7092 0.31896,0.31896 -0.13266,1.66737 -1.00349,2.99648 -0.87088,1.32913 -1.28185,2.71817 -0.91324,3.08679 0.36859,0.36859 0.39674,0.67016 0.0623,0.67016 -0.33421,0 -0.8903,-0.45734 -1.23576,-1.0163 z m -2.54826,-7.8747 c 0.54338,-1.01532 0.8913,-2.01771 0.77315,-2.22753 -0.1182,-0.20976 -0.0142,-0.25596 0.23074,-0.10261 1.10248,0.69015 0.72026,3.13531 -0.56738,3.62942 -1.11041,0.42611 -1.20668,0.13946 -0.43657,-1.29937 z m 3.93077,-0.85899 c -1.24386,-1.58607 -1.20849,-1.62144 0.37755,-0.37758 1.66575,1.30638 2.19549,2.12757 1.37245,2.12757 -0.20778,0 -0.99516,-0.78749 -1.75,-1.74999 z m 1.99999,-3.00002 c -1.24387,-1.58604 -1.2085,-1.62142 0.37757,-0.37754 1.66575,1.30637 2.19546,2.12757 1.37243,2.12757 -0.20778,0 -0.99513,-0.78752 -1.75,-1.75003 z m -4.99742,-0.74999 c -0.0688,-0.27496 -0.18822,-0.8375 -0.26533,-1.25 -0.0771,-0.41249 -0.53693,-1.425 -1.02169,-2.25 -0.71436,-1.21572 -0.62807,-1.26501 0.45519,-0.26022 1.26312,1.17174 2.2551,4.26014 1.36834,4.26014 -0.22649,0 -0.46777,-0.22507 -0.53651,-0.5 z m -14.87501,-3.04421 c 0,-0.11594 0.59999,-0.70886 1.33334,-1.31746 0.99634,-0.82692 1.33333,-0.77363 1.33333,0.2109 0,0.72462 -0.60001,1.31746 -1.33333,1.31746 -0.73335,0 -1.33334,-0.095 -1.33334,-0.2109 z m 14.56994,-2.34261 c -0.24095,-0.38976 -0.0433,-1.34708 0.43883,-2.1274 0.51929,-0.84019 0.4726,-1.90579 -0.11452,-2.6132 -0.67328,-0.81125 -0.57472,-1.43496 0.3072,-1.94389 0.71421,-0.41213 0.96006,-0.37622 0.54637,0.0799 -0.41371,0.45604 -0.11168,1.54068 0.67124,2.41033 2.14816,2.38617 2.28584,4.28099 0.33492,4.60924 -0.96032,0.16158 -1.94312,-0.0255 -2.18404,-0.4149 z m 2.72773,-1.77984 c -0.28149,-0.73332 -0.64035,-1.33334 -0.79767,-1.33334 -0.15732,0 -0.51625,0.60002 -0.79767,1.33334 -0.28149,0.73332 0.0774,1.33333 0.79767,1.33333 0.72014,0 1.07909,-0.60001 0.79767,-1.33333 z m 3.20232,0.66665 c -0.99547,-1.09999 -1.46013,-1.99999 -1.03251,-1.99999 0.42757,0 0.15987,-0.78749 -0.59502,-1.75 -1.24799,-1.59128 -1.21156,-1.62371 0.40172,-0.3575 0.97577,0.76589 1.53731,1.62935 1.24781,1.91886 -0.28951,0.28947 0.2194,1.35037 1.13082,2.35749 0.91143,1.00712 1.43218,1.83115 1.15716,1.83115 -0.27496,0 -1.31448,-0.9 -2.30998,-2.00001 z m -0.62756,-5.75 c -1.24387,-1.58604 -1.2085,-1.62141 0.37757,-0.37754 0.96251,0.75484 1.75,1.54233 1.75,1.75 0,0.82303 -0.8212,0.29329 -2.12757,-1.37246 z m -4.59428,-2.49999 c -1.46143,-1.88962 -2.7106,-4.35129 -1.78047,-3.50869 0.45006,0.40774 1.49587,0.18283 2.32404,-0.5 1.30227,-1.07357 1.35479,-0.95797 0.3888,0.85549 -0.82896,1.5562 -0.81958,2.39414 0.0363,3.25001 0.63425,0.63425 0.89328,1.15319 0.57563,1.15319 -0.31765,0 -1.01259,-0.56251 -1.54432,-1.25 z m 5.731,-1.23899 c -0.67969,-0.81892 -1.62961,-1.24557 -2.11098,-0.94804 -0.48138,0.29749 -0.59982,-0.17688 -0.26306,-1.05415 0.33664,-0.8773 0.67379,-1.46316 0.74919,-1.30196 0.0754,0.1613 0.98958,1.30564 2.03145,2.54313 1.04191,1.23753 1.6547,2.25 1.3618,2.25 -0.29291,0 -1.08865,-0.67005 -1.76828,-1.48898 z M 115.2086,372.66266 c 1.93844,-1.34906 2.04857,-1.65396 0.613,-1.69699 -0.9625,-0.0289 -1.75,0.42412 -1.75,1.00658 0,0.58247 -0.54034,0.72507 -1.20075,0.31692 -0.74614,-0.46114 -0.81085,-0.87208 -0.17093,-1.08539 0.62359,-0.20778 0.87663,-3.00705 0.64147,-7.09591 -0.39351,-6.84227 0.95437,-12.79216 2.65923,-11.73849 0.51302,0.31705 1.25575,0.0539 1.6505,-0.58482 0.49801,-0.8058 -0.0651,-1.01165 -1.83961,-0.67244 -2.0198,0.38611 -2.43879,0.15393 -1.99339,-1.10502 0.31017,-0.87665 0.96287,-2.11261 1.45044,-2.74663 0.55314,-0.71927 0.40076,-1.32821 -0.40523,-1.61935 -1.02739,-0.37111 -1.04331,-0.88801 -0.0778,-2.52592 0.95192,-1.61485 0.95192,-2.15445 0,-2.49999 -0.91193,-0.33103 -0.93712,-0.91268 -0.10129,-2.33785 0.85572,-1.45905 0.78407,-2.20411 -0.31024,-3.22637 -1.22499,-1.14429 -1.17111,-1.52007 0.38734,-2.70167 1.69502,-1.28512 1.69886,-1.37452 0.0602,-1.40428 -2.03828,-0.0371 -1.90805,-1.98856 0.24999,-3.74638 0.82499,-0.67201 1.00973,-1.23614 0.41051,-1.25363 -0.59921,-0.017 -1.66655,-1.26929 -2.37187,-2.7818 -1.1946,-2.56176 -1.33306,-2.61309 -2.02265,-0.74999 -0.40716,1.09998 -0.5923,4.13747 -0.41146,6.75 0.19335,2.793 -0.0938,4.74998 -0.69688,4.74998 -0.57746,0 -0.67861,0.54627 -0.23148,1.25 0.99229,1.56174 1.24371,23.75002 0.26912,23.75002 -0.68773,0 -1.26267,-15.56646 -1.07109,-29.00001 0.0918,-6.4357 1.91288,-14.00001 3.3705,-14.00001 0.41541,0 0.7553,0.91412 0.7553,2.0314 0,1.11724 0.67243,2.2894 1.49426,2.60478 0.82184,0.31536 1.24529,0.97625 0.94098,1.4686 -0.3043,0.49238 0.14828,0.89521 1.00574,0.89521 0.85746,0 1.55902,-0.67498 1.55902,-1.49998 0,-0.825 -0.3375,-1.44672 -0.75,-1.38158 -2.00983,0.31734 -2.82142,-0.29203 -2.82142,-2.11841 0,-2.29051 0.6587,-2.51275 2.37142,-0.80003 0.93333,0.93334 1.2,0.8667 1.2,-0.29999 0,-0.82499 -0.54,-2.04001 -1.2,-2.7 -0.93333,-0.93333 -0.93333,-1.19998 0,-1.19998 0.66,0 1.2,-0.76102 1.2,-1.69116 0,-1.47528 -0.18014,-1.44479 -1.41132,0.23896 -0.77623,1.06155 -1.19968,2.27257 -0.94099,2.69113 0.25869,0.41857 -0.0396,0.76102 -0.66281,0.76102 -0.70805,0 -1.07201,-1.78197 -0.97015,-4.74999 0.0897,-2.61249 0.12302,-7.16499 0.0741,-10.11665 -0.0786,-4.74854 -0.30645,-5.30971 -1.97816,-4.87255 -1.03912,0.27183 -2.50162,0.10601 -3.25,-0.36806 -1.11612,-0.70716 -1.09108,-0.88557 0.13929,-0.99258 0.825,-0.0717 2.2875,-0.0505 3.25,0.0476 1.26696,0.12897 1.75,-0.54567 1.75,-2.44386 0,-1.44202 -0.43035,-2.35591 -0.95633,-2.03083 -0.52598,0.32508 -0.70283,1.25164 -0.393,2.05903 0.77503,2.01969 -0.63568,1.84617 -2.29288,-0.28205 -1.29781,-1.66669 -1.33368,-1.66669 -0.75325,0 0.69713,2.00177 -2.01857,2.50713 -3.20003,0.59547 -0.44208,-0.71529 -0.27431,-0.88304 0.44098,-0.44098 0.63507,0.39249 1.1546,0.23697 1.1546,-0.34543 0,-0.58247 -1.14083,-1.05902 -2.53518,-1.05902 -2.19885,0 -2.39749,0.25738 -1.4973,1.93929 0.72015,1.34561 0.71605,2.13823 -0.0134,2.58903 -0.65194,0.40294 -0.70251,1.09074 -0.13314,1.81071 0.50497,0.63853 0.97072,8.81096 1.03498,18.16095 0.0923,13.42477 0.93291,59.20124 1.10596,60.22502 0.14933,0.8835 7.27002,-0.64976 9.17504,-1.97558 z m -5.49406,-0.49944 c -0.7535,-2.681 -0.47226,-12.25001 0.36002,-12.25001 0.40496,0 0.71189,3.15 0.68207,7.00002 -0.0566,7.31038 -0.22485,8.15783 -1.04209,5.24999 z m -1.15918,-56.30113 c -0.34019,-1.0719 -0.97582,-1.94888 -1.41248,-1.94888 -0.43667,0 -0.57888,-1.12498 -0.31603,-2.49999 0.26285,-1.375 0.8273,-2.49998 1.25434,-2.49998 1.26169,0 1.89907,2.63077 1.2486,5.15353 -0.53223,2.06415 -0.41084,2.18727 1.00894,1.02333 0.8877,-0.72771 1.36758,-1.96521 1.06644,-2.74998 -0.30115,-0.7848 -0.0494,-1.4269 0.55944,-1.4269 1.7639,0 1.28361,2.8234 -0.84186,4.94887 -1.93179,1.93178 -1.95426,1.93178 -2.56739,0 z m 2.1881,-6.01146 c 0.64452,-0.64962 0.93387,-1.80128 0.64301,-2.55927 -0.29087,-0.75798 -0.0307,-1.37814 0.57814,-1.37814 1.79984,0 1.26155,3.72719 -0.64301,4.45227 -1.34191,0.51085 -1.47672,0.39081 -0.57814,-0.51486 z m -2.30188,-3.08463 c 1.52038,-0.88334 1.61386,-1.25936 0.49999,-2.0113 -1.03104,-0.69605 -0.87517,-0.85272 0.63003,-0.63317 1.43089,0.20862 1.91639,-0.20637 1.70616,-1.45832 -0.16161,-0.96247 0.17589,-1.75 0.75,-1.75 1.72632,0 1.17835,2.86549 -0.95616,5.00001 -1.1,1.10001 -2.56251,1.98632 -3.25,1.96959 -0.6875,-0.017 -0.40851,-0.5193 0.61998,-1.11681 z m -0.67007,-4.49836 c 0.83561,-0.33962 0.92312,-1.21573 0.28821,-2.88564 -0.87908,-2.3122 0.34649,-4.46749 1.74507,-3.0689 0.33008,0.33006 0.0201,0.60012 -0.68898,0.60012 -1.02825,0 -1.03904,0.30129 -0.0534,1.48898 1.47845,1.78144 3.15531,1.05551 2.35848,-1.02101 -0.30983,-0.80736 -0.0652,-1.46798 0.54367,-1.46798 0.60885,0 1.10699,0.67502 1.10699,1.50001 0,1.85675 -3.55548,5.52807 -5.25,5.42106 -0.937,-0.0593 -0.94953,-0.20097 -0.0501,-0.56664 z m 289.62956,71.06172 c -0.33429,-0.87111 -0.8879,-1.2086 -1.23026,-0.74998 -0.34237,0.45862 -1.02972,1.17136 -1.52751,1.58386 -0.49776,0.4125 0.0558,0.74999 1.23027,0.74999 1.53742,0 1.96512,-0.44345 1.5275,-1.58387 z M 123.6638,372.29291 c -0.25152,-0.65549 0.33732,-1.91092 1.30857,-2.78989 1.4853,-1.34416 1.7659,-1.36607 1.7659,-0.13804 0,0.80307 -0.34391,1.24761 -0.76424,0.98784 -0.42033,-0.25965 -1.04689,-0.0142 -1.39235,0.54397 -0.34546,0.55899 -0.12501,1.01633 0.48992,1.01633 0.61492,0 0.87643,0.3909 0.58114,0.86871 -0.6853,1.10883 10.06018,0.83712 11.12387,-0.2812 0.43724,-0.45975 -0.28558,-0.50306 -1.60628,-0.0964 -1.9691,0.60651 -2.28811,0.44473 -1.77251,-0.89892 0.54544,-1.42137 0.33356,-1.4762 -1.59873,-0.41349 -2.83819,1.56093 -4.90463,1.91687 -4.16315,0.71714 0.31562,-0.51069 0.88523,-0.7361 1.26579,-0.50089 0.80575,0.49796 3.81442,-1.52679 3.98339,-2.68072 0.18751,-1.28064 3.18648,-3.94917 3.18648,-2.83541 0,0.56194 -0.7875,1.46931 -1.75,2.01637 -1.55264,0.88248 -1.50406,0.97747 0.43072,0.84211 1.1994,-0.0839 1.97956,-0.47803 1.73369,-0.87585 -0.24588,-0.39783 -0.009,-0.99382 0.5256,-1.32445 0.53496,-0.33061 0.69082,-1.33552 0.34638,-2.23314 -0.46243,-1.20506 -0.25478,-1.41993 0.79367,-0.82128 1.06281,0.60684 1.14442,0.51091 0.32449,-0.3814 -0.6025,-0.65569 -0.92432,-2.90359 -0.71514,-4.99533 0.25716,-2.57164 -0.1167,-4.21565 -1.15455,-5.07699 -0.84417,-0.70061 -1.52797,-1.7812 -1.51955,-2.40137 0.009,-0.64771 0.38861,-0.53812 0.89252,0.25739 0.70336,1.11061 1.0972,0.97401 1.98739,-0.6893 0.82305,-1.53788 0.81089,-2.25939 -0.047,-2.78961 -0.64827,-0.40064 -0.88871,-0.28063 -0.5467,0.27269 0.33579,0.54333 -0.0465,0.98785 -0.84964,0.98785 -1.22677,0 -1.20408,-0.28289 0.14196,-1.77032 1.72584,-1.90703 1.03101,-4.37363 -0.91291,-3.24077 -0.64949,0.37851 -0.34932,-0.26078 0.66706,-1.42066 1.74337,-1.98953 1.49013,-4.87091 -0.32927,-3.74647 -0.46372,0.28658 -0.74192,-0.16837 -0.61823,-1.01117 0.23825,-1.62326 2.09954,-2.12026 2.09954,-0.56061 0,0.50417 0.40965,1.29166 0.91033,1.75 0.51818,0.47435 0.63603,0.35246 0.27357,-0.2829 -0.80289,-1.40766 2.8808,-4.89699 3.726,-3.52942 0.33466,0.54151 0.0418,1.58508 -0.65072,2.31908 -0.69255,0.734 -1.92644,2.23277 -2.74196,3.33062 -1.44105,1.93992 -1.4247,1.94679 0.58115,0.24378 3.22285,-2.73605 3.59848,-0.88426 0.63402,3.1256 -2.0849,2.8201 -2.20855,3.22294 -0.55604,1.81145 1.41036,-1.20466 2.34988,-1.45142 2.79346,-0.73369 0.36761,0.59479 1.19978,0.74784 1.84928,0.3401 0.64949,-0.40776 2.0809,-0.64749 3.1809,-0.53274 1.84458,0.19247 1.85647,0.14797 0.15304,-0.57206 -1.6774,-0.709 -1.70035,-0.90236 -0.24999,-2.10603 0.87833,-0.72893 1.59006,-1.83274 1.58165,-2.45291 -0.009,-0.69157 -0.33789,-0.61885 -0.84959,0.18823 -1.0269,1.6194 -6.1351,4.36016 -6.1351,3.2917 0,-0.42571 0.3375,-1.11152 0.74999,-1.52402 0.41251,-0.4125 0.80626,-1.16251 0.875,-1.66666 0.0687,-0.50417 0.18126,-1.19679 0.24999,-1.53912 0.0687,-0.34235 0.87859,-0.006 1.79965,0.75001 1.51305,1.23999 1.50782,1.116 -0.0543,-1.28497 -1.05678,-1.62425 -1.34297,-2.89596 -0.73611,-3.27104 0.54608,-0.33749 1.45685,0.1834 2.02393,1.15742 0.56708,0.97407 1.04474,1.23508 1.06146,0.58005 0.0167,-0.65506 -0.44144,-1.4826 -1.01815,-1.83903 -0.70557,-0.43608 -0.62379,-1.19138 0.24999,-2.30902 1.16174,-1.48598 1.11418,-1.51637 -0.45144,-0.28854 -0.9625,0.75484 -1.75,1.03726 -1.75,0.62756 0,-0.40969 -0.675,-0.18481 -1.5,0.5 -2.15926,1.79204 -1.85433,-0.36938 0.33114,-2.3472 1.00713,-0.91145 2.20428,-1.31867 2.66034,-0.90498 0.45603,0.41371 0.52467,0.22081 0.15253,-0.42872 -0.37215,-0.6495 -0.21929,-1.46355 0.33968,-1.80901 0.55897,-0.34546 1.01631,-1.13757 1.01631,-1.76023 0,-0.62266 -0.61275,-0.29412 -1.36167,0.73006 -1.51847,2.07663 -4.97116,3.01859 -4.3616,1.1899 0.21447,-0.64341 1.02488,-1.16983 1.80092,-1.16983 0.98034,0 1.43305,-1.28806 1.48327,-4.22022 0.0617,-3.60408 -0.14239,-4.04209 -1.39801,-3.00002 -0.80867,0.67113 -1.73797,1.10582 -2.06513,0.96599 -0.32716,-0.13974 -0.62411,1.45488 -0.65989,3.54385 -0.079,4.6114 -1.00443,6.31397 -3.01309,5.54318 -1.32868,-0.50987 -1.31479,-0.79685 0.115,-2.37674 1.50823,-1.66657 1.48622,-1.87174 -0.30363,-2.82963 -1.26895,-0.67912 -2.26759,-0.69497 -2.9163,-0.0462 -0.6487,0.64871 -0.98653,0.48047 -0.98653,-0.49124 0,-0.81278 0.33,-1.39028 0.73334,-1.28333 0.40333,0.10686 0.77833,-0.14315 0.83333,-0.55556 0.27417,-2.05636 0.0164,-2.81642 -0.78669,-2.32002 -0.48768,0.30141 -1.50018,-0.20834 -2.25,-1.13295 -0.74982,-0.92452 -0.86095,-1.38019 -0.24696,-1.01256 0.61401,0.36759 1.96401,-0.29733 3,-1.47762 1.49655,-1.70495 1.55826,-2.02796 0.30033,-1.57175 -0.98919,0.35875 -1.58334,0.0199 -1.58334,-0.90349 0,-0.92959 0.66638,-1.30345 1.79657,-1.00789 0.9881,0.25852 2.28277,-0.11593 2.87701,-0.83205 1.17654,-1.41763 2.66298,-1.43005 4.99308,-0.0417 0.966,0.57561 0.84213,0.14315 -0.34795,-1.21509 -1.70199,-1.94231 -1.50804,-4.88198 0.25038,-3.7952 0.42033,0.25965 0.76424,-0.17575 0.76424,-0.96781 0,-1.08674 -0.3272,-1.16861 -1.33334,-0.33357 -1.43005,1.18683 -1.51938,1.05545 -1.62373,-2.38834 -0.0383,-1.26198 0.4626,-2.1359 1.1406,-1.99015 0.79113,0.17009 0.65252,-0.58915 -0.40117,-2.19727 -1.72136,-2.62713 -1.75167,-3.12857 -0.34771,-5.75187 0.55213,-1.03167 0.53074,-1.92007 -0.0549,-2.28203 -0.52747,-0.32598 -0.69315,-1.36582 -0.36817,-2.31069 0.485,-1.41021 0.32336,-1.37458 -0.90232,0.19899 -2.01036,2.58086 -5.48121,3.00218 -6.65558,0.80785 -0.73569,-1.37463 -1.93077,-1.67474 -5.52942,-1.38852 -2.52499,0.20069 -4.59089,0.82491 -4.59089,1.38688 0,0.58929 -0.6451,0.48636 -1.52417,-0.24321 -0.83829,-0.69571 -1.84282,-0.94629 -2.23228,-0.55682 -1.06398,1.06396 -1.03266,55.78702 0.0332,57.94756 0.6141,1.24486 0.57843,1.65784 -0.10663,1.23446 -1.1154,-0.68938 -0.94058,7.33916 0.19998,9.18465 0.35332,0.57166 0.12506,1.21183 -0.50724,1.42259 -1.37345,0.45782 0.59118,4.78763 2.17235,4.78763 1.49377,0 1.13825,1.71947 -0.48425,2.34207 -0.96852,0.37165 -1.26467,0.0754 -0.89301,-0.893 0.30583,-0.79699 0.0835,-1.44907 -0.49415,-1.44907 -0.60767,0 -0.9062,1.58018 -0.70844,3.74999 0.18797,2.06251 0.38742,4.44106 0.44322,5.2857 0.0558,0.84467 1.01259,1.53573 2.12621,1.53573 1.15619,0 1.82858,-0.51123 1.56744,-1.19174 z m -2.5922,-3.3797 c 0,-0.54997 0.47656,-0.99997 1.05902,-0.99997 0.58246,0 0.7809,0.45 0.44098,0.99997 -0.33992,0.55001 -0.81648,1.00001 -1.05902,1.00001 -0.24254,0 -0.44098,-0.45 -0.44098,-1.00001 z m 3.5,-3.99999 c 0.99549,-1.09998 2.03498,-1.99998 2.30998,-1.99998 0.27499,0 -0.31449,0.9 -1.30998,1.99998 -0.99549,1.10001 -2.03498,2.00001 -2.30998,2.00001 -0.27499,0 0.31449,-0.9 1.30998,-2.00001 z m 18.06429,-27.29313 c 0.37553,-0.9862 0.93469,-1.54122 1.24258,-1.23332 0.30789,0.30789 6.4e-4,1.11477 -0.68278,1.79313 -0.98762,0.98025 -1.10248,0.86539 -0.5598,-0.55981 z m -4.12905,-2.60209 c 0.78781,-1.27468 -1.99681,-2.14319 -3.15577,-0.98425 -0.61898,0.61898 -1.46824,0.32244 -2.37185,-0.82814 -1.24909,-1.59052 -1.23038,-1.6543 0.16617,-0.56616 1.20638,0.93991 1.84839,0.95159 2.75,0.0499 0.64692,-0.6469 1.17621,-0.79147 1.17621,-0.32123 0,0.47027 0.92158,0.0199 2.04796,-0.99839 3.64533,-3.29896 5.13816,-2.56717 2.31465,1.13465 -2.33772,3.06491 -4.32013,4.76708 -2.92737,2.51354 z m -3.43375,-4.90249 c -2.05839,-1.66677 -2.09224,-1.88207 -0.50328,-3.2008 0.93696,-0.7776 2.37203,-1.51194 3.18906,-1.63185 1.23038,-0.18056 1.20052,0.0969 -0.17393,1.61561 -1.54692,1.70935 -1.54407,1.89819 0.042,2.7858 1.0182,0.56982 1.29014,1.2064 0.6772,1.58522 -0.56334,0.34815 -2.01733,-0.17121 -3.23109,-1.15398 z m 0.66518,-1.6583 c 0,-0.80081 -0.38234,-1.21972 -0.84965,-0.9309 -0.4673,0.28883 -0.59075,0.94403 -0.27431,1.45602 0.80862,1.30838 1.12396,1.16104 1.12396,-0.52512 z m 6.69697,-5.544 c 0,-1.46665 0.51136,-2.66666 1.13636,-2.66666 0.625,0 1.13636,1.20001 1.13636,2.66666 0,1.46668 -0.51136,2.66669 -1.13636,2.66669 -0.625,0 -1.13636,-1.20001 -1.13636,-2.66669 z m -6.66366,-13.03741 c -1.83745,-2.146 -2.13304,-3.03095 -0.94998,-2.84415 2.09636,0.33098 2.33595,-0.33831 0.90365,-2.52427 -1.45545,-2.22129 -1.44509,-2.38457 0.13499,-2.12843 0.94125,0.15251 2.27385,-0.16979 2.96136,-0.7166 0.6875,-0.54671 1.31853,-0.60142 1.40231,-0.1216 0.22753,1.30329 0.59161,2.80857 0.81567,3.37243 0.48514,1.22089 0.64762,4.94895 0.19601,4.49734 -0.27592,-0.27581 -1.23572,0.1627 -2.13287,0.9745 -1.44834,1.31073 -1.8217,1.25364 -3.33115,-0.50925 z m 1.96645,-0.38946 c -0.64514,-1.68123 1.6241,-3.88913 2.89261,-2.81443 0.48126,0.40771 0.27227,-0.0462 -0.46445,-1.00868 -1.626,-2.12434 -3.52716,-2.31965 -2.74525,-0.28205 0.30982,0.8074 0.15262,1.72182 -0.34934,2.03204 -0.88793,0.54876 -0.28589,3.5 0.71398,3.5 0.27499,0 0.25362,-0.64211 -0.0476,-1.42688 z m -1.94419,-9.58455 c -1.91321,-2.23447 -2.1776,-3.11505 -0.82224,-2.73855 0.495,0.13747 0.945,-0.0876 1,-0.50001 0.28162,-2.11203 0.003,-2.8082 -0.9,-2.25 -0.55,0.3399 -1,-0.0836 -1,-0.94099 0,-0.85745 0.675,-1.61526 1.5,-1.68401 2.3315,-0.19417 2.91727,-0.35294 4.11052,-1.11313 1.76955,-1.12737 2.42059,0.31147 1.18532,2.61961 -0.62359,1.16518 -1.1338,2.1185 -1.1338,2.1185 0,0 0.52726,0.98521 1.17168,2.18931 1.16834,2.18308 -0.0686,4.35767 -1.32364,2.32702 -0.82512,-1.33506 -2.51008,-1.30641 -2.51008,0.0428 0,0.58247 0.51953,0.73794 1.15451,0.34549 0.7153,-0.44207 0.88306,-0.2744 0.44098,0.44098 -0.91704,1.48383 -0.8526,1.50305 -2.87325,-0.85691 z m 3.54473,-2.38825 c 0.98172,0.9817 0.2291,-1.97748 -1.04285,-4.10032 -1.1279,-1.88242 -1.1771,-1.85306 -0.83694,0.5 0.19876,1.37501 -0.14454,3.17501 -0.76289,4 -0.95043,1.26806 -0.87811,1.30805 0.46772,0.2588 0.8756,-0.68274 1.85434,-0.97899 2.17496,-0.65837 z m 0.16299,75.513 c 0.30141,-0.4877 -0.23454,-1.50018 -1.19098,-2.25 -1.53617,-1.20429 -1.5942,-1.17762 -0.49767,0.22876 0.68274,0.87559 0.94524,1.8881 0.58335,2.25 -0.36191,0.36187 -0.38456,0.65798 -0.0503,0.65798 0.3342,0 0.85425,-0.39901 1.15565,-0.88668 z m 80.12768,-1.02005 c -0.30823,-0.49873 0.27824,-0.68743 1.30327,-0.41938 1.29598,0.33891 2.03395,-0.16384 2.42269,-1.65042 0.40269,-1.53984 0.23143,-1.88022 -0.61227,-1.21694 -1.40445,1.10412 -4.78285,1.18293 -4.11103,0.0958 0.25976,-0.42035 0.015,-1.04689 -0.54399,-1.39235 -0.55898,-0.34546 -1.01631,0.0366 -1.01631,0.84912 0,2.26891 1.10703,4.6408 2.16601,4.6408 0.52361,0 0.69985,-0.40805 0.39163,-0.90675 z m 74.44237,0.46577 c 0,-0.24265 -0.45,-0.71913 -1.00001,-1.05903 -0.54998,-0.33993 -0.99998,-0.14145 -0.99998,0.44099 0,0.58243 0.45,1.05899 0.99998,1.05899 0.55001,0 1.00001,-0.19842 1.00001,-0.44095 z m 5,-0.55902 c 0,-0.55001 -0.49037,-1.00001 -1.08973,-1.00001 -0.59932,0 -1.91057,-1.01251 -2.9139,-2.25 -1.00332,-1.23749 -2.17652,-1.89893 -2.60713,-1.46985 -0.43059,0.42911 0.31818,1.8644 1.66393,3.18957 2.54894,2.50997 4.94683,3.25174 4.94683,1.53029 z m 67.83332,-0.26306 c -0.1834,-0.23641 0.28429,-1.1738 1.03912,-2.08335 0.75484,-0.90952 0.9756,-1.65367 0.49054,-1.65367 -1.20657,0 -3.39134,3.63829 -2.63746,4.39216 0.65403,0.65404 1.66135,0.0584 1.1078,-0.65514 z m -179.37604,-1.66793 c 0.31644,-0.512 0.19298,-1.1672 -0.27431,-1.45602 -0.46731,-0.28882 -0.84965,0.13011 -0.84965,0.9309 0,1.68616 0.31534,1.8335 1.12396,0.52512 z m 205.834,-1.39643 c 0.2452,-0.64497 0.0255,-2.29768 -0.48761,-3.67269 -0.84544,-2.26406 -1.02759,-2.33286 -1.93006,-0.72895 -0.54808,0.97407 -1.49536,1.46273 -2.105,1.08595 -0.69948,-0.43231 -0.89011,-0.11594 -0.51668,0.85711 0.32548,0.84821 0.0647,2.11303 -0.58008,2.81075 -0.89659,0.97061 -0.8945,1.11282 0.008,0.60554 0.6495,-0.36465 1.45139,-0.22535 1.78203,0.30963 0.72858,1.17887 3.21057,0.35725 3.82835,-1.26734 z m -2.74856,-1.60359 c -0.31646,-0.512 -0.19304,-1.1672 0.2744,-1.45599 0.46729,-0.28882 0.84963,0.13011 0.84963,0.9309 0,1.68616 -0.31533,1.83348 -1.12394,0.52509 z m -90.98886,0.017 c -0.36956,-0.59788 -1.15044,-1.08709 -1.73531,-1.08709 -0.72624,0 -0.71028,0.42554 0.0502,1.34201 0.61256,0.73811 0.96299,1.58185 0.7787,1.87501 -0.18425,0.29313 0.0955,0.17858 0.62156,-0.25484 0.52614,-0.4333 0.65426,-1.27706 0.28471,-1.87498 z m -183.2562,0.24633 c -0.28143,-0.7333 -0.91351,-1.3333 -1.40466,-1.3333 -0.49116,0 -0.89301,0.6 -0.89301,1.33333 0,0.73335 0.63209,1.33333 1.40465,1.33333 0.77256,0 1.17442,-0.59998 0.89302,-1.33333 z m 30.09931,0.83333 c 0.28327,-0.45834 -0.12038,-0.83333 -0.89698,-0.83333 -0.77661,0 -1.18026,0.37499 -0.897,0.83333 0.28327,0.45836 0.68691,0.83336 0.897,0.83336 0.21007,0 0.61373,-0.375 0.89698,-0.83333 z m 104.00002,0 c 0.28319,-0.45834 -0.12047,-0.83333 -0.89699,-0.83333 -0.77661,0 -1.18026,0.37499 -0.897,0.83333 0.28319,0.45836 0.68693,0.83336 0.897,0.83336 0.21004,0 0.61372,-0.375 0.89699,-0.83333 z m 8.16591,-3.41666 2.93709,-3.25 -3.25001,2.93709 c -3.02944,2.73781 -3.70964,3.56295 -2.93709,3.56295 0.17206,0 1.6346,-1.46251 3.25001,-3.25001 z m -38.56291,1.87246 c 0,-0.20778 -0.7875,-0.99513 -1.75001,-1.75 -1.58605,-1.24387 -1.62142,-1.2085 -0.37755,0.37757 1.30637,1.66575 2.12756,2.19547 2.12756,1.37243 z m 148.60714,-2.15138 c 0.11877,-0.80907 -0.19418,-1.47105 -0.69562,-1.47105 -0.50134,0 -0.799,-0.40501 -0.66152,-0.9 0.13747,-0.49501 -0.19985,-0.98328 -0.74999,-1.08504 -0.55001,-0.10176 -1.67499,-0.69565 -2.49999,-1.31976 -0.82503,-0.62407 -0.46698,0.0283 0.79563,1.44811 1.26264,1.42053 2.22182,2.98191 2.13159,3.46973 -0.0901,0.48783 -0.11083,1.29945 -0.0457,1.80362 0.16668,1.29047 1.46551,-0.17405 1.72553,-1.94561 z m 18.39288,1.04439 c 0,-0.14882 -0.57858,-0.75072 -1.28571,-1.33761 -0.96803,-0.80337 -1.28573,-0.61458 -1.28573,0.76394 0,1.08107 0.52659,1.62892 1.28573,1.33764 0.70713,-0.27128 1.28571,-0.61515 1.28571,-0.76397 z m 8.5,-0.51545 c 0.3399,-0.55 0.14145,-1 -0.44099,-1 -0.58246,0 -1.05902,0.45 -1.05902,1 0,0.55001 0.19843,1.00001 0.44098,1.00001 0.24265,0 0.7191,-0.45 1.05903,-1.00001 z m -248.83335,-1.33333 c 0,-0.73332 -0.59286,-1.33333 -1.31747,-1.33333 -0.98449,0 -1.0378,0.33698 -0.21089,1.33333 0.60861,0.73335 1.20147,1.33333 1.31746,1.33333 0.11599,0 0.2109,-0.59998 0.2109,-1.33333 z m 99.33335,0.95578 c 0,-0.20778 -0.78753,-0.99516 -1.75,-1.75 -1.58607,-1.24386 -1.62145,-1.20852 -0.37757,0.37755 1.30637,1.66575 2.12757,2.19549 2.12757,1.37245 z m 19.12753,-1.37245 c 1.24387,-1.58607 1.20853,-1.62141 -0.37754,-0.37755 -1.66575,1.30635 -2.19549,2.12755 -1.37246,2.12755 0.20778,0 0.99516,-0.78749 1.75,-1.75 z m 10,0 c 1.24388,-1.58607 1.2085,-1.62141 -0.37754,-0.37755 -1.66575,1.30635 -2.19549,2.12755 -1.37245,2.12755 0.20778,0 0.99516,-0.78749 1.74999,-1.75 z m 24.12333,0.50001 c -0.54672,-0.68749 -0.8669,-2.03571 -0.7115,-2.99603 0.36051,-2.2282 -1.368,-3.36415 -2.12344,-1.39549 -0.67977,1.77145 1.20102,5.64151 2.7417,5.64151 0.73327,0 0.76362,-0.40694 0.0933,-1.24999 z m -183.75089,-1.75 c 0.33992,-0.55001 0.14148,-1.00001 -0.44098,-1.00001 -0.58246,0 -1.05901,0.45 -1.05901,1.00001 0,0.55 0.19845,1 0.44097,1 0.24254,0 0.7191,-0.45 1.05902,-1 z m 87.50001,-2.50001 c 1.86578,-1.92498 3.16733,-3.5 2.89233,-3.5 -0.27499,0 -2.02656,1.57502 -3.89233,3.5 -1.86578,1.925 -3.16733,3.50001 -2.89233,3.50001 0.27499,0 2.02654,-1.57501 3.89233,-3.50001 z m 15,3.05903 c 0,-0.24265 -0.45,-0.71909 -1,-1.05902 -0.55001,-0.33993 -1.00001,-0.14145 -1.00001,0.44098 0,0.58247 0.45,1.05902 1.00001,1.05902 0.55,0 1,-0.19842 1,-0.44098 z m 76.66668,-0.89234 c 0,-0.73335 -0.525,-1.33337 -1.16668,-1.33337 -0.64168,0 -1.16665,0.60002 -1.16665,1.33337 0,0.73332 0.52497,1.33332 1.16665,1.33332 0.64168,0 1.16668,-0.6 1.16668,-1.33332 z m 58.33333,0.72567 c 0,-0.82764 -1.94174,-1.29567 -2.38692,-0.57533 -0.28879,0.4673 0.13011,0.84963 0.9309,0.84963 0.80082,0 1.45602,-0.12359 1.45602,-0.27439 z m -212.09739,-3.82307 c -0.26309,-0.26305 -1.07409,0.5137 -1.80224,1.72619 -1.26492,2.10631 -1.2436,2.12763 0.47834,0.47835 0.99123,-0.94941 1.58697,-1.94145 1.3239,-2.20454 z m 70.55467,2.49982 c 0.31644,-0.51199 0.19298,-1.16719 -0.27431,-1.45601 -0.46731,-0.28883 -0.84965,0.13011 -0.84965,0.9309 0,1.68615 0.31534,1.8335 1.12396,0.52511 z m 184.04273,-1.06911 c 0.3399,-0.54998 0.14145,-0.99998 -0.44099,-0.99998 -0.58246,0 -1.05902,0.45 -1.05902,0.99998 0,0.55 0.19843,1 0.44098,1 0.24265,0 0.7191,-0.45 1.05903,-1 z m -248.83335,-1.55273 c 0,-1.012 -0.93308,-1.15235 -3.47569,-0.5228 -0.16997,0.0419 -0.0772,0.4515 0.20602,0.90983 0.79171,1.28101 3.26968,0.98768 3.26968,-0.38703 z m 118.46088,-0.19618 c 1.24387,-1.58604 1.20853,-1.62142 -0.37754,-0.37754 -1.66575,1.30637 -2.19549,2.12754 -1.37246,2.12754 0.20778,0 0.99516,-0.7875 1.75,-1.75 z m 5,0 c 1.24388,-1.58604 1.20853,-1.62142 -0.37754,-0.37754 -1.66575,1.30637 -2.19549,2.12754 -1.37246,2.12754 0.20778,0 0.99516,-0.7875 1.75,-1.75 z m 98.18354,0.5 c -1.09242,-1.46233 -1.08859,-2.76471 0.0142,-4.5 1.21924,-1.92018 -0.43328,-1.48248 -1.88776,0.50001 -1.0635,1.44958 -1.01288,2.05044 0.29475,3.49999 1.80799,2.00424 2.9808,2.37544 1.57977,0.5 z m -167.31109,-2.25 c 1.29175,-1.37499 2.12363,-2.49998 1.84863,-2.49998 -0.27499,0 -1.55688,1.12499 -2.84863,2.49998 -1.29175,1.37501 -2.12363,2.50002 -1.84863,2.50002 0.27499,0 1.55688,-1.12501 2.84863,-2.50002 z m 93.2901,0.49862 c 0.28786,-1.10075 0.11537,-1.7492 -0.38336,-1.44096 -0.49869,0.30821 -0.90674,1.20883 -0.90674,2.00137 0,2.06975 0.67952,1.7746 1.2901,-0.56041 z m 46.1069,1.16804 c 0.28318,-0.45833 -0.12047,-0.83333 -0.89699,-0.83333 -0.77661,0 -1.18026,0.375 -0.897,0.83333 0.28318,0.45834 0.68692,0.83336 0.897,0.83336 0.21004,0 0.61372,-0.37502 0.89699,-0.83336 z m -224.897,-1.16666 c 0.33992,-0.55 0.14148,-1 -0.44098,-1 -0.58247,0 -1.05902,0.45 -1.05902,1 0,0.55002 0.19845,1.00002 0.44098,1.00002 0.24253,0 0.7191,-0.45 1.05902,-1.00002 z m 110.30687,-1.52645 c -0.30789,-0.30789 -0.86705,0.24718 -1.24257,1.23332 -0.54269,1.42521 -0.42783,1.54007 0.5598,0.55979 0.68341,-0.67833 0.99066,-1.48521 0.68277,-1.79311 z m -79.47572,-0.97571 c 0.36787,0.27609 0.44287,0.20126 0.16668,-0.16668 -0.27621,-0.36788 0.2863,-1.5976 1.25,-2.73277 1.31242,-1.54593 1.35262,-1.75671 0.16018,-0.83982 -0.8756,0.67326 -1.82397,0.99213 -2.1075,0.70861 -0.28352,-0.28352 -1.08471,0.17036 -1.78043,1.00865 -0.69571,0.83832 -0.92975,1.52419 -0.52006,1.52419 0.40969,0 0.13505,0.78749 -0.61032,1.75 -1.28785,1.66299 -1.25263,1.66291 0.7087,-0.002 1.13516,-0.96369 2.3649,-1.5262 2.73278,-1.25 z m 65.12615,1.57127 c 0.31644,-0.51199 0.19298,-1.16719 -0.27432,-1.45602 -0.46731,-0.28881 -0.84964,0.13011 -0.84964,0.9309 0,1.68616 0.31534,1.8335 1.12396,0.52512 z m 87.34987,-2.57865 c -0.0658,-1.7469 0.2622,-3.80942 0.72867,-4.58334 0.69528,-1.15361 0.57172,-1.18346 -0.68587,-0.16582 -0.8437,0.68272 -1.90222,0.90774 -2.35231,0.5 -0.45008,-0.40774 -0.49461,-0.17887 -0.0989,0.50868 0.41567,0.72232 0.16668,1.28333 -0.58967,1.32893 -1.00456,0.0607 -1.01868,0.19617 -0.0607,0.58278 0.7397,0.29855 1.01815,1.42075 0.68343,2.75437 -0.40147,1.59953 -0.12217,2.25059 0.965,2.25059 1.07711,0 1.49454,-0.93999 1.41047,-3.17622 z m -152.87734,-4.03381 c 0.40526,0.25058 0.73684,-0.1491 0.73684,-0.88767 0,-1.4902 -2.68773,-1.4963 -2.7792,-0.006 -0.0992,1.61558 -2.06541,3.43732 -3.70991,3.43732 -1.22699,0 -1.31089,-0.26674 -0.37756,-1.19999 0.66,-0.65999 1.2,-1.66014 1.2,-2.2225 0,-0.56237 -0.77931,0.0901 -1.73181,1.45 -1.69106,2.41433 -1.64669,3.76532 0.10449,3.18161 0.47997,-0.15987 0.59176,0.515 0.24843,1.50001 -0.34335,0.98498 0.76986,0.10375 2.4738,-1.95852 1.70394,-2.06215 3.42966,-3.54444 3.83492,-3.29397 z m 113.19774,4.79335 c 1.24387,-1.58607 1.20849,-1.62141 -0.37758,-0.37754 -1.66575,1.30634 -2.19546,2.12754 -1.37242,2.12754 0.20778,0 0.99513,-0.78749 1.75,-1.75 z m 5.99998,-1 c 1.24387,-1.58604 1.20853,-1.62142 -0.37754,-0.37754 -1.66575,1.30637 -2.19549,2.12754 -1.37246,2.12754 0.20778,0 0.99516,-0.7875 1.75,-1.75 z m -63.12755,-2.75 c 1.86578,-1.92498 3.16733,-3.5 2.89233,-3.5 -0.27499,0 -2.02655,1.57502 -3.89233,3.5 -1.86578,1.92501 -3.16733,3.50002 -2.89233,3.50002 0.27499,0 2.02655,-1.57501 3.89233,-3.50002 z m 91.60712,2.02895 c -0.36193,-2.46602 -1.6071,-3.00498 -1.6071,-0.69562 0,1.19168 0.41017,2.16669 0.91151,2.16669 0.50133,0 0.81434,-0.662 0.69559,-1.47107 z m -67.80025,-2.0554 c -0.30789,-0.3079 -0.86705,0.24718 -1.24257,1.23332 -0.54269,1.42521 -0.42783,1.54007 0.5598,0.55982 0.68341,-0.67836 0.99066,-1.48524 0.68277,-1.79314 z m 127.19314,1.9188 c 0,-0.82763 -1.94174,-1.29563 -2.38692,-0.57532 -0.28879,0.46732 0.13011,0.84966 0.9309,0.84966 0.80082,0 1.45602,-0.1236 1.45602,-0.2744 z M 193.0716,349.41336 c 1.29175,-1.375 2.12363,-2.50002 1.84863,-2.50002 -0.27499,0 -1.55688,1.12502 -2.84863,2.50002 -1.29175,1.375 -2.12363,2.49998 -1.84863,2.49998 0.27499,0 1.55688,-1.12498 2.84863,-2.49998 z m 17.53759,-2.71916 c 2.72933,-2.87051 4.02589,-4.44453 2.88126,-3.49781 -1.14462,0.94674 -2.38213,1.49533 -2.75,1.21915 -0.36787,-0.2761 -0.43972,-0.19814 -0.1597,0.17376 0.64897,0.86142 -3.56743,5.40621 -4.48784,4.83735 -0.37839,-0.23386 -0.68798,0.22989 -0.68798,1.03082 0,0.80082 0.0544,1.45602 0.12093,1.45602 0.0665,0 2.35401,-2.34862 5.08333,-5.21915 z m 157.09877,2.21916 c 0,-1.5238 -0.55814,-2.66667 -1.30229,-2.66667 -0.97187,0 -1.02155,0.33829 -0.19588,1.33333 0.80876,0.9745 0.80876,1.69218 0,2.66667 -0.82582,0.99501 -0.77612,1.33333 0.19588,1.33333 0.74415,0 1.30229,-1.14287 1.30229,-2.66666 z m -154.5088,0.25001 c 1.21431,-1.54837 1.18902,-1.60699 -0.21957,-0.50868 -0.8756,0.68273 -1.96025,0.90774 -2.41032,0.50001 -0.45008,-0.40774 -0.49462,-0.17887 -0.099,0.50867 0.92979,1.6157 1.09308,1.58579 2.72886,-0.5 z m 22.66877,-0.20437 c -0.67134,-1.07499 -1.41428,-1.76086 -1.65098,-1.52417 -0.42859,0.4286 1.75074,3.47868 2.48558,3.47868 0.21231,0 -0.16325,-0.87953 -0.8346,-1.95451 z m 38.33122,0.20437 c 1.24387,-1.58607 1.20853,-1.62142 -0.37754,-0.37754 -0.96251,0.75484 -1.75,1.54233 -1.75,1.74999 0,0.82304 0.8212,0.2933 2.12754,-1.37245 z m -81.09339,-4.9909 c 3.00621,-3.15751 3.86125,-4.27459 1.90009,-2.48241 -1.96116,1.79217 -3.87366,3.02558 -4.25,2.7409 -0.37634,-0.28468 -0.45513,-0.21345 -0.17509,0.15817 0.28003,0.37171 -0.47342,1.72171 -1.67432,2.99999 -1.2009,1.27832 -1.97715,2.32418 -1.72498,2.32418 0.25216,0 2.9181,-2.58338 5.92431,-5.74089 z m 9.01967,1.01222 c 1.8954,-2.05078 2.50965,-2.94979 1.36502,-1.9978 -1.14463,0.95196 -2.38213,1.50485 -2.75,1.22867 -0.36787,-0.27609 -0.44287,-0.20125 -0.16668,0.16668 0.27621,0.36789 -0.24352,1.4929 -1.15498,2.50002 -0.91145,1.00712 -1.4507,1.83115 -1.19834,1.83115 0.25233,0 2.00958,-1.67791 3.90498,-3.72869 z m 26.49322,-1.51495 c 2.33102,-2.50245 2.69358,-3.11215 0.88362,-1.486 -1.68814,1.5167 -3.44778,2.41384 -3.91033,1.99363 -0.46254,-0.42021 -0.51729,-0.20154 -0.12166,0.486 0.39564,0.68752 0.24279,1.25 -0.33967,1.25 -0.58246,0 -1.05901,0.45 -1.05901,1 0,1.52952 0.3006,1.3151 4.54704,-3.24363 z m 70.34504,1.50792 c 1.09667,-2.10818 1.02084,-2.18168 -1.32913,-1.28821 -2.34219,0.89048 -3.9981,0.0142 -4.04765,-2.14273 -0.008,-0.36666 -0.31904,-0.97041 -0.69027,-1.34164 -0.37122,-0.37123 -0.57087,0.0343 -0.44359,0.90142 0.23528,1.60319 4.52622,7.07564 5.05707,6.44956 0.15987,-0.18851 0.81393,-1.34876 1.45357,-2.5784 z M 190.0716,337.05017 c 0,-0.24577 -0.82402,0.29897 -1.83115,1.21039 -1.00713,0.91145 -2.20428,1.3187 -2.66033,0.90499 -0.45604,-0.41369 -0.54589,-0.25512 -0.19967,0.35246 0.78684,1.38073 -3.6519,5.69086 -4.79336,4.65452 -0.45988,-0.41752 -0.48642,-0.1545 -0.059,0.58438 0.5806,1.00376 1.88574,0.25569 5.16032,-2.9582 2.41076,-2.36597 4.38319,-4.50281 4.38319,-4.74854 z m 18.59501,6.6132 c 1.90345,-2.24816 1.90331,-2.24859 -0.17614,-0.49782 -1.14463,0.96372 -2.45428,1.41372 -2.91033,1 -0.45604,-0.41368 -0.50547,-0.18964 -0.10985,0.49782 0.94118,1.63548 0.97355,1.62536 3.19632,-1 z m -15.06371,-4.9929 c 3.28279,-3.43357 4.14035,-4.5494 1.90571,-2.47965 -2.23465,2.06979 -4.37215,3.5291 -4.75,3.24288 -0.37786,-0.28618 -0.45789,-0.21628 -0.17784,0.15563 0.28003,0.37171 -0.47341,1.72171 -1.67433,2.99999 -1.2009,1.27831 -1.97843,2.32421 -1.72783,2.32421 0.25058,0 3.14152,-2.8093 6.4243,-6.24291 z m 174.59982,4.90089 c -0.61257,-0.73809 -0.89266,-1.56309 -0.62243,-1.83331 0.27014,-0.27014 -0.1406,-0.49133 -0.91307,-0.49133 -1.1115,0 -1.16561,0.38233 -0.25937,1.83333 0.62972,1.00831 1.54179,1.83333 2.02682,1.83333 0.48507,0 0.38073,-0.60391 -0.23187,-1.34202 z m -149.68391,-1.7434 c -0.32196,-0.52095 -1.01165,-0.68378 -1.53262,-0.36179 -0.52097,0.32196 -0.68378,1.01163 -0.3618,1.53261 0.32197,0.52098 1.01165,0.68378 1.53262,0.36182 0.52097,-0.32199 0.68379,-1.01166 0.3618,-1.53264 z m -15.8843,-2.16459 2.93709,-3.25001 -3.25,2.93709 c -1.7875,1.61541 -3.24999,3.07791 -3.24999,3.25001 0,0.77255 0.82512,0.0924 3.5629,-2.93709 z m 94.93709,2.25 c -0.33991,-0.55001 -0.0666,-1.00001 0.60766,-1.00001 1.54491,0 0.5338,-1.08071 -1.26604,-1.35315 -2.16439,-0.32763 -3.91699,-1.71583 -3.34162,-2.64684 0.29293,-0.47399 0.11481,-1.12003 -0.39588,-1.43567 -1.81219,-1.11997 -0.45658,2.43159 1.87568,4.91417 2.42606,2.58245 3.62219,3.30455 2.5202,1.5215 z m -145.10301,-0.83333 c 0.28327,-0.45834 -0.12039,-0.83333 -0.89699,-0.83333 -0.77661,0 -1.18026,0.37499 -0.89699,0.83333 0.28327,0.45834 0.68691,0.83333 0.89699,0.83333 0.21008,0 0.61373,-0.37499 0.89699,-0.83333 z m 37.60301,-9.02988 c 0,-0.24576 -0.82402,0.29897 -1.83115,1.2104 -1.00713,0.91145 -2.20428,1.3187 -2.66033,0.90499 -0.45604,-0.4137 -0.54589,-0.25512 -0.19967,0.35245 0.78684,1.38073 -3.6519,5.69087 -4.79336,4.65452 -0.45988,-0.41751 -0.48642,-0.15449 -0.059,0.58439 0.5806,1.00375 1.88574,0.25569 5.16032,-2.9582 2.41076,-2.36597 4.38319,-4.50282 4.38319,-4.74855 z m 18.59501,6.6132 c 1.90345,-2.24816 1.90331,-2.24855 -0.17614,-0.49782 -1.14463,0.96372 -2.45428,1.41372 -2.91033,1.00001 -0.45604,-0.41369 -0.50547,-0.18964 -0.10985,0.49782 0.94118,1.63548 0.97355,1.62535 3.19632,-1.00001 z m 4.90499,0.25002 c 0.99549,-1.10001 1.58498,-2.00001 1.30998,-2.00001 -0.27498,0 -1.31448,0.9 -2.30997,2.00001 -0.9955,1.09998 -1.58499,1.99998 -1.30999,1.99998 0.27499,0 1.31449,-0.9 2.30998,-1.99998 z m 69.89699,1.16665 c 0.28317,-0.45833 -0.12048,-0.83332 -0.89697,-0.83332 -0.77661,0 -1.18026,0.37499 -0.897,0.83332 0.28318,0.45833 0.68689,0.83333 0.897,0.83333 0.21004,0 0.61373,-0.375 0.89697,-0.83333 z m -65.26586,-1.50865 c -0.61257,-0.73812 -0.78018,-1.71026 -0.37245,-2.16034 0.40773,-0.45008 0.15699,-0.4811 -0.55724,-0.0688 -1.00047,0.57733 -1.02976,1.07325 -0.12755,2.16034 0.64405,0.77601 1.396,1.41097 1.67099,1.41097 0.27499,0 -7.5e-4,-0.60392 -0.61377,-1.342 z m 18.43179,-2.90801 2.93709,-3.25 -3.25,2.93709 c -1.78751,1.61541 -3.25001,3.07791 -3.25001,3.25 0,0.77255 0.82513,0.0924 3.56292,-2.93709 z m -84.16593,0.41666 c 0.28327,-0.45833 -0.12039,-0.83332 -0.89699,-0.83332 -0.77661,0 -1.18026,0.37499 -0.89699,0.83332 0.28327,0.45834 0.68691,0.83334 0.89699,0.83334 0.21008,0 0.61373,-0.375 0.89699,-0.83334 z m 28.10301,-4.16667 c 2.70865,-2.74998 4.69982,-4.99998 4.42482,-4.99998 -0.27498,0 -2.71617,2.25 -5.42482,4.99998 -2.70865,2.75001 -4.69982,5.00001 -4.42482,5.00001 0.27499,0 2.71617,-2.25 5.42482,-5.00001 z m 108.16667,3.54402 c 0,-0.80082 -0.38233,-1.21972 -0.84965,-0.93093 -0.46729,0.28882 -0.59074,0.94402 -0.27439,1.45602 0.80863,1.30839 1.12396,1.16107 1.12396,-0.52509 z m 10.33334,-0.0887 c 0,-0.18198 -0.86882,-0.26532 -1.93073,-0.18538 -1.06189,0.0799 -1.72248,0.48237 -1.46799,0.89418 0.42246,0.68352 3.39872,0.0629 3.39872,-0.70874 z m -111.52035,-3.71946 c 0.46254,0.42021 0.49448,0.16469 0.071,-0.56801 -0.58927,-1.01931 -1.44848,-0.68196 -3.66032,1.43712 -1.58967,1.52299 -2.89031,2.99409 -2.89031,3.26907 0,0.27497 1.2687,-0.71549 2.81933,-2.2011 1.55064,-1.48557 3.19778,-2.35728 3.66033,-1.93708 z m 41.11535,2.01402 c 1.90345,-2.24819 1.90332,-2.24858 -0.17617,-0.49782 -1.14463,0.96369 -2.45428,1.41369 -2.91033,0.99997 -0.45604,-0.41368 -0.50547,-0.18963 -0.10985,0.49782 0.94118,1.63548 0.97355,1.62537 3.19633,-0.99997 z m 14.76459,-6.86654 c 1.13797,0.94443 1.62729,0.94677 2.2059,0.0113 0.45447,-0.73539 0.32158,-0.94229 -0.34189,-0.53226 -1.59503,0.98578 -2.58389,-1.22273 -1.26114,-2.81659 0.85587,-1.03125 0.81562,-1.55126 -0.16384,-2.11652 -0.71422,-0.41213 -0.94802,-0.36413 -0.51956,0.10658 0.42845,0.47078 -2.27155,4.02911 -6.00001,7.90739 -5.52105,5.7429 -5.72153,6.0471 -1.08039,1.63922 4.68827,-4.45258 5.95788,-5.19698 7.16099,-4.19851 z m -65.8596,3.11653 c 2.70865,-2.75001 4.69982,-5.00001 4.42482,-5.00001 -0.27499,0 -2.71617,2.25 -5.42482,5.00001 -2.70865,2.75 -4.69982,5 -4.42482,5 0.27499,0 2.71617,-2.25 5.42482,-5 z m 17.5,2.49998 c 1.29175,-1.37499 2.12363,-2.49998 1.84863,-2.49998 -0.27499,0 -1.55688,1.12499 -2.84863,2.49998 -1.29175,1.37501 -2.12363,2.50002 -1.84863,2.50002 0.27499,0 1.55688,-1.12501 2.84863,-2.50002 z m 23.13113,1.15801 c -0.61257,-0.73811 -0.78018,-1.71025 -0.37245,-2.16034 0.40773,-0.45005 0.15699,-0.48109 -0.55724,-0.0688 -1.00047,0.57733 -1.02976,1.07325 -0.12755,2.16034 0.64405,0.77602 1.396,1.41098 1.67099,1.41098 0.27499,0 -7.5e-4,-0.60393 -0.61377,-1.34201 z m 79.05496,-2.10466 c 1.56535,-1.0696 1.55197,-1.23582 -0.18652,-2.32158 -1.61436,-1.0082 -1.82035,-0.89793 -1.49349,0.79937 0.4142,2.15074 -0.51693,2.55793 -2.13931,0.93555 -0.71112,-0.71113 -1.03334,-0.60719 -1.03334,0.33332 0,1.67593 2.57411,1.81032 4.85274,0.25342 z m -144.7891,-0.38667 c 0.28327,-0.45834 -0.12039,-0.83334 -0.89699,-0.83334 -0.77661,0 -1.18026,0.375 -0.89699,0.83334 0.28327,0.45833 0.68691,0.83332 0.89699,0.83332 0.21008,0 0.61373,-0.37499 0.89699,-0.83332 z m 151.07408,-0.029 c -0.84592,-0.84588 -3.52764,-1.03824 -3.01981,-0.21657 0.25342,0.41006 1.15558,0.74557 2.00475,0.74557 0.8492,0 1.30597,-0.23811 1.01506,-0.52897 z m 10.19562,-0.59372 c 0,-0.80081 -0.38236,-1.21972 -0.84966,-0.93089 -0.46731,0.28879 -0.59076,0.94399 -0.27439,1.45601 0.80861,1.30836 1.12396,1.16105 1.12396,-0.52512 z m -80.16668,-1.54403 c 0.99549,-1.09998 1.58497,-1.99998 1.30998,-1.99998 -0.27499,0 -1.3145,0.9 -2.30999,1.99998 -0.99549,1.10002 -1.58497,2.00002 -1.30998,2.00002 0.275,0 1.3145,-0.9 2.30999,-2.00002 z m -2.83553,-0.66884 c -0.36786,-0.36787 0.11966,-1.60536 1.08335,-2.75 1.74759,-2.07572 1.74636,-2.07623 -0.47424,-0.19757 -1.96514,1.66258 -2.26113,3.61636 -0.54791,3.61636 0.33422,0 0.30668,-0.30099 -0.0612,-0.66884 z m -59.16448,-2.33115 c 0.99549,-1.10001 1.58498,-2.00001 1.30998,-2.00001 -0.27499,0 -1.31449,0.9 -2.30998,2.00001 -0.99549,1.09998 -1.58498,1.99998 -1.30998,1.99998 0.27499,0 1.31449,-0.9 2.30998,-1.99998 z m 123.02645,0.19304 c -0.30786,-0.3079 -1.11477,-6.5e-4 -1.7931,0.68278 -0.98028,0.98762 -0.86542,1.10248 0.55978,0.55979 0.98623,-0.37551 1.54122,-0.93467 1.23332,-1.24257 z m 2.97355,0.80688 c -0.33991,-0.55001 -0.0799,-1.00001 0.57736,-1.00001 0.65746,0 0.008,-1.18635 -1.44099,-2.63636 -2.74221,-2.74223 -3.35024,-4.36365 -1.63636,-4.36365 0.55001,0 1.00001,0.64845 1.00001,1.44099 0,0.79254 0.36816,1.66853 0.81816,1.94664 0.45,0.27808 0.81819,-0.79631 0.81819,-2.38762 0,-1.78387 -0.40958,-2.64841 -1.06818,-2.25468 -0.58751,0.35121 -0.46695,-0.10318 0.26787,-1.00956 0.73486,-0.90649 1.0458,-2.11785 0.69098,-2.69195 -0.35481,-0.5741 -0.0935,-1.0438 0.5806,-1.0438 0.67413,0 0.93012,-0.29554 0.56893,-0.65676 -1.188,-1.18797 -6.05644,5.09514 -6.19627,7.99679 -0.10233,2.12545 0.45081,3.06349 2.19872,3.72804 1.2846,0.48838 2.27902,1.23537 2.20986,1.65994 -0.21005,1.2892 0.0799,2.27197 0.67011,2.27197 0.30747,0 0.28091,-0.45 -0.0589,-0.99998 z m -145.05279,-2.08542 c -0.32197,-0.52098 -1.01165,-0.68377 -1.53262,-0.36182 -0.52097,0.32199 -0.68378,1.01166 -0.3618,1.53264 0.32197,0.52098 1.01165,0.68378 1.53262,0.36179 0.52097,-0.32196 0.68378,-1.01163 0.3618,-1.53261 z m 6.55279,1.47776 c 0,-0.82763 -1.94173,-1.29566 -2.38691,-0.57532 -0.28881,0.46729 0.13008,0.84963 0.9309,0.84963 0.8008,0 1.45601,-0.12331 1.45601,-0.2744 z m 19.56291,-2.64235 2.93709,-3.25 -3.25,2.93709 c -3.02946,2.73778 -3.70965,3.56292 -2.93709,3.56292 0.17209,0 1.6346,-1.46251 3.25,-3.25001 z m 39.89438,1.31911 c 0.31644,-0.51202 0.19299,-1.16722 -0.2743,-1.45602 -0.46732,-0.28882 -0.84965,0.13011 -0.84965,0.9309 0,1.68616 0.31533,1.83347 1.12395,0.52512 z m 10.04271,-1.06912 c 0.99549,-1.09998 1.58499,-1.99998 1.30998,-1.99998 -0.27498,0 -1.31448,0.9 -2.30997,1.99998 -0.99549,1.10001 -1.58499,2.00001 -1.30998,2.00001 0.27498,0 1.31448,-0.9 2.30997,-2.00001 z m 9.91017,0.0992 c 1.36998,-1.51383 1.45242,-2.05534 0.40498,-2.66031 -0.72334,-0.4178 -0.97667,-0.38647 -0.56296,0.0695 0.41369,0.45607 0.006,1.6532 -0.90498,2.66035 -0.91146,1.00712 -1.43219,1.83116 -1.15719,1.83116 0.27499,0 1.27406,-0.85536 2.22015,-1.90075 z m 10.51593,-0.51023 c 0.90221,-1.08709 0.87293,-1.58301 -0.12755,-2.16034 -0.71422,-0.41213 -0.96497,-0.38112 -0.55726,0.0689 0.40773,0.45008 0.24009,1.42223 -0.37242,2.16034 -0.6126,0.73811 -0.88878,1.342 -0.61379,1.342 0.27497,0 1.02697,-0.63495 1.671,-1.41097 z m 5.00001,0 c 0.90221,-1.08709 0.87293,-1.58301 -0.12756,-2.16034 -0.71422,-0.41213 -0.96497,-0.38112 -0.55726,0.0689 0.40773,0.45008 0.24009,1.42223 -0.37245,2.16034 -0.61257,0.73811 -0.88875,1.342 -0.61376,1.342 0.27497,0 1.02697,-0.63495 1.671,-1.41097 z m -115.29276,-4.1152 c -1.39596,-1.02072 -1.3954,-1.28322 0.006,-2.68427 1.20458,-1.20458 1.27242,-1.72627 0.30244,-2.32573 -0.76043,-0.46999 -0.99829,-0.36483 -0.60697,0.26844 0.69989,1.13244 -1.66496,3.60399 -2.57635,2.69259 -0.30682,-0.30681 -0.89745,-0.008 -1.3125,0.6632 -0.47,0.76045 -0.33809,0.96358 0.34969,0.53853 1.30376,-0.80578 3.4605,2.72332 2.4195,3.95903 -0.39315,0.4667 0.1133,0.21203 1.12548,-0.56588 1.63817,-1.25909 1.67036,-1.5387 0.29305,-2.54582 z m 121.76363,2.69283 c 0.28318,-0.45834 -0.12047,-0.83333 -0.89697,-0.83333 -0.77661,0 -1.18026,0.37499 -0.89699,0.83333 0.28318,0.45831 0.68689,0.8333 0.89699,0.8333 0.21005,0 0.61374,-0.37499 0.89697,-0.83333 z M 153.0716,320.3053 c 0,-0.82763 -1.94173,-1.29563 -2.38691,-0.57531 -0.28881,0.46731 0.13008,0.84965 0.9309,0.84965 0.8008,0 1.45601,-0.12331 1.45601,-0.27439 z m 26,-1.89235 c 1.29175,-1.375 2.12363,-2.49998 1.84863,-2.49998 -0.27499,0 -1.55688,1.12498 -2.84863,2.49998 -1.29175,1.375 -2.12363,2.50002 -1.84863,2.50002 0.27499,0 1.55688,-1.12502 2.84863,-2.50002 z m 43.66667,1.044 c 0,-0.80081 -0.38234,-1.21972 -0.84965,-0.93089 -0.4673,0.28881 -0.59075,0.94401 -0.2743,1.45601 0.80861,1.30839 1.12396,1.16104 1.12395,-0.52512 z m 21.17734,-3.23195 c -0.90076,-1.08536 -0.52413,-2.07845 1.74396,-4.59819 1.59111,-1.76763 0.84484,-1.29121 -1.65832,1.05868 -2.50319,2.34989 -4.95905,3.92488 -5.45749,3.5 -0.49842,-0.42489 -0.30345,0.0142 0.43325,0.97747 1.39377,1.82095 2.6426,2.44568 1.63731,0.8191 -0.75367,-1.21946 1.15308,-2.37512 2.52242,-1.52884 0.69517,0.42965 0.43466,1.40536 -0.74999,2.80902 l -1.81514,2.15073 2.24645,-1.90179 c 1.75539,-1.48606 1.99531,-2.20442 1.09755,-3.28618 z m 11.62712,-2.58457 c 0.46724,0.42488 0.54292,0.23754 0.16809,-0.41601 -0.37473,-0.6537 0.11197,-1.63245 1.08137,-2.175 0.96947,-0.54255 1.51571,-1.23344 1.21385,-1.5353 -0.30187,-0.30186 -3.22314,2.24994 -6.49168,5.67065 -3.52298,3.68703 -4.08572,4.48158 -1.38201,1.95134 2.50844,-2.34751 4.94309,-3.92056 5.41032,-3.49568 z m -2.06096,5.37182 c 1.36999,-1.51384 1.45242,-2.05534 0.40496,-2.66034 -0.72332,-0.41777 -0.97665,-0.38647 -0.56296,0.0697 0.41371,0.45607 0.006,1.65323 -0.90499,2.66035 -0.91142,1.00712 -1.43215,1.83115 -1.15716,1.83115 0.27497,0 1.27406,-0.85533 2.22015,-1.90071 z m -83.28261,-1.84929 c 1.24387,-1.58605 1.2085,-1.62142 -0.37756,-0.37755 -0.9625,0.75484 -1.75,1.54233 -1.75,1.75 0,0.82304 0.82119,0.2933 2.12756,-1.37245 z m -25.46089,-1.70601 c 0,-0.80081 -0.34735,-1.24135 -0.77188,-0.97897 -0.42453,0.26249 -1.22476,-0.31992 -1.77829,-1.29399 -0.90139,-1.58621 -0.99051,-1.54343 -0.85388,0.4097 0.0839,1.19939 0.47804,1.97954 0.87587,1.73369 0.39782,-0.24576 1.00597,0.0113 1.35143,0.56929 0.86112,1.39331 1.17675,1.27539 1.17675,-0.43972 z m 8.33333,-0.15165 c 0,-0.82763 -1.94173,-1.29563 -2.38691,-0.57532 -0.28881,0.46732 0.13008,0.84966 0.9309,0.84966 0.8008,0 1.45601,-0.12331 1.45601,-0.2744 z m 65.45729,-0.32323 c 0.31644,-0.512 0.19299,-1.1672 -0.2743,-1.45602 -0.46732,-0.28879 -0.84965,0.13011 -0.84965,0.9309 0,1.68618 0.31533,1.83351 1.12395,0.52512 z m 4.54272,0.58589 c 0,-0.18964 -1.01251,-1.20226 -2.25,-2.25 l -2.25,-1.90499 1.90498,2.25 c 1.79022,2.11444 2.59502,2.70524 2.59502,1.90499 z m -43.87245,-2.405 c 1.24387,-1.58607 1.2085,-1.62141 -0.37756,-0.37755 -0.9625,0.75484 -1.75,1.54233 -1.75,1.75 0,0.82304 0.82119,0.2933 2.12756,-1.37245 z m 70.00001,0 c 1.24386,-1.58607 1.20849,-1.62141 -0.37755,-0.37755 -0.96251,0.75484 -1.75003,1.54233 -1.75003,1.75 0,0.82304 0.8212,0.2933 2.12758,-1.37245 z m 11.43535,-1.50001 2.93709,-3.24998 -3.25,2.93709 c -3.02948,2.73776 -3.70965,3.5629 -2.93709,3.5629 0.17205,0 1.63459,-1.46251 3.25,-3.25001 z m 33.96353,1.44315 c -0.30786,-0.3079 -1.11477,-6.5e-4 -1.7931,0.68278 -0.98028,0.98762 -0.86542,1.10248 0.55978,0.55978 0.98623,-0.37553 1.54122,-0.93466 1.23332,-1.24256 z m -124.66477,-0.52648 c 0.82691,-0.99635 0.77361,-1.33333 -0.2109,-1.33333 -0.7246,0 -1.31746,0.6 -1.31746,1.33333 0,0.73335 0.0949,1.33333 0.2109,1.33333 0.11599,0 0.70884,-0.59998 1.31746,-1.33333 z m -17.25418,-2.3925 c -1.0574,-1.05738 -1.93626,-0.64185 -2.18188,1.03164 -0.21555,1.46858 0.005,1.58202 1.17884,0.60752 0.79413,-0.65908 1.2455,-1.39668 1.00304,-1.63916 z m 101.23592,-1.6075 c 1.68162,-1.78999 1.83864,-2.33334 0.67434,-2.33334 -0.83478,0 -1.29178,0.22593 -1.01557,0.50219 0.27609,0.2761 -0.2435,1.32622 -1.15501,2.33334 -2.43575,2.69149 -1.07501,2.23477 1.49624,-0.50219 z m 43.85103,-6.27973 c 0.0306,-4.91278 0.50741,-8.89364 1.11017,-9.26618 0.68416,-0.42284 0.39016,-1.5288 -0.83399,-3.13692 -1.82953,-2.40345 -1.87208,-2.41101 -1.31405,-0.23386 0.77082,3.00742 -1.89627,3.02771 -3.88696,0.0295 -1.4568,-2.19409 -1.47087,-2.1852 -1.18491,0.75 0.4101,4.20885 0.91744,6.30592 1.71967,7.10818 1.023,1.023 0.84767,2.57429 -0.21656,1.91654 -1.78872,-1.10549 -0.4358,2.44638 1.86445,4.89492 1.81392,1.93082 2.08494,2.80108 1.20323,3.86351 -1.06815,1.28704 -0.63479,2.6873 0.83171,2.6873 0.3596,0 0.67788,-3.87587 0.70727,-8.61307 z m -3.58539,0.24463 c -0.89151,-1.07421 -0.9099,-1.63647 -0.0706,-2.15526 1.63094,-1.00798 3.65426,1.23102 2.31905,2.56623 -0.72318,0.72317 -1.41174,0.59731 -2.24856,-0.41097 z m 0.19275,-4.89243 c -1.32213,-1.77159 -1.03428,-3.99486 0.58725,-4.53537 0.86891,-0.28965 1.11756,-0.0226 0.6639,0.71044 -0.39888,0.64545 -0.21458,1.78877 0.40938,2.54072 0.67428,0.81247 0.75518,1.60169 0.19928,1.9452 -0.5144,0.3179 -1.35136,0.0198 -1.85993,-0.66099 z m -68.84466,11.33011 c 0.31644,-0.51199 0.19298,-1.16719 -0.27431,-1.45602 -0.46731,-0.28879 -0.84965,0.13011 -0.84965,0.9309 0,1.68619 0.31534,1.8335 1.12396,0.52512 z m -107.73002,-5.13221 c 0,-2.30562 -0.33563,-3.57058 -0.76364,-2.87804 -0.42,0.67957 -0.76363,2.74308 -0.76363,4.58557 0,1.84252 0.34363,3.13764 0.76363,2.87804 0.42,-0.25965 0.76364,-2.32307 0.76364,-4.58557 z m 32.81032,3.26735 c -1.07195,-1.07195 -3.5155,-1.04899 -4.18813,0.0394 -0.37337,0.60411 -0.18851,0.77496 0.42693,0.3946 0.59698,-0.36895 1.3726,-0.20608 1.72361,0.36182 0.35101,0.56792 1.08704,0.75521 1.63563,0.41618 0.54859,-0.33905 0.72947,-0.88441 0.40196,-1.21195 z m 69.25554,-2.79774 c 0.16121,-0.0876 -0.50007,-0.4638 -1.46952,-0.83579 -0.96946,-0.37205 -1.44277,-0.35654 -1.05181,0.0343 0.39097,0.39096 0.15225,1.42725 -0.53048,2.30287 -1.11856,1.43456 -1.04354,1.44692 0.75868,0.12501 1.1,-0.80689 2.13191,-1.53879 2.29313,-1.62646 z m 39.70688,-1.40649 c 0.99548,-1.10002 1.58497,-2.00002 1.30997,-2.00002 -0.27495,0 -1.31448,0.9 -2.30997,2.00002 -0.9955,1.09998 -1.58499,1.99998 -1.30998,1.99998 0.27496,0 1.31448,-0.9 2.30998,-1.99998 z M 150.99771,302.5022 c 0.90221,-1.08709 0.87292,-1.58301 -0.12756,-2.16034 -0.71421,-0.41213 -0.96496,-0.38112 -0.55724,0.0688 0.40773,0.45009 0.24013,1.42223 -0.37244,2.16034 -0.61257,0.73808 -0.88877,1.34201 -0.61377,1.34201 0.27499,0 1.02695,-0.63496 1.671,-1.41097 z m 99.20146,-0.33902 c 1.24387,-1.58607 1.20849,-1.62145 -0.37758,-0.37758 -0.96249,0.75484 -1.74999,1.54236 -1.74999,1.75 0,0.82304 0.82119,0.2933 2.12757,-1.37242 z m 7.37243,-2.25003 c 2.14824,-2.2 3.6809,-4 3.40591,-4 -0.27496,0 -2.25768,1.8 -4.40592,4 -2.14823,2.20003 -3.68089,4.00003 -3.40588,4.00003 0.27496,0 2.25765,-1.8 4.40589,-4.00003 z m -39.90266,-2.09733 c 0.0655,-1.6238 -0.1252,-2.7081 -0.42372,-2.40959 -0.29853,0.29852 -0.60533,1.88031 -0.6818,3.5151 -0.0765,1.6348 0.11424,2.71914 0.42374,2.40963 0.3095,-0.30952 0.61632,-1.89134 0.68178,-3.51514 z m 25.40265,1.70434 c 0,-0.21629 -0.69837,-0.66102 -1.55193,-0.98856 -0.88991,-0.34149 -1.29132,-0.17376 -0.94096,0.39302 0.58725,0.9502 2.49289,1.40545 2.49289,0.59554 z m 6.12758,-1.35701 c 1.24386,-1.58604 1.20849,-1.62142 -0.37755,-0.37754 -0.96251,0.75484 -1.75003,1.54235 -1.75003,1.74999 0,0.82304 0.8212,0.2933 2.12758,-1.37245 z m 15,0 c 1.24387,-1.58604 1.20849,-1.62142 -0.37757,-0.37754 -1.66576,1.30637 -2.19547,2.12754 -1.37242,2.12754 0.20778,0 0.99513,-0.78749 1.74999,-1.75 z m 9.99998,0 c 1.24387,-1.58604 1.20853,-1.62142 -0.37754,-0.37754 -1.66575,1.30637 -2.19549,2.12754 -1.37246,2.12754 0.20778,0 0.99516,-0.78749 1.75,-1.75 z m -124.29422,-0.8947 c -0.18331,-0.44628 -0.92094,-0.89764 -1.63914,-1.00304 -1.02618,-0.15052 -1.0492,0.11764 -0.10749,1.25221 1.19958,1.44541 2.37398,1.27786 1.74664,-0.24917 z m -31.83333,-0.8553 c 0,-0.82499 -0.17686,-1.49997 -0.39301,-1.49997 -0.21617,0 -0.65203,0.67498 -0.96862,1.49997 -0.31658,0.825 -0.13972,1.50001 0.39301,1.50001 0.53274,0 0.96862,-0.67501 0.96862,-1.50001 z m 217.397,0.66669 c 0.28318,-0.45834 -0.12048,-0.83334 -0.897,-0.83334 -0.77661,0 -1.18026,0.375 -0.897,0.83334 0.28319,0.45833 0.68693,0.83332 0.897,0.83332 0.21005,0 0.61373,-0.37499 0.897,-0.83332 z m -113.73033,-1.6227 c 0,-0.80079 -0.38233,-1.21969 -0.84964,-0.9309 -0.46731,0.28883 -0.59076,0.94403 -0.27432,1.45602 0.80862,1.30839 1.12397,1.16107 1.12396,-0.52512 z m 126.33333,0.84838 c 0,-0.82763 -1.94173,-1.29565 -2.38691,-0.57535 -0.28879,0.46732 0.13011,0.84966 0.93089,0.84966 0.80082,0 1.45602,-0.12359 1.45602,-0.27439 z m -263.717682,-2.6958 c -0.930968,-4.87003 6.614032,-6.22468 45.717682,-8.20831 26.55593,-1.34714 107.50583,-2.52297 168,-2.44032 92.25309,0.12615 122.5775,1.62045 123.7485,6.09831 0.65826,2.51723 1.86426,2.33199 4.95779,-0.76155 l 2.61536,-2.61536 -0.65869,-41.13462 c -0.36227,-22.62407 -0.9576,-57.44715 -1.32296,-77.38466 -0.65381,-35.67962 -0.63312,-36.24999 1.31485,-36.24999 4.16971,0 18.71036,-8.65199 22.37908,-13.316 1.16119,-1.47619 2.76942,-2.68401 3.57383,-2.68401 2.19002,0 6.39224,-3.03388 6.39224,-4.615 0,-0.76174 0.84376,-2.22874 1.87501,-3.25999 1.03124,-1.03125 2.04809,-2.39422 2.25961,-3.02883 0.21146,-0.6346 1.72394,-1.25335 3.36092,-1.375 4.11443,-0.30575 12.0168,-8.308116 12.91094,-13.074283 0.41862,-2.231337 1.37199,-3.759188 2.58624,-4.144575 1.05778,-0.335724 3.68935,-2.828568 5.84793,-5.539655 4.54743,-5.7113 5.77074,-11.740178 4.60018,-22.67088 -0.57776,-5.394722 -1.26771,-7.253796 -3.67339,-9.897438 -5.0271,-5.524415 -9.36729,-6.748579 -34.76744,-9.806305 -54.23768,-6.529252 -129.70938,-8.883757 -211.49999,-6.598208 -18.70001,0.522553 -40.52501,1.010265 -48.50001,1.083807 -40.95517,0.377669 -122.352092,5.127208 -145.5,8.489974 -6.049999,0.878901 -13.700002,1.961166 -16.999999,2.405034 -10.984105,1.477421 -23.500004,6.614989 -23.500004,9.646362 0,0.761746 -0.4059776,1.38499 -0.9021738,1.38499 -2.9083351,0 -4.2521017,18.415336 -1.9133659,26.221332 0.8381367,2.797455 3.1424597,5.75524 7.8810887,10.11602 3.683146,3.389456 6.992873,7.135471 7.354944,8.324477 0.362072,1.189004 2.553083,3.734038 4.868912,5.655648 2.315829,1.9216 7.135598,6.27005 10.710598,9.66322 3.574999,3.39318 8.301056,6.97188 10.502348,7.95266 2.201289,0.98079 6.463803,3.88432 9.472247,6.45228 3.462494,2.95553 8.149084,5.66822 12.770305,7.39169 l 7.300403,2.72268 -0.108511,76.23557 c -0.115511,81.14435 -0.339318,77.21802 4.563211,80.04878 1.099995,0.63516 2.050095,1.16853 2.111325,1.18525 0.0612,0.017 -0.08682,-1.00618 -0.32901,-2.2731 z M 240.57161,232.41108 c -6.70289,-2.3701 -16.62051,-15.09916 -16.36009,-20.99786 0.10389,-2.3533 0.22587,-2.51495 0.56581,-0.74999 0.23837,1.23749 0.79748,2.25 1.2425,2.25 0.44502,0 1.35492,1.31763 2.02198,2.92807 1.86719,4.5078 9.55955,11.73779 13.78101,12.95269 l 3.74879,1.07884 -4.25024,-0.38466 c -2.33761,-0.21147 -4.03829,-0.0419 -3.77926,0.37731 0.54065,0.8748 10.11682,2.89537 16.0295,3.3822 2.3472,0.19332 1.31422,0.38066 -2.49999,0.45354 -3.57503,0.0683 -8.30001,-0.51225 -10.50001,-1.29014 z m 18.68284,-0.36371 c -0.83197,-0.52756 0.88721,-1.0656 4.66727,-1.46069 6.4876,-0.67808 16.33688,-4.56106 19.78429,-7.79973 1.60065,-1.50372 2.35001,-1.70799 2.91462,-0.79443 0.51947,0.84055 0.34571,0.97367 -0.54902,0.42071 -0.92131,-0.56942 -1.0694,-0.42131 -0.5,0.49998 0.56939,0.92131 0.42131,1.06939 -0.5,0.5 -0.86619,-0.53533 -1.06764,-0.41842 -0.59551,0.34549 0.42707,0.691 0.0641,1.15452 -0.90451,1.15452 -0.9684,0 -1.33154,0.46352 -0.9045,1.15452 0.47213,0.76391 0.27071,0.88081 -0.59548,0.34549 -0.939,-0.58034 -1.07869,-0.41202 -0.49419,0.59547 0.44816,0.7725 0.46355,1.08789 0.0343,0.70087 -0.42937,-0.38701 -3.41368,0.62549 -6.63182,2.25 -5.84703,2.95157 -12.88877,3.88649 -15.72534,2.0878 z m 17.81716,-1.14154 c 4.77314,-2.23359 11.22956,-7.81214 10.46786,-9.04459 -0.24972,-0.40428 0.21771,-2.63956 1.03893,-4.96726 0.82125,-2.32773 1.5639,-6.31316 1.6503,-8.85648 l 0.15705,-4.62428 0.68578,5.00001 c 0.48705,3.5511 0.73131,1.05199 0.84288,-8.62427 0.16668,-14.44705 -0.75889,-19.14029 -4.92931,-24.99712 -5.21413,-7.32254 -15.6433,-10.37458 -33.22709,-9.72368 -13.02621,0.48219 -19.89238,3.42099 -24.6008,10.5294 -3.3277,5.0239 -3.76075,6.66807 -5.08751,19.31567 l -0.89166,8.49999 0.39594,-10.10281 c 0.24364,-6.21703 1.03536,-11.70085 2.05841,-14.25773 2.23747,-5.59199 10.13376,-12.57332 15.84877,-14.01239 5.75031,-1.44794 28.87892,-1.45224 34.08726,-0.006 6.46175,1.79388 12.2148,6.59067 15.18455,12.66057 2.34383,4.79064 2.70712,6.93429 3.12191,18.42169 0.29458,8.15776 0.0255,14.98348 -0.72215,18.32473 -2.06275,9.21731 -8.88829,16.3755 -17.08121,17.9136 -3.37204,0.63303 -3.3355,0.58008 1.00001,-1.4487 z m -29.73098,-0.68559 c 0.97296,-0.25342 2.32296,-0.23698 3.00001,0.0371 0.67704,0.27383 -0.11905,0.48138 -1.76903,0.461 -1.65,-0.0199 -2.20395,-0.24463 -1.23098,-0.49805 z M 210.0716,285.9968 c 0,-0.27496 -1.93986,1.40383 -4.31081,3.73073 -2.37094,2.32691 -4.69309,3.8831 -5.16032,3.45822 -0.46724,-0.42489 -0.4998,-0.16782 -0.0724,0.57103 0.5806,1.00373 1.88574,0.25541 5.16031,-2.9582 2.41079,-2.366 4.38321,-4.52679 4.38321,-4.80178 z m 5,0 c 0,-0.27496 -1.93986,1.40383 -4.31081,3.73073 -2.37094,2.32691 -4.69309,3.8831 -5.16032,3.45822 -0.46724,-0.42489 -0.49979,-0.16782 -0.0724,0.57103 0.5806,1.00373 1.88574,0.25541 5.16032,-2.9582 2.41078,-2.366 4.38321,-4.52679 4.38321,-4.80178 z m 49.12757,7.16641 c 1.24387,-1.58604 1.20849,-1.62142 -0.37757,-0.37755 -1.66576,1.30638 -2.19547,2.12758 -1.37242,2.12758 0.20778,0 0.99513,-0.78753 1.74999,-1.75003 z m 19.26942,0.91669 c 0.28317,-0.45836 -0.12048,-0.83335 -0.89697,-0.83335 -0.77661,0 -1.18026,0.37499 -0.897,0.83335 0.28318,0.45831 0.68689,0.83334 0.897,0.83334 0.21004,0 0.61373,-0.37503 0.89697,-0.83334 z m -132.94978,-2.2521 c -0.32197,-0.52095 -1.01165,-0.68376 -1.53262,-0.36178 -0.52097,0.32196 -0.68378,1.01163 -0.3618,1.53261 0.32197,0.52098 1.01165,0.68377 1.53262,0.36181 0.52097,-0.32199 0.68378,-1.01166 0.3618,-1.53264 z m 71.87,-0.53033 c -0.29753,-0.77536 -0.15312,-1.98405 0.32091,-2.686 0.47404,-0.70194 -0.34526,0.0913 -1.82064,1.76276 -2.33973,2.65062 -2.76843,2.81611 -3.35478,1.29472 -0.36975,-0.95933 -1.14329,-1.45315 -1.71898,-1.09734 -1.71416,1.05942 1.99135,3.1149 4.68655,2.59971 1.58025,-0.3021 2.23903,-0.95633 1.88694,-1.87385 z m -20.81721,-1.38424 c 0.99549,-1.10001 1.58498,-2.00001 1.30998,-2.00001 -0.27498,0 -1.31449,0.9 -2.30998,2.00001 -0.99548,1.09998 -1.58498,1.99998 -1.30998,1.99998 0.27499,0 1.31449,-0.9 2.30998,-1.99998 z m 192.04054,-2.75496 c -0.5468,-1.42492 -0.78712,-1.4641 -1.53711,-0.25059 -0.55242,0.89382 -0.45122,1.96594 0.2673,2.83161 1.40244,1.68985 2.24873,-0.0303 1.2699,-2.58105 z m -110.14355,1.92163 c 0.28317,-0.45836 -0.12048,-0.83335 -0.89697,-0.83335 -0.77661,0 -1.18026,0.37499 -0.897,0.83335 0.28318,0.45833 0.68689,0.83333 0.897,0.83333 0.21004,0 0.61373,-0.375 0.89697,-0.83333 z m 5,0 c 0.28318,-0.45836 -0.12047,-0.83335 -0.897,-0.83335 -0.7766,0 -1.18023,0.37499 -0.89696,0.83335 0.28317,0.45833 0.68688,0.83333 0.89696,0.83333 0.21005,0 0.61376,-0.375 0.897,-0.83333 z M 138.0716,287.91322 c 0,-0.55001 -0.19845,-1.00001 -0.44098,-1.00001 -0.24253,0 -0.7191,0.45 -1.05902,1.00001 -0.33992,0.55 -0.14148,1 0.44098,1 0.58246,0 1.05902,-0.45 1.05902,-1 z m 328.07501,-180.275 c -0.12359,-1.19571 -1.49527,-0.96414 -1.92501,0.325 -0.21996,0.66 0.14004,1.02 0.80003,0.8 0.65998,-0.21999 1.16623,-0.72625 1.12498,-1.125 z"
     id="path314"
     inkscape:connector-curvature="0" />
</svg>
