<?xml version="1.0" encoding="UTF-8" standalone="no"?>
<svg
   xmlns:dc="http://purl.org/dc/elements/1.1/"
   xmlns:cc="http://creativecommons.org/ns#"
   xmlns:rdf="http://www.w3.org/1999/02/22-rdf-syntax-ns#"
   xmlns:svg="http://www.w3.org/2000/svg"
   xmlns="http://www.w3.org/2000/svg"
   xmlns:sodipodi="http://sodipodi.sourceforge.net/DTD/sodipodi-0.dtd"
   xmlns:inkscape="http://www.inkscape.org/namespaces/inkscape"
   version="1.0"
   width="500.000000pt"
   height="500.000000pt"
   viewBox="0 0 500.000000 500.000000"
   preserveAspectRatio="xMidYMid meet"
   id="svg4082"
   sodipodi:docname="icon.svg"
   inkscape:version="0.92.2 (5c3e80d, 2017-08-06)">
  <defs
     id="defs4086" />
  <sodipodi:namedview
     pagecolor="#ffffff"
     bordercolor="#666666"
     borderopacity="1"
     objecttolerance="10"
     gridtolerance="10"
     guidetolerance="10"
     inkscape:pageopacity="0"
     inkscape:pageshadow="2"
     inkscape:window-width="1299"
     inkscape:window-height="713"
     id="namedview4084"
     showgrid="false"
     inkscape:zoom="0.354"
     inkscape:cx="333.33333"
     inkscape:cy="333.33333"
     inkscape:window-x="67"
     inkscape:window-y="27"
     inkscape:window-maximized="1"
     inkscape:current-layer="svg4082" />
  <metadata
     id="metadata4062">
Created by potrace 1.13, written by Peter Selinger 2001-2015
<rdf:RDF>
  <cc:Work
     rdf:about="">
    <dc:format>image/svg+xml</dc:format>
    <dc:type
       rdf:resource="http://purl.org/dc/dcmitype/StillImage" />
  </cc:Work>
</rdf:RDF>
</metadata>
  <path
     style="opacity:0.97000002;fill:#000000;stroke-width:0.45872846"
     d="m 239.0098,491.50579 c -39.01032,-3.30326 -76.90144,-21.48074 -103.38842,-49.59849 -4.3557,-4.62385 -13.2214,-15.49898 -16.50485,-20.24565 -12.62758,-18.25489 -22.31373,-43.12249 -25.268793,-64.87346 -0.381412,-2.80741 -0.904427,-5.65924 -1.162257,-6.33738 -0.25783,-0.67814 -0.468782,-2.642 -0.468782,-4.36413 0,-2.13977 -0.287292,-3.76428 -0.907382,-5.13083 -0.813862,-1.79359 -0.908421,-3.02954 -0.917457,-11.99177 -0.0074,-7.38903 -0.17331,-10.38275 -0.636673,-11.49174 -0.607568,-1.45411 -0.454384,-16.35016 0.447956,-43.5603 0.14955,-4.50969 -0.01354,-8.95296 -0.486259,-13.24753 -0.391206,-3.55406 -0.711284,-8.61639 -0.711284,-11.24964 0,-2.63324 -0.195511,-5.15303 -0.43447,-5.59953 -0.457386,-0.85463 0.127173,-18.40051 0.964339,-28.94522 0.516937,-6.51118 0.575598,-16.05012 0.138229,-22.47769 -0.277248,-4.07445 0.08287,-7.76043 1.210955,-12.39462 0.216156,-0.88799 0.409641,-10.0012 0.429966,-20.2516 0.03333,-16.80929 0.118452,-18.85543 0.867939,-20.8632 0.675788,-1.81033 0.881828,-4.19658 1.103214,-12.77685 0.226888,-8.79348 0.427356,-11.04736 1.203619,-13.53247 0.78425,-2.51066 0.93195,-4.23374 0.9349,-10.90626 0.003,-6.742632 0.14034,-8.313859 0.92097,-10.534864 0.60545,-1.722615 0.91745,-3.786262 0.91745,-6.068152 0,-3.559935 1.1602,-8.626118 2.43225,-10.620829 0.38273,-0.600155 1.05828,-2.432967 1.50123,-4.072921 0.88039,-3.259505 3.74888,-9.828647 5.16074,-11.818648 0.48976,-0.690312 1.5532,-2.49368 2.3632,-4.007483 0.80999,-1.513804 2.23515,-3.681296 3.16701,-4.816649 0.93186,-1.135353 2.44713,-3.096417 3.36727,-4.35792 2.31045,-3.167635 8.1274,-8.678032 10.36682,-9.820499 1.02047,-0.520607 2.74671,-1.9949 3.83608,-3.276207 1.13519,-1.335193 3.35139,-3.127683 5.19177,-4.199158 1.76611,-1.028231 3.54763,-2.159951 3.95895,-2.514924 2.13001,-1.838239 9.61422,-5.778927 12.08249,-6.361834 3.85485,-0.910364 7.90013,-2.202324 10.33545,-3.300884 4.95688,-2.236024 8.75267,-3.062049 14.22058,-3.094627 2.90146,-0.01728 8.37179,-0.208141 12.1563,-0.424118 5.56911,-0.317823 7.23075,-0.575445 8.71584,-1.35131 2.06932,-1.081082 4.85478,-1.376173 19.64702,-2.081401 5.25525,-0.250546 10.27181,-0.692108 11.14791,-0.981248 1.05088,-0.34682 4.97992,-0.484467 11.54651,-0.404512 5.47448,0.06666 17.15113,0.100487 25.9481,0.07517 8.88665,-0.02557 16.49355,0.143719 17.11749,0.380944 0.61765,0.23483 3.97435,0.426964 7.45932,0.426964 4.59453,0 6.78901,0.189149 7.98315,0.688093 0.90635,0.378696 3.04575,0.691094 4.75799,0.694768 1.71113,0.0037 3.99786,0.315535 5.08163,0.693029 2.56902,0.894839 6.70008,1.230022 14.24297,1.155637 4.13786,-0.0408 6.8878,0.156024 8.48648,0.607427 1.30078,0.367286 3.5004,0.804055 4.88805,0.970597 1.38766,0.166542 3.55515,0.672764 4.81665,1.124939 1.26151,0.452174 3.63543,1.286426 5.27538,1.853894 5.04165,1.744544 6.339,2.257077 9.06569,3.581486 6.22455,3.023387 11.41336,5.800597 12.27144,6.568055 0.50805,0.454384 1.73732,1.166096 2.73172,1.581581 0.9944,0.415488 3.23757,1.715515 4.98483,2.888947 1.74726,1.173437 3.87673,2.603706 4.73216,3.178378 2.31805,1.557241 8.35993,7.79047 10.71082,11.050043 1.13535,1.574195 2.68357,3.664795 3.44047,4.645781 1.45792,1.889549 4.59411,6.639347 5.71716,8.658748 4.01473,7.219004 5.40285,10.095199 6.97671,14.455853 2.21283,6.131011 4.06368,12.69686 3.98619,14.140783 -0.0311,0.578242 0.16525,1.877055 0.43621,2.886254 0.27096,1.009208 0.67581,2.557418 0.89966,3.440468 0.22383,0.88305 0.45102,5.886549 0.50484,11.118899 0.0853,8.29276 0.21171,9.76417 0.98518,11.46822 0.80094,1.76458 0.88829,3.07818 0.89738,13.49638 l 0.0101,11.54153 1.37617,4.21128 1.37619,4.21129 0.0522,31.03748 c 0.0287,17.07062 0.24594,34.75319 0.48276,39.2946 0.23681,4.54141 0.40782,10.32139 0.38001,12.8444 -0.0278,2.523 -0.11178,10.47047 -0.18658,17.66104 -0.33374,32.08011 -0.7644,46.04511 -1.48181,48.04963 -0.55197,1.54231 -0.65478,3.49855 -0.49426,9.40393 0.11148,4.10108 0.0146,10.75936 -0.21518,14.79617 -0.22983,4.03681 -0.60445,11.46821 -0.8325,16.51422 -0.61662,13.64403 -0.6807,14.38563 -1.5658,18.11977 -0.44853,1.89226 -0.97025,4.78225 -1.15937,6.4222 -0.18913,1.63995 -0.5557,3.60102 -0.81459,4.35792 -0.2589,0.7569 -0.79738,2.82118 -1.19665,4.58728 -1.80903,8.00214 -2.31195,9.76318 -3.33962,11.69393 -0.60324,1.13335 -1.09678,2.34459 -1.09678,2.69165 0,0.34706 -1.35773,3.3419 -3.01716,6.65522 -1.65944,3.31329 -3.60407,7.59351 -4.3214,9.51159 -0.71734,1.91808 -2.14641,4.86331 -3.17568,6.54496 -1.0293,1.68165 -1.87143,3.28758 -1.87143,3.56873 0,0.28113 -0.67992,1.15482 -1.51092,1.94151 -0.831,0.78669 -4.20882,5.04283 -7.50626,9.45809 -9.37003,12.54645 -17.17588,20.95257 -27.49798,29.61258 -24.72851,20.74659 -52.37297,32.88022 -83.60648,36.6963 -6.69185,0.81764 -26.23748,1.22961 -32.63494,0.6879 z m 31.88163,-10.47864 c 6.09349,-0.88232 9.13368,-1.42821 13.30312,-2.3886 13.33591,-3.07178 19.57343,-5.17166 31.65226,-10.65588 30.31796,-13.76553 57.12943,-39.90102 72.59839,-70.768 3.46787,-6.91984 6.26242,-13.38805 6.73846,-15.59677 0.16314,-0.7569 0.88773,-2.82118 1.6102,-4.58728 0.72248,-1.76611 1.9575,-5.66665 2.74451,-8.66788 0.78699,-3.00123 1.57125,-5.68388 1.74279,-5.96144 0.39414,-0.63771 0.60259,-1.85189 2.45005,-14.27057 0.61664,-4.14499 1.13351,-15.78528 1.56845,-35.32209 0.1629,-7.31672 0.51156,-14.85133 0.77482,-16.74359 0.58473,-4.20295 0.65312,-9.25408 0.18323,-13.53249 -0.26298,-2.39441 -0.1692,-3.89902 0.36876,-5.91594 0.64212,-2.40745 0.69694,-8.30832 0.49863,-53.67122 -0.12255,-28.03151 -0.33339,-53.13388 -0.46854,-55.78303 -0.74574,-14.61831 -1.12116,-18.10181 -2.31411,-21.47311 -0.99411,-2.8094 -1.13817,-3.81391 -0.88817,-6.19284 0.16413,-1.56172 0.39783,-6.18571 0.51932,-10.27554 0.19404,-6.53143 0.12144,-7.61965 -0.59676,-8.94522 -0.68399,-1.2624 -0.8787,-3.30918 -1.19096,-12.51862 -0.2053,-6.05523 -0.46665,-11.93841 -0.58075,-13.073772 -0.11412,-1.13535 -0.28686,-2.88999 -0.3839,-3.89919 -0.29476,-3.065804 -0.80959,-5.247689 -1.98909,-8.429905 -0.61939,-1.67107 -1.73286,-4.758239 -2.47437,-6.860385 -0.74151,-2.102141 -2.16115,-5.256706 -3.15477,-7.010145 -0.99361,-1.753439 -2.21926,-4.121065 -2.72368,-5.261386 -0.50443,-1.140321 -1.35344,-2.63038 -1.8867,-3.311239 -0.53326,-0.680864 -1.62392,-2.282261 -2.42369,-3.558664 -5.39136,-8.604443 -14.76748,-17.50743 -21.32204,-20.246103 -0.9265,-0.387116 -2.26335,-1.190882 -2.97079,-1.786151 -0.70744,-0.595269 -2.06573,-1.292201 -3.01843,-1.548736 -0.95269,-0.256535 -3.16241,-1.392897 -4.91047,-2.525254 -1.74807,-1.132357 -3.43623,-2.063246 -3.75147,-2.068645 -0.31524,-0.0054 -1.55381,-0.507055 -2.75237,-1.114788 -4.02933,-2.043085 -6.5537,-3.02352 -7.81089,-3.033658 -0.68708,-0.0056 -2.17816,-0.431934 -3.31351,-0.94754 -1.13536,-0.515607 -3.81892,-1.130982 -5.96347,-1.367502 -8.52703,-0.94043 -14.53535,-1.464073 -16.21306,-1.413017 -0.96971,0.0295 -2.62114,-0.1561 -3.66983,-0.412474 -2.67427,-0.653775 -4.31285,-0.840455 -10.85192,-1.236342 -3.15376,-0.190937 -6.04375,-0.553585 -6.4222,-0.805885 -0.37845,-0.252302 -3.99093,-0.634979 -8.02774,-0.850395 -9.43597,-0.503532 -54.80318,-0.658829 -55.82213,-0.191085 -0.42609,0.195594 -5.17392,0.572317 -10.55075,0.837162 -16.3423,0.804968 -18.30771,1.009983 -20.09743,2.096375 -1.35732,0.823918 -2.63394,1.022845 -8.25712,1.286656 -3.65835,0.171628 -8.19977,0.514523 -10.09202,0.761984 -1.89226,0.247461 -5.50474,0.618985 -8.02775,0.82561 -4.40397,0.360662 -5.4411,0.628027 -10.55075,2.71993 -1.26151,0.516464 -3.53221,1.280746 -5.04602,1.698414 -1.5138,0.417668 -3.40331,0.95694 -4.19891,1.198378 -0.7956,0.241442 -2.82724,1.657835 -4.51475,3.147542 -2.01853,1.781916 -3.87771,2.973041 -5.43438,3.481661 -3.71515,1.21386 -4.89643,1.958991 -7.33417,4.626267 -1.25182,1.369685 -2.88122,2.803294 -3.62089,3.185791 -3.45391,1.786087 -6.0436,4.325787 -11.87382,11.644619 -1.4979,1.880355 -6.08289,9.126678 -7.54657,11.926939 -1.27719,2.443482 -2.9549,6.99154 -2.9549,8.010371 0,0.587934 -0.7575,2.664061 -1.68334,4.613611 -1.54354,3.250247 -1.69859,3.949495 -1.86698,8.419405 -0.12895,3.422909 -0.44734,5.514907 -1.06903,7.024087 -0.75842,1.841109 -0.88539,3.293889 -0.88539,10.130959 0,6.82458 -0.13714,8.39937 -0.94602,10.86336 -0.81149,2.47189 -1.00165,4.68451 -1.33714,15.55785 -0.28096,9.10611 -0.59321,13.38667 -1.10873,15.19911 -0.59357,2.08692 -0.7225,5.64079 -0.74588,20.56099 -0.0267,17.03651 -0.0806,18.17785 -0.97086,20.55725 -0.72207,1.92993 -0.86617,3.0222 -0.61597,4.66909 0.55137,3.62921 0.3778,19.65514 -0.29158,26.92112 -0.84313,9.15198 -0.68158,29.89917 0.30183,38.76256 0.57421,5.17534 0.67346,8.99315 0.44722,17.20231 -0.37582,13.63625 -0.37812,32.7696 -0.005,38.23346 0.20637,3.01871 0.55414,4.71565 1.17516,5.73411 1.06788,1.75132 1.14002,4.44032 0.16947,6.31715 -0.56929,1.10089 -0.66313,2.34068 -0.45798,6.05075 0.14191,2.56639 0.4895,5.36755 0.77242,6.22481 0.2836,0.85934 0.39278,2.58545 0.24334,3.84726 -0.22412,1.89239 -0.0812,2.61609 0.82565,4.18009 1.12915,1.94741 1.92629,5.17224 2.56531,10.37794 0.20132,1.63995 0.70454,4.01387 1.11828,5.27537 0.41374,1.26151 1.03519,3.84185 1.38099,5.73411 1.24914,6.83538 8.66468,26.11286 12.88164,33.48717 5.06892,8.86416 6.75023,11.56443 10.20609,16.39154 6.18926,8.64509 10.05451,13.23269 16.8623,20.01361 12.11771,12.06992 23.47954,20.38502 38.04098,27.8401 3.02481,1.54861 6.81999,3.54568 8.43374,4.43787 1.61374,0.89223 4.45705,2.0028 6.31846,2.46795 1.86143,0.46515 4.80747,1.47033 6.54675,2.23369 1.7393,0.76337 3.45899,1.38797 3.82155,1.38797 0.36255,0 3.11472,0.62181 6.11594,1.38183 3.00121,0.75999 8.96602,1.98001 13.25514,2.71113 4.28911,0.73117 8.37949,1.55436 9.08974,1.82932 0.71025,0.27497 2.98096,0.52034 5.04602,0.5453 2.06505,0.0248 4.89,0.20968 6.27765,0.41052 4.03857,0.58455 14.37507,0.18715 21.33087,-0.82008 z m -29.12926,-3.62024 c -4.83135,-0.36124 -15.31075,-2.06638 -20.41341,-3.32161 -48.58068,-11.95047 -85.39056,-48.79332 -97.19696,-97.28405 -2.82195,-11.59015 -3.266,-15.91062 -3.25318,-31.65226 0.0108,-13.21285 0.082,-14.39279 1.28115,-21.20966 5.87252,-33.38492 22.29012,-61.32488 48.15633,-81.95389 29.53689,-23.55648 67.78343,-33.05031 106.40899,-26.4136 21.23528,3.64867 43.42493,14.00437 60.3292,28.15505 24.7348,20.70567 40.67758,48.34601 45.93153,79.6325 7.11884,42.39173 -6.15656,84.72475 -36.09212,115.09171 -21.66058,21.97268 -48.87331,35.1057 -79.92147,38.57048 -5.56424,0.62094 -19.27719,0.83034 -25.23006,0.38533 z m 28.79121,-8.80543 c 34.78686,-5.49744 64.65103,-24.09866 84.29765,-52.50554 1.77287,-2.56338 3.80567,-5.69283 4.51733,-6.95433 l 1.29393,-2.29364 -0.31553,-9.86266 c -0.17353,-5.42447 -0.31909,-12.28819 -0.32345,-15.25273 -0.005,-2.96561 -0.19758,-5.39005 -0.42956,-5.39005 -0.24303,0 -0.36786,-2.86608 -0.29468,-6.76625 l 0.12694,-6.76624 8.25712,-0.22937 8.25711,-0.22936 0.28839,-2.52301 c 1.10858,-9.69871 0.75373,-28.79802 -0.58169,-31.30821 -0.38029,-0.71485 -1.25593,-0.80278 -7.99435,-0.80278 -6.49071,0 -7.60706,-0.10366 -7.8469,-0.7287 -0.1538,-0.40078 -0.0109,-10.17457 0.31751,-21.71953 l 0.59714,-20.99083 -1.42532,-2.4912 c -2.09077,-3.65431 -8.44302,-12.45838 -12.09967,-16.7699 -7.16824,-8.45197 -17.18256,-17.23161 -26.99062,-23.66287 -5.19397,-3.40576 -17.12537,-9.53623 -22.87586,-11.75386 -7.9503,-3.06596 -18.69273,-5.87457 -28.50172,-7.45178 -5.30541,-0.85306 -26.7118,-0.85415 -32.34036,-0.002 -27.95115,4.23354 -52.13853,16.26825 -71.57756,35.61422 -7.09723,7.06326 -13.91059,15.73474 -18.56348,23.62605 l -1.38204,2.34394 0.003,14.07998 c 9.7e-4,7.74399 0.12836,17.45369 0.28174,21.57707 0.20148,5.41668 0.13086,7.64434 -0.25449,8.02776 -0.36568,0.36382 -2.89402,0.51093 -8.04248,0.46794 l -7.50912,-0.0627 -0.37831,3.50317 c -0.49393,4.57374 -0.48872,25.2061 0.007,28.68664 l 0.38556,2.70574 7.96414,-0.25734 7.96414,-0.25734 0.29592,1.97336 c 0.3462,2.30863 -0.0791,36.2312 -0.50912,40.60821 l -0.29295,2.98173 3.99753,5.95038 c 4.47443,6.66024 5.87854,8.4972 10.52535,13.76997 20.14084,22.85401 47.38047,37.33987 78.11262,41.53976 8.59654,1.17485 24.188,0.9747 33.03904,-0.42405 z M 189.0084,363.51042 c -3.42241,-0.44241 -7.60157,-2.45168 -10.16221,-4.88583 -3.42671,-3.25744 -5.17104,-8.45118 -4.88372,-14.54129 0.2286,-4.8456 1.39057,-7.66937 4.5795,-11.12896 2.48891,-2.70014 4.40969,-3.82081 8.29873,-4.84185 4.13343,-1.08519 6.21317,-1.07528 10.14232,0.0484 4.80175,1.37317 8.96054,4.60267 10.9556,8.50752 1.12688,2.20559 1.82744,6.71909 1.64741,10.6137 -0.1961,4.24241 -1.72944,7.85783 -4.69879,11.0792 -2.13831,2.31979 -4.3365,3.54186 -8.52588,4.73992 -3.17013,0.90657 -3.40462,0.91962 -7.35296,0.40923 z m 119.73924,-0.25861 c -8.93934,-2.51017 -13.82457,-9.87849 -13.20872,-19.92255 0.27587,-4.49927 1.58791,-7.25742 5.14739,-10.82082 3.22933,-3.2329 6.66212,-4.76056 11.32548,-5.04009 7.90816,-0.47404 14.51015,3.11607 17.85263,9.70812 1.51583,2.98952 1.57747,3.30842 1.5369,7.9518 -0.0484,5.53655 -0.75675,8.07053 -3.21131,11.48709 -1.73751,2.41848 -3.58065,3.93296 -6.37973,5.2421 -1.0092,0.47202 -2.20477,1.04139 -2.65681,1.26527 -1.59739,0.79115 -7.77514,0.86777 -10.40583,0.12908 z M 297.26831,116.84357 c -7.36337,-1.23573 -15.43556,-7.2712 -18.71878,-13.99579 -2.71518,-5.56113 -3.43773,-12.931767 -1.85717,-18.944629 1.68889,-6.424959 7.45536,-13.437485 13.35294,-16.238321 6.9505,-3.30088 15.4733,-3.633591 22.1016,-0.862789 3.12377,1.305816 7.59779,4.494681 9.66454,6.888417 2.17313,2.516947 5.01367,8.156765 5.67492,11.267411 0.73692,3.466582 0.63849,9.351127 -0.21143,12.640921 -3.01286,11.66189 -13.50263,19.71461 -25.40103,19.49971 -1.90232,-0.0344 -3.97484,-0.14909 -4.60559,-0.25493 z m 12.29885,-3.18222 c 9.10489,-2.98611 16.60104,-13.1473 16.60104,-22.503067 0,-5.238787 -2.88929,-12.347608 -6.5606,-16.141673 -6.35462,-6.56711 -14.74898,-9.271397 -22.99767,-7.408817 -2.91965,0.659261 -8.7299,3.715718 -10.89035,5.72882 -2.34126,2.181575 -5.30454,6.672554 -6.45741,9.786493 -1.36414,3.684585 -1.43705,12.128392 -0.13347,15.459354 2.21882,5.66968 5.84673,10.10533 10.57059,12.92413 6.48941,3.87232 12.60768,4.53586 19.86787,2.15476 z m -12.23203,-8.20149 c -2.89845,-0.81454 -4.25521,-1.71583 -6.8965,-4.5813 -2.89617,-3.14197 -3.44592,-4.74097 -3.47058,-10.094482 -0.0238,-5.162189 0.70197,-7.385759 3.42159,-10.483238 1.13908,-1.297343 1.80445,-1.686698 2.70391,-1.582246 1.85468,0.215382 1.87025,2.259715 0.0331,4.352065 -5.52639,6.29421 -3.70835,14.961701 3.89253,18.557561 3.33132,1.576 5.72547,1.67071 9.06263,0.35851 3.49927,-1.37595 5.0223,-2.7115 6.56563,-5.75744 2.32093,-4.580634 1.54727,-9.269386 -2.28,-13.817831 -1.29055,-1.533731 -1.45679,-2.398182 -0.62176,-3.23321 1.15536,-1.155362 2.5477,-0.597861 4.22982,1.693644 2.61112,3.557046 3.15627,5.270241 3.17141,9.966418 0.0117,3.63042 -0.15021,4.517392 -1.22612,6.716479 -1.43893,2.94105 -4.5648,6.00757 -7.40413,7.26354 -2.73258,1.20875 -8.07294,1.51514 -11.18158,0.64153 z m 3.47116,-18.859731 c -0.17978,-0.179783 -0.32688,-3.505185 -0.32688,-7.389783 v -7.062899 l 1.49087,0.143747 1.49087,0.143747 v 7.110291 7.110292 l -1.16399,0.135742 c -0.6402,0.07462 -1.31109,-0.01132 -1.49087,-0.191137 z m 1.38176,-7.161363 c -0.10209,-0.824496 -0.18773,-0.260517 -0.19031,1.253287 -0.003,1.513804 0.081,2.188391 0.18563,1.499083 0.10467,-0.689308 0.10677,-1.927875 0.005,-2.75237 z m -0.0145,-4.357407 c -0.11631,-0.446329 -0.21912,-0.192221 -0.22847,0.564681 -0.009,0.756902 0.0858,1.122078 0.21147,0.811505 0.12566,-0.310573 0.1333,-0.929857 0.017,-1.376186 z"
     id="path334"
     inkscape:connector-curvature="0" />
</svg>
