<?xml version="1.0" standalone="no"?>
<!DOCTYPE svg PUBLIC "-//W3C//DTD SVG 20010904//EN"
 "http://www.w3.org/TR/2001/REC-SVG-20010904/DTD/svg10.dtd">
<svg version="1.0" xmlns="http://www.w3.org/2000/svg"
 width="250.000000pt" height="100.000000pt" viewBox="0 0 250.000000 100.000000"
 preserveAspectRatio="xMidYMid meet">
<metadata>
Created by potrace 1.13, written by Peter Selinger 2001-2015
</metadata>
<g transform="translate(0.000000,100.000000) scale(0.100000,-0.100000)"
fill="#000000" stroke="none">
<path d="M1740 756 l0 -55 -37 -3 c-35 -3 -38 -6 -41 -35 -3 -30 -1 -32 35
-35 l38 -3 3 -162 c2 -161 3 -162 29 -182 29 -24 68 -26 124 -9 33 9 39 15 39
40 0 27 -2 28 -50 28 l-50 0 0 145 0 145 50 0 50 0 0 35 0 35 -49 0 -50 0 -3
53 -3 52 -42 3 -43 3 0 -55z"/>
<path d="M140 660 l0 -39 104 -3 104 -3 -114 -154 c-78 -103 -114 -161 -112
-175 3 -20 7 -21 173 -21 l170 0 3 37 3 37 -116 3 -116 3 115 154 c71 94 116
164 116 178 l0 23 -165 0 -165 0 0 -40z"/>
<path d="M562 483 l3 -218 38 -3 37 -3 0 220 0 221 -40 0 -40 0 2 -217z"/>
<path d="M765 687 c-3 -7 -4 -131 -3 -277 l3 -265 40 0 40 0 3 82 3 82 46 -24
c50 -27 104 -32 166 -14 56 15 69 44 75 159 7 142 -3 207 -38 242 -26 26 -35
28 -103 28 -62 0 -80 -4 -111 -25 l-36 -24 0 24 c0 22 -4 25 -40 25 -24 0 -43
-5 -45 -13z m278 -76 c15 -15 12 -237 -3 -256 -15 -18 -111 -21 -159 -4 l-31
11 0 118 c0 80 4 121 12 126 37 23 159 27 181 5z"/>
<path d="M1281 683 c-16 -13 -25 -33 -28 -66 l-6 -47 40 0 c34 0 40 4 50 30
11 29 13 30 82 30 80 0 91 -9 91 -78 l0 -40 -104 0 c-151 1 -182 -25 -174
-145 6 -86 26 -102 127 -102 66 0 84 4 110 22 37 28 39 28 43 1 2 -19 9 -23
38 -23 l35 0 3 191 c3 249 11 238 -160 242 -109 3 -127 1 -147 -15z m229 -276
c0 -55 -22 -67 -119 -67 -54 0 -70 4 -75 16 -9 23 -7 53 4 75 9 17 22 19 100
19 l90 0 0 -43z"/>
<path d="M2061 684 c-39 -28 -51 -73 -51 -196 0 -205 15 -223 185 -223 73 0
118 5 133 13 40 23 52 70 52 208 0 139 -12 183 -56 203 -40 18 -235 14 -263
-5z m233 -95 c9 -49 7 -195 -4 -223 -9 -25 -12 -26 -95 -26 -72 0 -87 3 -93
18 -9 22 -9 222 0 245 6 14 21 17 96 17 l90 0 6 -31z"/>
</g>
</svg>
