<?xml version="1.0" encoding="utf-8"?>
<!-- Generator: Adobe Illustrator 25.2.1, SVG Export Plug-In . SVG Version: 6.00 Build 0)  -->
<svg version="1.1" id="Laag_1" xmlns="http://www.w3.org/2000/svg" xmlns:xlink="http://www.w3.org/1999/xlink" x="0px" y="0px"
	 viewBox="0 0 1080 1080" style="enable-background:new 0 0 1080 1080;" xml:space="preserve">
<style type="text/css">
	.st0{fill:#1D1D1B;}
</style>
<g>
	<path d="M550.85,107.01c-235.88,0-427.8,191.91-427.8,427.8s191.91,427.8,427.8,427.8s427.8-191.91,427.8-427.8
		S786.74,107.01,550.85,107.01z M550.85,953.11c-230.67,0-418.29-187.63-418.29-418.29s187.63-418.29,418.29-418.29
		s418.29,187.63,418.29,418.29C969.24,765.48,781.52,953.11,550.85,953.11z"/>
	<path d="M550.85,337.68c-108.63,0-197.13,88.41-197.13,197.13s88.41,197.13,197.13,197.13s197.13-88.41,197.13-197.13
		S659.57,337.68,550.85,337.68z M550.85,727.1c-106.02,0-192.38-86.27-192.38-192.38c0-106.02,86.27-192.38,192.38-192.38
		s192.38,86.27,192.38,192.38S656.97,727.1,550.85,727.1z"/>
	<circle cx="550.85" cy="845.69" r="10.34"/>
	<path d="M550.85,824.45c-11.74,0-21.24,9.5-21.24,21.24c0,11.74,9.5,21.24,21.24,21.24c11.74,0,21.24-9.5,21.24-21.24
		C572.1,833.95,562.59,824.45,550.85,824.45z M550.85,862.18c-9.13,0-16.49-7.36-16.49-16.49s7.36-16.49,16.49-16.49
		c9.13,0,16.49,7.36,16.49,16.49C567.34,854.73,559.98,862.18,550.85,862.18z"/>
	<path d="M1032.52,335.04c-25.86-62.38-64.01-119.67-113.21-168.87c-8.66-8.66-17.61-16.96-26.74-24.97
		c2.42-27.02-48.91-67.54-102.38-94.37C734.57,18.88,668.8,2.02,651.38,23.17c-32.61-6.43-66.33-9.69-100.52-9.69
		c-139.18,0-270.08,54.22-368.55,152.69C107.22,241.26,57.84,335.17,38.65,437.36c-23.38,13.42-32.33,76.58-28.88,134.9
		c3.54,61.3,21.43,125.86,47.89,131.82C83,778.33,125.2,846.34,182.31,903.36c98.47,98.47,229.36,152.69,368.64,152.69
		c59.34,0,117.1-9.88,171.6-28.79c4.75,3.26,11.18,4.66,18.82,4.66c28.6,0,74.62-20.5,113.84-46.3
		c52.54-34.56,100.61-83.85,89.53-109.28c42.48-48.82,74.99-104.25,96.52-163.87c13.95-39.11,30.78-100.76,30.74-177.66
		C1071.95,439.68,1046.11,367.83,1032.52,335.04z M786.18,55.31c52.64,26.46,86.45,56.46,95.02,75.46
		C818.04,79.16,743.33,43.01,664.05,25.59C681.56,18.14,729.82,26.99,786.18,55.31z M19.18,571.7
		c-3.35-57.11,5.12-100.43,16.77-118.41c-4.19,26.74-6.34,53.94-6.34,81.52c0,53.94,8.2,106.67,23.85,156.7
		C38.56,678.65,22.82,633.19,19.18,571.7z M849.9,977.7c-49.19,32.42-92.14,46.58-112.82,44.62
		c76.21-28.97,144.87-75.55,199.64-135.55C934.4,905.69,902.63,943.04,849.9,977.7z M550.85,1034.81
		c-275.66-0.09-499.9-224.33-499.9-500c0-275.76,224.24-500,499.9-500s500,224.24,500,500S826.61,1034.81,550.85,1034.81z"/>
</g>
<g>
	<path class="st0" d="M467.45,517.2h-9.44v48.99h9.44V517.2z M421.18,557.76l26.77-35.48v-5.08h-37.57v8.44h24.87l-26.31,34.92v5.63
		h38.47v-8.43H421.18z M457.38,510.12h10.71v-10.16h-10.71V510.12z M514,541.69c0,10.98-0.37,13.61-1.72,14.97
		c-0.82,0.82-2,1.18-4.99,1.18h-7.08c-3.09,0-5.71-0.91-9.52-2.9v-26.67c3.63-1.81,6.17-2.72,9.17-2.72h7.44
		c2.99,0,4.17,0.37,4.99,1.18C513.63,528.08,514,530.72,514,541.69 M519.54,563.28c2.63-2.63,3.89-6.35,3.89-21.59
		c0-15.24-1.26-18.96-3.89-21.59c-2.09-2.09-4.73-2.99-9.98-2.99h-6.64c-4.08,0-6.07,0.9-12.24,5.98v-5.9h-9.43v62.6h9.43v-19.42
		c6.17,4.99,8.17,5.89,12.24,5.89h6.64C514.81,566.27,517.45,565.37,519.54,563.28 M565.17,555.21c-4.53,2.45-6.72,2.99-10.33,2.99
		h-7c-2.17,0-3.17-0.09-3.81-0.72c-0.74-0.72-0.91-2.36-0.91-5.99c0-3.18,0.28-4.26,1.18-5.17c0.8-0.81,2-1.27,8.16-1.27h12.71
		V555.21z M565.17,566.19h9.35v-33.02c0-8.71-0.55-11.07-2.82-13.34c-1.63-1.64-4-2.63-9.53-2.63h-15.34
		c-4.17,0-6.26,0.82-8.16,2.72c-1.91,1.91-2.72,4.35-2.89,12.16h9.43c0.17-3.72,0.36-5.35,1.09-6.08c0.63-0.63,1.63-0.82,3.89-0.82
		h9.62c2.63,0,3.63,0.18,4.26,0.82c0.73,0.73,1.1,2.18,1.1,7.89v5.44c-2.9-0.91-7.25-1.36-12.07-1.36
		c-11.89,0-14.06,1.36-16.24,3.54c-1.91,1.91-3,5.72-3,11.52c0,6.18,1.18,8.98,2.9,10.71c1.99,2,4.35,2.54,8.8,2.54h7.62
		c4.35,0,6.08-1.17,11.98-6.08V566.19z M601.01,525.45h11.7v-8.25h-11.7v-12.15h-9.53v12.15h-8.52v8.25h8.52v31.21
		c0,3.9,0.46,5.99,2.09,7.62c1.73,1.73,3.99,2.27,7.35,2.27c2.36,0,4.8-0.37,6.16-0.73l5.54-1.64v-6.35h-7.45
		c-2.26,0-3.18-0.08-3.54-0.45c-0.45-0.45-0.63-1.09-0.63-3.36V525.45z M654.46,541.69c0,12.52-0.46,14.24-1.36,15.15
		c-0.64,0.64-1.36,0.92-4.17,0.92h-12.07c-2.81,0-3.53-0.28-4.17-0.92c-0.91-0.91-1.37-2.63-1.37-15.15
		c0-12.52,0.46-14.24,1.37-15.15c0.63-0.63,1.36-0.9,4.17-0.9h12.07c2.81,0,3.53,0.27,4.17,0.9
		C654,527.45,654.46,529.17,654.46,541.69 M663.89,541.69c0-14.7-0.91-18.51-4.09-21.68c-2-2-4.9-2.82-9.7-2.82h-14.42
		c-4.81,0-7.71,0.82-9.71,2.82c-3.17,3.17-4.08,6.98-4.08,21.68c0,14.7,0.91,18.51,4.08,21.68c2,2,4.9,2.81,9.71,2.81h14.42
		c4.81,0,7.71-0.82,9.7-2.81C662.98,560.2,663.89,556.39,663.89,541.69 M667.12,506.64c0,0.57-0.27,0.75-0.91,0.77l-0.96,0.04v-1.57
		h0.97C666.87,505.87,667.12,506.07,667.12,506.64 M668.4,510.27c0.07,0,0.12-0.05,0.12-0.14l-0.05-0.98
		c-0.04-0.57-0.19-0.88-0.47-1.04c-0.2-0.12-0.46-0.15-0.8-0.17v-0.21c0.92-0.11,1.22-0.5,1.22-1.26c0-1.13-0.7-1.48-1.82-1.48
		h-2.45c-0.1,0-0.16,0.06-0.16,0.15v5.01c0,0.06,0.04,0.14,0.13,0.14h0.99c0.08,0,0.14-0.06,0.14-0.14v-1.91l0.83,0.04
		c0.56,0.03,1.04,0.09,1.07,0.63l0.07,1.27c0.01,0.06,0.06,0.11,0.13,0.11H668.4z M670.09,507.65c0,1.4-0.19,2.37-0.86,2.98
		c-0.59,0.53-1.56,0.76-3.12,0.76c-1.61,0-2.58-0.24-3.17-0.82c-0.62-0.61-0.8-1.55-0.8-2.9c0-1.35,0.18-2.29,0.8-2.9
		c0.59-0.58,1.56-0.86,3.17-0.86c1.56,0,2.53,0.25,3.12,0.79C669.89,505.31,670.09,506.27,670.09,507.65 M671.26,507.67
		c0-3.18-1.1-4.75-5.14-4.75c-4.03,0-5.14,1.57-5.14,4.75c0,3.18,1.1,4.72,5.14,4.72C670.15,512.39,671.26,510.85,671.26,507.67"/>
</g>
</svg>
