<?xml version="1.0" encoding="UTF-8" standalone="no"?>
<svg
   xmlns:dc="http://purl.org/dc/elements/1.1/"
   xmlns:cc="http://creativecommons.org/ns#"
   xmlns:rdf="http://www.w3.org/1999/02/22-rdf-syntax-ns#"
   xmlns:svg="http://www.w3.org/2000/svg"
   xmlns="http://www.w3.org/2000/svg"
   xmlns:sodipodi="http://sodipodi.sourceforge.net/DTD/sodipodi-0.dtd"
   xmlns:inkscape="http://www.inkscape.org/namespaces/inkscape"
   version="1.0"
   width="500.000000pt"
   height="500.000000pt"
   viewBox="0 0 500.000000 500.000000"
   preserveAspectRatio="xMidYMid meet"
   id="svg4082"
   sodipodi:docname="icon.svg"
   inkscape:version="0.92.1 r15371">
  <defs
     id="defs4086" />
  <sodipodi:namedview
     pagecolor="#ffffff"
     bordercolor="#666666"
     borderopacity="1"
     objecttolerance="10"
     gridtolerance="10"
     guidetolerance="10"
     inkscape:pageopacity="0"
     inkscape:pageshadow="2"
     inkscape:window-width="851"
     inkscape:window-height="565"
     id="namedview4084"
     showgrid="false"
     inkscape:zoom="0.354"
     inkscape:cx="926.37836"
     inkscape:cy="333.33333"
     inkscape:window-x="157"
     inkscape:window-y="112"
     inkscape:window-maximized="0"
     inkscape:current-layer="svg4082" />
  <metadata
     id="metadata4062">
Created by potrace 1.13, written by Peter Selinger 2001-2015
<rdf:RDF>
  <cc:Work
     rdf:about="">
    <dc:format>image/svg+xml</dc:format>
    <dc:type
       rdf:resource="http://purl.org/dc/dcmitype/StillImage" />
    <dc:title />
  </cc:Work>
</rdf:RDF>
</metadata>
  <path
     style="fill:#000000;stroke-width:0.91981226"
     d="m 306.55998,12.85859 c 15.73711,1.40164 44.11198,7.57672 71.28544,15.51352 9.86499,2.88134 18.82646,5.19429 19.91437,5.1399 1.08792,-0.0544 2.22584,0.54687 2.52873,1.33617 0.40877,1.06525 1.26202,1.27885 3.31089,0.82884 2.01232,-0.44197 2.76019,-0.26693 2.76019,0.64605 0,1.2994 13.95895,7.52658 20.92573,9.3351 2.15006,0.55813 3.9092,1.32864 3.9092,1.71223 0,0.91517 10.57473,6.2428 12.39124,6.2428 0.77327,0 1.40595,0.33522 1.40595,0.74494 0,0.6643 17.66204,12.13242 18.68514,12.13242 0.22797,0 2.13705,1.72257 4.24241,3.82793 11.32394,11.32393 12.94512,15.73346 12.94512,35.20991 0,11.48443 -0.30565,14.92412 -1.57543,17.72936 -2.62986,5.80999 -10.99379,15.59383 -19.55632,22.87633 -6.26105,5.32507 -8.0022,7.30759 -7.63869,8.69763 0.28129,1.07564 0.01,1.80043 -0.67474,1.80043 -2.04682,0 -7.84077,5.93533 -7.50351,7.6866 0.2272,1.17974 -0.1675,1.57233 -1.3751,1.36774 -0.93158,-0.15782 -3.19004,0.6378 -5.01882,1.76805 -1.82877,1.13024 -3.82502,2.05499 -4.4361,2.05499 -0.61109,0 -3.56312,1.88681 -6.56007,4.19291 -6.3632,4.89637 -5.96738,2.14024 -4.11871,28.67914 0.73166,10.50353 1.98378,29.23826 2.78249,41.63273 0.79872,12.39447 1.89787,28.82098 2.44258,36.50334 0.85325,12.03412 0.79936,14.24064 -0.38926,15.93762 -0.99732,1.42388 -1.16815,2.77844 -0.61647,4.88822 0.75356,2.88185 2.57344,43.6939 4.70343,105.47758 l 1.09401,31.73352 -1.9858,3.85592 c -5.67334,11.01618 -30.98015,21.40596 -88.00523,36.13079 -20.30553,5.24323 -48.69391,9.28256 -68.0661,9.685 -17.32423,0.3599 -17.05798,0.15654 1.83963,-1.4051 21.38353,-1.76708 48.6151,-6.04699 64.38685,-10.11952 46.15113,-11.917 70.90636,-20.86585 83.02154,-30.01175 1.64884,-1.24472 3.88385,-3.9983 4.9667,-6.11905 1.96179,-3.84218 1.96494,-3.96243 0.88383,-33.74981 -2.67585,-73.72639 -3.85893,-99.24137 -4.82906,-104.1458 -0.8899,-4.49888 -0.82413,-5.59794 0.45152,-7.54482 1.30451,-1.99094 1.38272,-3.76607 0.61898,-14.05008 -0.48081,-6.47417 -1.5333,-22.11911 -2.33887,-34.76653 -0.80557,-12.64742 -2.06453,-31.5891 -2.79769,-42.09264 -2.08546,-29.87741 -2.45141,-27.36466 4.78295,-32.84122 3.36377,-2.54643 6.80525,-4.62989 7.64772,-4.62989 2.10426,0 14.55005,-10.61437 14.91511,-12.72032 0.16242,-0.9369 4.11926,-4.87906 8.79299,-8.76037 9.51297,-7.90005 17.83977,-17.42301 20.52816,-23.47708 2.5818,-5.81402 2.58896,-26.39389 0.0117,-33.72657 C 475.48613,83.05116 471.4842,77.18372 467.06718,73.1382 462.79626,69.22649 445.85672,58.35471 436.72061,53.66182 399.43535,34.50969 345.53009,19.20441 295.98211,13.70205 l -11.49765,-1.27683 9.19812,0.0528 c 5.05897,0.0291 10.85379,0.20029 12.87737,0.38053 z m -77.26423,-0.18881 c -1.01179,0.18928 -6.39269,0.81744 -11.95756,1.39591 -17.67942,1.83782 -40.31054,5.82348 -42.39599,7.46655 -0.55244,0.43526 -1.23855,0.55727 -1.52468,0.27115 -0.28613,-0.28613 -5.21503,0.78953 -10.95311,2.39034 -5.73808,1.60082 -11.18169,3.06121 -12.09691,3.24531 -3.42567,0.68909 -42.88929,13.66175 -53.0648,17.4437 -5.81781,2.16232 -13.96718,5.58861 -18.1097,7.61398 -4.14252,2.02537 -7.76428,3.45007 -8.04835,3.16599 -0.28408,-0.28407 -0.51651,-0.0925 -0.51651,0.42566 0,0.51818 -2.27653,1.92488 -5.05896,3.126 -2.78244,1.20112 -5.05897,2.42454 -5.05897,2.71871 0,0.29418 -1.44871,1.1033 -3.21934,1.79804 -1.77064,0.69475 -3.21935,1.59983 -3.21935,2.01131 0,0.41147 -0.57019,0.74813 -1.26709,0.74813 -0.6969,0 -1.79068,0.63087 -2.43061,1.40195 -0.63993,0.77107 -1.37403,1.19142 -1.63134,0.93411 -0.25732,-0.25731 -1.05686,0.25008 -1.77676,1.12753 -0.81863,0.99778 -1.05961,1.07856 -0.64333,0.21566 0.36608,-0.75885 -0.68351,-0.0382 -2.33243,1.60147 -1.64892,1.63964 -3.33813,2.77099 -3.7538,2.51409 -0.41568,-0.2569 -1.40496,0.45977 -2.19842,1.59259 -0.79346,1.13283 -1.44265,1.71659 -1.44265,1.29728 0,-0.41933 -2.57443,1.8686 -5.72095,5.08425 -3.14653,3.21567 -5.59466,6.00734 -5.44031,6.20373 0.15434,0.19638 -0.27211,0.69868 -0.94769,1.11621 -0.67559,0.41753 -1.25549,1.08468 -1.28869,1.48256 -0.0332,0.39788 -0.75754,2.9716 -1.60967,5.71937 -1.90842,6.15395 -1.95179,12.61808 -0.16089,23.97813 0.75767,4.80601 1.47958,9.56604 1.60424,10.57784 0.12467,1.01179 0.55785,2.08382 0.96261,2.38229 0.40478,0.29846 0.80329,1.43673 0.88561,2.52949 0.0823,1.09273 0.4755,1.9868 0.87373,1.9868 0.39824,0 0.72407,0.49943 0.72407,1.10984 0,1.37404 6.47468,7.12667 8.04836,7.15083 0.63237,0.01 1.14977,0.42569 1.14977,0.9244 0,0.49872 1.75914,2.05091 3.9092,3.4493 2.15006,1.3984 4.61978,3.37036 5.48827,4.38216 0.86849,1.01179 1.59284,1.59502 1.60967,1.29605 0.0168,-0.29897 1.9744,1.24102 4.35015,3.4222 2.37576,2.18118 4.45639,3.82894 4.62364,3.66169 0.16725,-0.16725 2.03407,1.27727 4.14847,3.21002 2.11441,1.93277 4.03233,3.32618 4.26204,3.09648 0.2297,-0.22971 0.99563,0.40755 1.70206,1.41612 0.70644,1.00858 1.78227,1.83378 2.39073,1.83378 0.60847,0 1.64846,0.86813 2.31111,1.92919 0.66264,1.06106 1.44943,1.68456 1.74842,1.38557 0.299,-0.29899 1.12162,0.28157 1.82805,1.29015 0.70644,1.00857 1.67487,1.83377 2.15208,1.83377 0.47722,0 1.74022,0.87256 2.80668,1.93902 l 1.93902,1.93902 -0.47611,58.07872 c -0.31399,38.30224 -0.15378,59.41094 0.47051,61.9911 0.67924,2.80735 0.65466,4.26415 -0.087,5.15785 -0.7547,0.90936 -0.89088,18.96695 -0.50462,66.91317 0.58916,73.13039 0.4979,72.07936 6.70315,77.19425 6.35879,5.24147 38.00126,16.85021 64.98075,23.83963 13.12074,3.39912 39.39049,7.74967 61.16751,10.13 14.55148,1.59054 14.7579,1.75062 1.83962,1.42664 -11.30223,-0.28345 -20.74357,-1.4417 -45.99061,-5.64204 -26.73149,-4.44732 -76.19669,-21.10237 -84.05969,-28.30312 -5.95399,-5.45252 -5.79141,-3.61031 -6.66534,-75.52491 -0.82762,-68.1029 -0.81239,-70.06348 0.557,-71.71349 0.50878,-0.61305 0.50401,-1.54622 -0.012,-2.36224 -0.50134,-0.79266 -0.85892,-26.02579 -0.8672,-61.19332 L 77.98674,183.65328 60.74026,170.18093 C 24.09818,141.55742 25.351,142.62688 23.04881,138.00596 c -1.1972,-2.403 -2.57122,-4.3691 -3.05339,-4.3691 -0.48217,0 -0.87667,-0.62088 -0.87667,-1.37972 0,-0.75885 0.38503,-1.37972 0.8556,-1.37972 0.52466,0 0.51912,-1.1563 -0.0144,-2.98939 -0.97625,-3.35476 -1.05315,-37.72129 -0.0831,-37.12334 0.34183,0.21069 2.27717,-2.05043 4.30076,-5.02472 2.02359,-2.97429 4.17608,-5.4178 4.78331,-5.43001 0.60723,-0.0122 1.43506,-0.57022 1.83962,-1.24001 0.40456,-0.66979 2.03126,-2.15971 3.61489,-3.31095 2.07409,-1.50777 2.74399,-2.61068 2.39539,-3.9437 -0.42783,-1.63606 -0.16553,-1.78063 2.26304,-1.24723 1.96849,0.43236 3.09796,0.18041 3.98551,-0.88903 0.6812,-0.8208 3.2501,-2.51169 5.70866,-3.75753 2.45856,-1.24585 4.70189,-2.86923 4.9852,-3.6075 0.28327,-0.73827 1.29861,-1.34232 2.25628,-1.34232 0.99037,0 1.74121,-0.64122 1.74121,-1.487 0,-1.0006 0.5636,-1.33961 1.72302,-1.03642 1.32518,0.34654 1.61898,0.0527 1.27244,-1.27244 -0.48233,-1.8444 2.09409,-2.55106 2.6978,-0.73993 0.19407,0.58221 2.29464,-0.072 5.15143,-1.6044 2.65306,-1.42312 4.40271,-2.72782 3.88812,-2.89935 -0.5146,-0.17154 -0.93562,-0.89826 -0.93562,-1.61494 0,-1.87691 3.4644,-1.60901 3.965,0.3066 0.31656,1.21131 0.44707,1.09749 0.52736,-0.45991 0.10404,-2.01808 2.86613,-3.0738 2.86613,-1.09548 0,0.53576 -0.47787,0.67876 -1.06193,0.31779 -0.7019,-0.4338 -0.81022,-0.24904 -0.3195,0.54496 0.60178,0.97371 0.93364,0.9519 1.75179,-0.1151 0.55515,-0.72401 3.3332,-2.09508 6.17346,-3.04683 4.17113,-1.39772 5.07903,-2.05571 4.72173,-3.42203 -0.50695,-1.93858 2.04197,-2.41236 2.9149,-0.54181 0.4176,0.89487 0.65335,0.90133 1.0634,0.0292 0.28977,-0.61635 2.04891,-1.38023 3.9092,-1.6975 4.53697,-0.77378 18.87053,-5.95306 19.60265,-7.08321 0.32091,-0.49539 1.14828,-0.71244 1.8386,-0.48233 0.69033,0.23011 3.73908,-0.35235 6.77502,-1.29436 42.9238,-13.31865 69.30209,-18.93465 91.98223,-19.58323 7.08256,-0.20254 12.04955,-0.21338 11.03775,-0.0241 z m 157.7478,14.72877 c 0,0.75884 -0.62088,1.37972 -1.37972,1.37972 -0.75885,0 -1.37972,-0.62088 -1.37972,-1.37972 0,-0.75885 0.62087,-1.37972 1.37972,-1.37972 0.75884,0 1.37972,0.62087 1.37972,1.37972 z M 87.18476,42.11554 c 0,0.76651 -0.81761,1.37972 -1.83962,1.37972 -1.02201,0 -1.83962,-0.61321 -1.83962,-1.37972 0,-0.7665 0.81761,-1.37971 1.83962,-1.37971 1.02201,0 1.83962,0.61321 1.83962,1.37971 z m 344.00977,0.91982 c 0,0.75884 -0.62087,1.37972 -1.37971,1.37972 -0.75885,0 -1.37972,-0.62088 -1.37972,-1.37972 0,-0.75885 0.62087,-1.37972 1.37972,-1.37972 0.75884,0 1.37971,0.62087 1.37971,1.37972 z M 199.59338,60.3258 c 1.37007,3.60153 2.3471,6.69218 2.17115,6.86812 -0.17594,0.17594 -1.4668,-2.60336 -2.86857,-6.17624 -1.40178,-3.57288 -2.37879,-6.66353 -2.17116,-6.86811 0.20764,-0.20459 1.4985,2.57473 2.86858,6.17623 z M 196.493,58.71155 c 1.54114,3.38242 1.24711,4.10401 -0.4193,1.02905 -0.77818,-1.43594 -1.24276,-2.7829 -1.0324,-2.99326 0.21036,-0.21036 0.86363,0.67352 1.4517,1.96421 z m -6.6596,3.75419 c 1.25834,2.84532 2.07497,5.38622 1.81475,5.64644 -0.26023,0.26022 -0.8626,-0.51557 -1.33862,-1.724 -0.47602,-1.20843 -1.52794,-3.74933 -2.3376,-5.64645 -0.80968,-1.89711 -1.23685,-3.44929 -0.94927,-3.44929 0.28758,0 1.55241,2.32799 2.81074,5.1733 z m -13.85971,3.53786 c 3.058,6.91466 2.33884,7.63382 -0.8657,0.8657 -1.35468,-2.86112 -2.24292,-5.42217 -1.97388,-5.69122 0.26905,-0.26904 1.54686,1.90244 2.83958,4.82552 z m 12.55206,-0.39038 c 0.84775,2.00023 1.37578,3.63678 1.17339,3.63678 -0.67465,0 -3.29078,-5.63109 -3.00058,-6.45857 0.15721,-0.44825 0.97944,0.82156 1.82719,2.82179 z m 10.72669,-0.46298 c 1.54113,3.38241 1.24711,4.10401 -0.41931,1.02905 -0.77818,-1.43594 -1.24276,-2.78291 -1.03239,-2.99327 0.21036,-0.21037 0.86363,0.67353 1.4517,1.96422 z m -26.4866,3.43915 c 1.74258,1.37676 4.80555,7.74392 4.36338,9.07042 -0.17754,0.53261 -1.62453,-1.55562 -3.21554,-4.64052 -1.59101,-3.08491 -2.81924,-5.59575 -2.72942,-5.57967 0.0899,0.0161 0.80153,0.53349 1.58158,1.14977 z m -11.20155,-0.23326 c 0.0689,0.77312 1.54653,4.37137 3.28364,7.9961 1.83284,3.8245 2.64621,6.39389 1.93801,6.12213 -1.77839,-0.68244 -6.20684,-11.07408 -5.74273,-13.47569 0.2177,-1.12651 0.45219,-1.41565 0.52108,-0.64254 z m 42.28721,2.31298 c 1.54114,3.38242 1.24711,4.10401 -0.41931,1.02905 -0.77818,-1.43594 -1.24275,-2.78291 -1.03239,-2.99327 0.21036,-0.21036 0.86363,0.67353 1.4517,1.96422 z m -2.26375,-0.004 c 0.8876,2.31305 0.62576,2.90987 -0.45855,1.04522 -0.53689,-0.92326 -0.7824,-1.87242 -0.54557,-2.10925 0.23682,-0.23682 0.68868,0.242 1.00412,1.06403 z m -21.65137,4.6029 c 0.58807,1.29068 1.05303,2.84461 1.03323,3.45318 -0.0198,0.60856 -0.64704,-0.30137 -1.39384,-2.02209 -1.57186,-3.6217 -1.23913,-4.94213 0.36061,-1.43109 z m -53.19969,0.42035 c 0,0.5059 -0.41391,0.91982 -0.91981,0.91982 -0.5059,0 -0.91981,-0.41392 -0.91981,-0.91982 0,-0.50589 0.41391,-0.91981 0.91981,-0.91981 0.5059,0 0.91981,0.41392 0.91981,0.91981 z m 11.22647,6.20874 c 1.69474,2.9089 3.8633,6.73762 4.81901,8.50826 l 1.73766,3.21934 -1.89219,-1.66102 c -1.04071,-0.91357 -3.19753,-4.11007 -4.79293,-7.10336 -1.59541,-2.99328 -3.53295,-6.07454 -4.30565,-6.84724 -1.23679,-1.2368 -1.23991,-1.4049 -0.026,-1.4049 0.75835,0 2.76543,2.38001 4.46017,5.28892 z m 25.04697,-2.79911 c 0.49917,1.31091 0.39352,1.41656 -0.51491,0.51491 -0.62862,-0.62395 -0.91123,-1.36614 -0.62803,-1.64934 0.2832,-0.2832 0.79753,0.22729 1.14294,1.13443 z m -47.8905,3.40024 c 0.8378,1.97479 1.34141,3.7724 1.11912,3.99468 -0.66073,0.66073 -3.44449,-5.31555 -3.02669,-6.49779 0.21136,-0.59808 1.06977,0.52832 1.90757,2.50311 z m -5.16248,2.7912 c 1.12125,2.30786 1.87082,4.19612 1.6657,4.19612 -0.80432,0 -4.33521,-6.49961 -4.02936,-7.41718 0.17877,-0.53629 1.24241,0.91319 2.36366,3.22106 z m 2.30578,-0.16718 1.62295,2.98358 -1.8529,-2.17148 c -1.57668,-1.84776 -2.41938,-3.82163 -1.62296,-3.80149 0.12648,0.003 0.96029,1.34843 1.85291,2.98939 z m -5.18237,0.29521 c 0.54197,1.73155 0.85083,3.14828 0.68636,3.14828 -0.78181,0 -3.00992,-5.46952 -2.38536,-5.85552 0.39248,-0.24256 1.15704,0.97569 1.699,2.70724 z m -2.41578,0.39586 c 1.08434,2.1255 1.5242,3.58806 0.97743,3.25015 -1.31298,-0.81147 -4.00513,-6.05853 -3.41254,-6.65113 0.25497,-0.25495 1.35076,1.27548 2.43511,3.40098 z m -5.19037,3.44227 c 1.35209,2.65596 2.24961,4.82902 1.99448,4.82902 -0.94471,0 -5.18115,-7.53191 -4.82356,-8.57577 0.2039,-0.59524 1.47699,1.0908 2.82908,3.74675 z M 21.87809,86.2662 c 0,0.75885 -0.62087,1.37972 -1.37972,1.37972 -0.75884,0 -1.37971,-0.62087 -1.37971,-1.37972 0,-0.75884 0.62087,-1.37971 1.37971,-1.37971 0.75885,0 1.37972,0.62087 1.37972,1.37971 z m 71.28545,2.29954 c 0.34534,1.08804 0.42092,2.18521 0.16797,2.43816 -0.25295,0.25295 -0.74244,-0.43031 -1.08778,-1.51835 -0.34533,-1.08805 -0.42091,-2.18522 -0.16797,-2.43817 0.25295,-0.25295 0.74245,0.43031 1.08778,1.51836 z m -2.29953,0.51419 c 0,0.7887 -0.42066,1.17401 -0.93481,0.85625 -0.51415,-0.31776 -0.69669,-0.96306 -0.40562,-1.434 0.78849,-1.27582 1.34043,-1.03793 1.34043,0.57775 z m 24.86785,1.4766 c 1.0533,2.05381 1.02863,2.07848 -0.56057,0.56059 -0.91431,-0.87328 -1.41011,-1.84004 -1.10179,-2.14836 0.30832,-0.30832 1.05639,0.40618 1.66236,1.58777 z m -14.82113,5.62835 c 3.32053,4.41914 4.04696,5.76812 2.17324,4.0357 -3.30767,-3.05824 -8.98916,-10.74876 -7.90801,-10.70434 0.41087,0.0168 2.99151,3.01777 5.73477,6.66864 z m 31.16087,-4.67575 c 0.60708,0.60708 1.10378,1.43491 1.10378,1.83963 0,1.35525 -1.38538,0.75463 -2.54598,-1.10378 -1.2578,-2.01405 -0.31635,-2.4944 1.4422,-0.73585 z m -5.92209,0.27595 c 0.2912,0.75884 0.12852,1.37972 -0.36149,1.37972 -0.49002,0 -0.89095,-0.62088 -0.89095,-1.37972 0,-0.75885 0.16268,-1.37972 0.36149,-1.37972 0.19883,0 0.59975,0.62087 0.89095,1.37972 z m -10.54646,3.07024 c 1.57044,2.4473 2.85533,4.80487 2.85533,5.23905 0,0.43418 -1.16013,-1.05077 -2.57808,-3.29988 -3.8364,-6.0852 -4.00514,-6.38881 -3.55087,-6.38881 0.23007,0 1.7032,2.00234 3.27362,4.44964 z m 2.85533,0.14942 c 0.5415,1.01179 0.77758,1.83963 0.52464,1.83963 -0.25295,0 -0.90296,-0.82784 -1.44445,-1.83963 -0.54149,-1.01179 -0.77758,-1.83962 -0.52463,-1.83962 0.25294,0 0.90295,0.82783 1.44444,1.83962 z m -26.41725,4.36911 c 2.22424,2.90891 4.82837,6.50173 5.78696,7.98405 1.58514,2.45119 1.59673,2.61334 0.12806,1.79144 -1.73583,-0.97142 -10.77139,-12.93671 -10.77139,-14.26396 0,-1.53954 0.84273,-0.76065 4.85637,4.48847 z m 17.44908,-0.19679 c 2.29723,3.07195 1.99897,3.92918 -0.33481,0.96226 -1.06947,-1.35961 -1.79383,-2.61664 -1.60967,-2.7934 0.18415,-0.17676 1.05916,0.64725 1.94448,1.83114 z m 108.53784,3.79535 c -0.63237,0.25517 -1.66716,0.25517 -2.29953,0 -0.63237,-0.25516 -0.11498,-0.46394 1.14977,-0.46394 1.26474,0 1.78213,0.20878 1.14976,0.46394 z m -11.72761,2.22791 c -4.04717,0.95052 -8.60024,2.12623 -10.11793,2.61267 -2.5818,0.82753 -2.52259,0.85949 0.91981,0.49664 2.92022,-0.30781 3.20486,-0.22403 1.37972,0.40613 -1.26474,0.43667 -3.95519,0.62788 -5.97878,0.4249 -2.58862,-0.25965 -3.14298,-0.13575 -1.87013,0.41797 1.42179,0.61852 0.33869,1.14227 -5.05897,2.44637 -3.77745,0.91264 -12.86986,3.61071 -20.20536,5.9957 -38.03958,12.36781 -69.97861,28.63524 -80.79093,41.14906 -2.28918,2.64943 -4.3253,4.654 -4.5247,4.45459 -0.66002,-0.66002 2.69173,-6.46012 5.62368,-9.73163 2.62883,-2.93327 2.53794,-2.89625 -1.02278,0.41663 -2.14939,1.99978 -3.90799,4.17284 -3.90799,4.82901 0,0.65618 -0.46808,1.19304 -1.04016,1.19304 -1.53314,0 -0.36272,-5.8421 1.65656,-8.26872 1.76544,-2.12156 9.66268,-7.77977 15.19624,-10.88777 1.78825,-1.00441 4.03244,-2.26528 4.98706,-2.80194 18.16911,-10.21393 68.01189,-26.66353 100.48495,-33.163 11.70402,-2.34255 14.26162,-2.33636 4.26971,0.0104 z m -22.07549,5.44123 c -1.15955,0.49828 -1.32957,0.79051 -0.45991,0.79051 0.75885,0 2.20755,-0.35572 3.21935,-0.79051 1.15955,-0.49828 1.32957,-0.79051 0.4599,-0.79051 -0.75884,0 -2.20755,0.35572 -3.21934,0.79051 z m -4.80985,1.47554 c 0.30564,0.30564 1.09899,0.33831 1.76297,0.0726 0.73376,-0.29362 0.51581,-0.51158 -0.55572,-0.55572 -0.96963,-0.0399 -1.5129,0.17746 -1.20725,0.48311 z m -3.67925,0.91981 c 0.30564,0.30564 1.09899,0.33831 1.76297,0.0726 0.73376,-0.29362 0.51582,-0.51158 -0.55572,-0.55571 -0.96963,-0.0399 -1.5129,0.17746 -1.20725,0.4831 z m -6.43869,1.83962 c 0.30564,0.30565 1.09899,0.33832 1.76298,0.0726 0.73376,-0.29363 0.51581,-0.51159 -0.55573,-0.55572 -0.96963,-0.0399 -1.51289,0.17746 -1.20725,0.48311 z M 59.93667,105.61814 c 0.31545,0.82204 0.53796,2.18512 0.49448,3.02906 -0.0435,0.84394 -0.44372,0.3135 -0.8894,-1.17875 -0.86707,-2.90317 -0.56043,-4.33989 0.39492,-1.85031 z m 152.51502,0.13287 c -0.66399,0.26571 -1.45733,0.23303 -1.76298,-0.0726 -0.30564,-0.30565 0.23763,-0.52305 1.20726,-0.48311 1.07153,0.0442 1.28948,0.26209 0.55572,0.55572 z m -9.19812,1.83962 c -0.66399,0.26571 -1.45734,0.23304 -1.76298,-0.0726 -0.30564,-0.30564 0.23762,-0.52304 1.20725,-0.4831 1.07154,0.0442 1.28949,0.26209 0.55573,0.55571 z m -138.65636,1.41596 c 2.19218,3.12978 1.70357,4.05051 -0.86766,1.63496 -1.26474,-1.18817 -2.29953,-2.50206 -2.29953,-2.91977 0,-1.45382 1.74472,-0.74604 3.16719,1.28481 z m 7.29568,9.10843 c 3.26098,3.80973 3.8615,5.91024 1.01408,3.54709 -2.07922,-1.72559 -5.31896,-6.4474 -4.78802,-6.97834 0.24801,-0.24801 1.94628,1.29605 3.77394,3.43125 z m -25.83304,0.0156 c 0.71181,1.69885 2.42852,4.43404 3.8149,6.0782 1.38637,1.64417 2.17345,2.98938 1.74905,2.98936 -1.12013,-3e-5 -5.68747,-5.94248 -6.78393,-8.82638 -1.38278,-3.63697 -0.29312,-3.85238 1.21998,-0.24118 z m 10.31507,2.85887 c 3.33766,3.87565 5.49083,7.12854 4.71857,7.12854 -0.22069,0 -2.55275,-2.48349 -5.18234,-5.51887 -2.6296,-3.03538 -4.35847,-5.51887 -3.84194,-5.51887 0.51653,0 2.45411,1.75914 4.30571,3.9092 z m -12.49635,-0.81125 c 2.43189,3.93488 2.44952,5.43795 0.0284,2.42092 -2.77421,-3.45703 -3.82784,-5.51887 -2.82019,-5.51887 0.48243,0 1.73874,1.39408 2.7918,3.09795 z m -5.2056,-1.87296 c 1.06653,2.63663 0.8751,4.85535 -0.31613,3.66412 -0.54873,-0.54873 -0.85543,-1.97674 -0.68155,-3.17335 0.27834,-1.91562 0.3976,-1.97428 0.99768,-0.49077 z m 14.65627,3.14411 c 1.66287,1.93615 2.78338,4.83348 1.86318,4.81763 -0.36354,-0.006 -1.59611,-1.45497 -2.73902,-3.21934 -2.15365,-3.32468 -1.55115,-4.42415 0.87584,-1.59829 z m 307.95956,0.22996 c 1.68139,1.08659 0.22912,1.08659 -2.29953,0 -1.21299,-0.52124 -1.36965,-0.80774 -0.4599,-0.84108 0.75884,-0.0278 2.00059,0.35067 2.75943,0.84108 z m 4.59907,1.83962 c 0.82901,0.53576 0.94246,0.89727 0.28424,0.90573 -0.60252,0.007 -1.3513,-0.39983 -1.66396,-0.90573 -0.70578,-1.14197 -0.38735,-1.14197 1.37972,0 z M 55.91115,136.39629 c 0,0.50589 -0.43835,0.91981 -0.9741,0.91981 -0.53576,0 -0.71828,-0.41392 -0.40562,-0.91981 0.31266,-0.50589 0.75101,-0.91981 0.9741,-0.91981 0.22309,0 0.40562,0.41392 0.40562,0.91981 z m 309.51681,24.72187 c 6.80036,2.45484 9.78948,4.20651 13.00817,7.62303 6.36548,6.7567 8.58849,15.13004 8.60047,32.39514 0.008,11.70918 -1.15021,16.38545 -4.82461,19.47725 -3.35585,2.82377 -5.15589,2.80951 -14.13714,-0.11194 -12.40611,-4.03551 -16.60567,-7.3378 -21.46566,-16.87933 -2.84337,-5.58234 -4.61157,-25.903 -2.914,-33.48853 1.62439,-7.25851 5.65259,-10.75524 12.3367,-10.709 2.63836,0.0182 6.86659,0.78027 9.39607,1.69338 z m -12.56445,2.03134 c -2.56701,1.37383 -5.1817,7.73037 -5.45376,13.25862 -0.12448,2.52948 -0.67438,5.19591 -1.222,5.92539 -0.72716,0.96866 -0.71417,1.15771 0.0481,0.70106 0.71233,-0.42671 1.24169,1.22255 1.66696,5.19369 0.34273,3.20043 1.17944,7.43709 1.85935,9.41479 1.63356,4.7517 6.74501,10.85741 8.16363,9.75159 1.2233,-0.95357 9.39753,-0.71065 12.04601,0.35797 1.13125,0.45644 1.91759,0.32063 2.14814,-0.37103 0.20002,-0.60006 0.80619,-0.81754 1.34705,-0.48327 0.54085,0.33426 0.74346,0.21957 0.45023,-0.25488 -0.29323,-0.47445 0.0494,-3.91968 0.76129,-7.65608 0.76591,-4.01964 0.96103,-7.19943 0.47789,-7.78775 -0.44911,-0.54686 -0.81426,-2.50395 -0.81144,-4.34908 0.006,-4.44194 -0.93884,-7.22306 -2.45594,-7.22306 -0.67832,0 -3.14981,-1.86262 -5.4922,-4.13915 -2.34238,-2.27654 -5.04639,-4.13916 -6.00891,-4.13916 -0.96252,0 -2.04315,-0.47428 -2.40142,-1.05396 -0.45602,-0.73788 0.0566,-0.87627 1.70923,-0.46148 1.50678,0.37818 2.53208,0.17717 2.83472,-0.55572 0.28663,-0.69414 0.72289,-0.32978 1.10321,0.9214 0.346,1.13826 1.01916,2.06957 1.49591,2.06957 0.47675,0 0.61101,-0.41391 0.29834,-0.91981 -0.31266,-0.5059 0.0768,-0.91981 0.86553,-0.91981 0.78875,0 1.43405,0.45819 1.43405,1.01822 0,0.56002 0.60993,0.78417 1.35539,0.49811 0.74547,-0.28606 1.67678,0.0113 2.06958,0.66081 0.3928,0.64952 1.44793,1.45076 2.34472,1.78056 0.8968,0.3298 1.85832,1.33337 2.13672,2.23017 1.22381,3.9421 3.17748,7.60931 4.05379,7.60931 1.32352,0 0.12173,-4.62445 -1.79278,-6.89859 -0.85179,-1.01179 -2.28759,-3.55119 -3.19065,-5.64311 -0.91232,-2.11333 -2.64213,-4.2592 -3.89273,-4.82902 -3.09247,-1.40902 -3.51964,-1.29079 -2.0469,0.56653 0.69431,0.87561 -0.39327,0.31487 -2.41686,-1.24609 -2.02359,-1.56097 -4.30012,-3.07254 -5.05897,-3.35906 -2.3323,-0.88058 -6.46343,-0.71763 -8.42529,0.33232 z m 10.26492,41.36718 c 0,0.53575 -0.41392,0.71828 -0.91981,0.40562 -0.5059,-0.31266 -0.91982,-0.75101 -0.91982,-0.9741 0,-0.22309 0.41392,-0.40562 0.91982,-0.40562 0.50589,0 0.91981,0.43835 0.91981,0.9741 z m 15.63681,-18.45053 c 0,0.50589 0.41391,0.91981 0.91981,0.91981 0.5059,0 0.91981,-0.41392 0.91981,-0.91981 0,-0.5059 -0.41391,-0.91981 -0.91981,-0.91981 -0.5059,0 -0.91981,0.41391 -0.91981,0.91981 z m -32.80261,2.98939 c 0.25517,0.63237 0.46395,0.11497 0.46395,-1.14977 0,-1.26474 -0.20878,-1.78213 -0.46395,-1.14976 -0.25516,0.63237 -0.25516,1.66716 0,2.29953 z m 35.4479,3.69458 c 0.90843,0.90165 1.01408,0.79601 0.51492,-0.51491 -0.34542,-0.90714 -0.85974,-1.41763 -1.14295,-1.13443 -0.2832,0.2832 -5.8e-4,1.02539 0.62803,1.64934 z m -0.49503,4.58373 c 0.25517,0.63237 0.46394,0.11497 0.46394,-1.14977 0,-1.26474 -0.20877,-1.78213 -0.46394,-1.14976 -0.25516,0.63237 -0.25516,1.66716 0,2.29953 z m -1.01987,3.27745 c -0.22405,0.67216 0.19646,0.87773 1.09228,0.53396 0.80112,-0.30741 1.45658,-0.96306 1.45658,-1.45699 0,-1.20899 -2.09053,-0.45194 -2.54886,0.92303 z m -31.59648,1.71253 c 1.08431,1.86465 1.34615,1.26782 0.45855,-1.04522 -0.31544,-0.82204 -0.76729,-1.30085 -1.00412,-1.06403 -0.23682,0.23682 0.008,1.18599 0.54557,2.10925 z m 3.79153,4.898 c 0,0.5059 0.43835,0.91981 0.9741,0.91981 0.53575,0 0.71828,-0.41391 0.40562,-0.91981 -0.31266,-0.5059 -0.75101,-0.91981 -0.9741,-0.91981 -0.22309,0 -0.40562,0.41391 -0.40562,0.91981 z m 1.37667,2.75449 c 0.31098,0.50317 1.36088,1.34059 2.33311,1.86091 1.42707,0.76374 1.66449,0.6771 1.23211,-0.44968 -0.29457,-0.76764 -0.87753,-1.18439 -1.29547,-0.92609 -0.41792,0.2583 -1.01986,0.0489 -1.33762,-0.46519 -0.31775,-0.51415 -0.7847,-0.93482 -1.03765,-0.93482 -0.25294,0 -0.20546,0.41169 0.10552,0.91487 z m 22.966,3.33008 c -3.13883,2.05663 -2.83404,3.11355 0.89788,3.11355 3.46598,0 4.49968,-0.89113 3.63812,-3.13634 -0.70884,-1.84717 -1.6896,-1.84225 -4.536,0.0228 z m -233.8756,30.28506 c 1.68281,3.69337 -0.004,7.32144 -3.40359,7.32144 -3.68065,0 -5.18337,-3.7882 -2.89072,-7.28721 1.9971,-3.04797 4.91393,-3.06383 6.29431,-0.0342 z m 66.88539,5.36965 c -0.21079,0.19125 -4.72937,1.26078 -10.04129,2.37674 -17.75027,3.72906 -35.34558,8.60992 -33.47835,9.28674 1.39406,0.5053 1.00518,0.84067 -1.93442,1.66819 -25.97878,7.31334 -56.28649,19.9044 -70.59665,29.32876 -2.53916,1.67224 -4.78542,2.87166 -4.99169,2.6654 -0.71241,-0.71241 14.37174,-9.82972 24.42918,-14.76574 5.54973,-2.72371 13.85559,-6.29904 18.45748,-7.94518 4.60189,-1.64614 8.20475,-3.1553 8.00636,-3.35369 -0.1984,-0.1984 -3.805,0.89629 -8.01467,2.43263 -8.6212,3.14635 -9.3879,3.31885 -6.81664,1.53371 4.83954,-3.35995 42.4242,-15.00199 62.52194,-19.36649 6.07076,-1.31835 12.77322,-2.80466 14.89435,-3.3029 3.82044,-0.89741 8.30283,-1.22816 7.5644,-0.55817 z m -59.16321,15.32612 c -7.00843,2.49434 -3.88147,2.10775 4.05113,-0.50085 3.79423,-1.24771 5.48949,-2.02079 3.76728,-1.71794 -1.72223,0.30285 -5.24052,1.30131 -7.81841,2.21879 z m -8.36634,2.72239 c -1.21299,0.52124 -1.36965,0.80773 -0.4599,0.84107 0.75884,0.0278 2.00059,-0.35066 2.75944,-0.84107 1.68138,-1.08659 0.22911,-1.08659 -2.29954,0 z m 29.89389,-7.27239 c 0,0.45854 -0.82783,0.8337 -1.83962,0.8337 -1.01179,0 -1.83962,-0.15868 -1.83962,-0.35263 0,-0.19394 0.82783,-0.5691 1.83962,-0.8337 1.01179,-0.26459 1.83962,-0.1059 1.83962,0.35263 z m 31.50357,22.06306 c 3.74134,2.17913 0.97171,8.56186 -3.49465,8.05359 -2.2924,-0.26087 -2.75783,-0.75959 -2.99572,-3.20989 -0.21107,-2.17416 0.24352,-3.26886 1.81433,-4.36911 2.4327,-1.70393 2.54571,-1.7154 4.67604,-0.47459 z m -15.85078,4.55524 c 1.37346,2.56633 0.46295,6.08779 -1.90121,7.35305 -4.42528,2.36834 -7.77175,-2.25421 -4.67893,-6.46309 2.23354,-3.03955 5.21398,-3.44265 6.58014,-0.88996 z m -15.64338,4.58679 c 1.61232,3.01264 -0.72689,6.881 -4.16095,6.881 -2.30061,0 -2.79364,-0.40369 -3.03371,-2.48399 -0.15766,-1.3662 0.16734,-3.3323 0.72222,-4.36911 1.31573,-2.45845 5.16277,-2.47504 6.47244,-0.0279 z m 23.72175,2.006 c 2.27369,2.2737 0.72877,7.267 -2.57547,8.32415 -2.39087,0.76492 -4.59906,-1.05905 -4.59906,-3.79886 0,-4.27464 4.55325,-7.14657 7.17453,-4.52529 z m -39.06135,0.42925 c 1.16911,1.16911 0.60615,6.62093 -0.83221,8.0593 -2.78053,2.78053 -5.91308,1.04719 -5.91308,-3.2719 0,-3.89006 4.47006,-7.06264 6.74529,-4.7874 z m 22.45874,2.7554 c 1.23982,0.50027 1.55275,5.63494 0.44582,7.3152 -1.12845,1.71293 -4.79049,2.43909 -6.23879,1.23711 -3.93802,-3.26827 0.96166,-10.50179 5.79297,-8.55231 z m -92.67108,2.15026 c -0.54149,1.01179 -1.1915,1.83962 -1.44444,1.83962 -0.25295,0 -0.0168,-0.82783 0.52463,-1.83962 0.54149,-1.0118 1.1915,-1.83963 1.44445,-1.83963 0.25294,0 0.0168,0.82783 -0.52464,1.83963 z m 56.41515,-0.3066 c 1.45526,1.45525 0.56563,6.6743 -1.36862,8.0291 -3.98163,2.78884 -7.04609,-1.96467 -4.42449,-6.86316 0.9156,-1.71081 4.52235,-2.43672 5.79311,-1.16594 z m 62.07465,2.73677 c 1.86929,3.34026 -0.69144,7.68776 -4.52818,7.68776 -2.0395,0 -2.75914,-0.51732 -3.20812,-2.30623 -1.22724,-4.8897 5.42277,-9.51558 7.7363,-5.38153 z m -40.30576,2.97608 c 0,4.03142 -1.64585,5.91622 -4.77839,5.47215 -1.52405,-0.21605 -2.2008,-0.999 -2.40686,-2.78456 -0.44051,-3.8172 1.29665,-6.25422 4.45817,-6.25422 2.55403,0 2.72708,0.22632 2.72708,3.56663 z m -34.36302,-0.34036 c 0.83144,2.16671 -0.49206,7.57714 -1.99458,8.1537 -3.56923,1.36965 -5.89801,-2.54887 -4.18791,-7.04676 0.68966,-1.81395 1.58887,-2.49358 3.29922,-2.49358 1.29314,0 2.59061,0.62399 2.88327,1.38664 z m 57.66492,0.14638 c 1.13,1.13 0.62825,6.50755 -0.71088,7.61893 -0.72825,0.6044 -2.4874,0.96552 -3.9092,0.80249 -3.14667,-0.3608 -3.92025,-3.4227 -1.71503,-6.78828 1.39313,-2.1262 4.93023,-3.03803 6.33511,-1.63314 z m -38.2381,1.37513 c 1.5553,1.5553 1.43032,4.54495 -0.29285,7.00511 -1.88023,2.68441 -4.78768,2.6118 -6.0465,-0.151 -2.02265,-4.43923 3.15555,-10.03791 6.33935,-6.85411 z m 22.11073,2.79468 c 1.67515,1.67515 1.32219,5.1165 -0.73585,7.17454 -4.45599,4.45599 -8.74976,-0.89021 -5.00681,-6.23402 1.57538,-2.24917 4.03172,-2.65146 5.74266,-0.94052 z m -54.26891,0 c 2.79223,2.79223 -0.46719,10.02 -3.92093,8.69468 -2.00306,-0.76865 -1.96893,-8.46887 0.0409,-9.24014 2.05363,-0.78805 2.62707,-0.70743 3.87996,0.54546 z m 18.93119,1.24358 c 2.20727,5.75206 -2.05846,12.13387 -5.6859,8.50643 -1.43938,-1.43938 -1.41398,-5.5085 0.046,-7.36576 1.76976,-2.25134 4.96566,-2.89772 5.63991,-1.14067 z m 59.7434,1.94511 c 1.02902,1.02901 0.68287,6.3077 -0.49056,7.48113 -2.596,2.59601 -7.17453,0.63252 -7.17453,-3.07678 0,-3.44372 5.47805,-6.5914 7.66509,-4.40435 z m -38.39493,2.61283 c 0.86316,3.4391 -1.83091,7.08008 -4.97048,6.71748 -4.91951,-0.56818 -3.228,-9.02371 1.80518,-9.02371 1.9938,0 2.71911,0.52846 3.1653,2.30623 z m -50.82685,-0.77321 c 0.92757,0.92756 0.73472,4.79957 -0.33896,6.80576 -1.24731,2.33062 -4.28323,2.28167 -5.03316,-0.0811 -0.32474,-1.02316 -0.31975,-3.09274 0.0111,-4.59906 0.45035,-2.05047 1.12254,-2.73877 2.67467,-2.73877 1.14023,0 2.34909,0.27594 2.68635,0.61321 z m 17.3372,2.60613 c 1.92312,4.2208 -2.09132,9.50043 -5.23804,6.88887 -1.64156,-1.36237 -1.81073,-6.53813 -0.26424,-8.08462 1.81459,-1.81459 4.38521,-1.25594 5.50228,1.19575 z m 55.84995,0.68986 c 1.32558,3.56603 -0.73751,7.12855 -4.12819,7.12855 -3.20605,0 -4.45772,-2.99936 -2.68347,-6.43038 1.79251,-3.46634 5.63622,-3.86031 6.81166,-0.69817 z m -37.16034,0.36219 c 2.45851,2.4585 0.20922,8.60598 -3.14883,8.60598 -3.63721,0 -4.89824,-4.39085 -2.31871,-8.07364 1.70194,-2.42987 3.40428,-2.59562 5.46754,-0.53234 z m 62.42899,2.65291 c 1.00122,2.60916 0.63329,4.69749 -1.10478,6.27042 -4.02982,3.64693 -8.73525,0.18929 -6.40163,-4.70403 1.44015,-3.01981 6.54028,-4.08407 7.50641,-1.56639 z m -40.9982,-0.30165 c 2.44022,2.44022 -0.0127,9.01416 -3.36347,9.01416 -3.6946,0 -4.97969,-4.3609 -2.37918,-8.07364 1.57537,-2.24917 4.03171,-2.65146 5.74265,-0.94052 z m -67.61433,-0.52937 c 0.96104,0.96104 0.79256,4.80279 -0.30016,6.84456 -2.11428,3.95056 -5.1795,0.61934 -4.41299,-4.79593 0.30162,-2.13086 3.31926,-3.44251 4.71315,-2.04863 z m 15.67561,0.95862 c 0.92756,0.92755 0.73472,4.79957 -0.33896,6.80575 -1.38049,2.57944 -4.4082,2.27105 -5.10881,-0.52037 -0.94879,-3.78032 0.2743,-6.89859 2.70586,-6.89859 1.17078,0 2.40465,0.27594 2.74191,0.61321 z m 16.93988,0.91577 c 1.46773,0.59224 1.50251,6.94847 0.046,8.40499 -1.39826,1.39825 -4.10718,1.42634 -4.95694,0.0514 -0.99113,-1.6037 -0.63299,-6.27027 0.59475,-7.74961 1.11449,-1.34288 2.27063,-1.53219 4.3162,-0.70679 z m 59.22063,3.43196 c 2.31804,5.08755 -4.90785,9.61653 -7.84834,4.9191 -1.49708,-2.39159 1.09097,-6.57756 4.29758,-6.951 1.92369,-0.22403 2.73421,0.23978 3.55076,2.0319 z m -38.44821,-0.66848 c 1.13202,1.13202 0.62713,6.50849 -0.71588,7.62308 -0.73099,0.60667 -2.28318,0.96779 -3.4493,0.80248 -1.6521,-0.2342 -2.18483,-0.97382 -2.41291,-3.35003 -0.161,-1.67721 0.20012,-3.64331 0.80248,-4.36911 1.12752,-1.35858 4.68798,-1.79406 5.77561,-0.70642 z m -48.14123,1.68103 c 0.62738,0.75594 0.9602,2.31861 0.7396,3.47258 -0.33413,1.74789 -0.006,2.09427 1.96133,2.07487 1.99173,-0.0196 2.40716,0.43911 2.64749,2.9236 0.33543,3.46761 -1.16264,6.71114 -3.09962,6.71114 -1.76159,0 -3.39381,-4.26628 -2.59506,-6.78292 0.55924,-1.76201 0.46746,-1.81758 -0.99593,-0.60308 -1.42881,1.18581 -1.75735,1.13889 -2.89211,-0.41298 -1.51589,-2.07311 -1.58551,-3.23574 -0.38314,-6.39823 1.00538,-2.64434 2.90415,-3.04938 4.61744,-0.98498 z m 14.49143,0.52 c 1.50058,0.5842 2.06958,1.55652 2.06958,3.53653 0,2.40856 0.35274,2.7648 2.98939,3.01902 2.47595,0.23873 3.03863,0.71487 3.27605,2.77223 0.40581,3.51652 -1.31723,6.25422 -3.93629,6.25422 -2.52705,0 -3.72924,-2.56025 -2.84901,-6.06738 0.50912,-2.02847 0.39092,-2.14599 -1.17482,-1.16817 -2.72956,1.70464 -4.744,0.37231 -4.744,-3.13762 0,-4.21448 1.70425,-6.24629 4.3691,-5.20883 z m 55.68306,0.51618 c 1.06281,1.06281 0.74917,6.32585 -0.44834,7.52336 -1.81409,1.81409 -6.04977,1.35892 -6.70993,-0.72105 -0.89026,-2.80495 1.47162,-6.86931 4.17567,-7.18557 1.27994,-0.1497 2.62211,0.0227 2.9826,0.38326 z m -36.08556,1.30045 c 1.52281,0.94116 1.51588,5.89802 -0.0109,7.73758 -1.67139,2.01391 -4.39018,1.77408 -5.60421,-0.49435 -2.0483,-3.8273 2.22428,-9.33882 5.61502,-7.24323 z m 61.19989,4.11405 c 1.37365,5.47303 -5.7913,9.59276 -8.05247,4.63003 -1.4838,-3.25661 1.0376,-6.93627 4.75294,-6.93627 2.13708,0 2.84488,0.49471 3.29953,2.30624 z m -40.27966,-1.20246 c 1.64945,1.64944 1.3319,5.76315 -0.57832,7.49188 -4.86389,4.40176 -8.86527,-2.51595 -4.17072,-7.21049 1.67125,-1.67126 3.26476,-1.76568 4.74904,-0.28139 z m 23.61435,4.33687 c 0.84857,2.67363 -0.40429,6.38317 -2.36615,7.00584 -4.51367,1.43259 -6.94774,-2.3682 -4.47526,-6.98808 1.29444,-2.41868 6.07544,-2.43109 6.84141,-0.0178 z m -37.41153,0.26219 c 2.88272,2.88272 -0.52102,9.79019 -4.24224,8.60912 -1.59658,-0.50674 -2.01248,-1.34828 -2.01248,-4.07205 0,-3.66357 1.28968,-5.64085 3.67925,-5.64085 0.80943,0 1.96839,0.4967 2.57547,1.10378 z m -46.18463,1.78821 c 0.35772,0.57881 0.61933,2.14496 0.58136,3.48034 -0.0581,2.04393 0.32044,2.42307 2.39328,2.39693 2.21216,-0.0279 2.46231,0.29986 2.46231,3.22626 0,3.0171 0.18343,3.23032 2.48731,2.89118 2.04181,-0.30054 2.59275,0.054 3.07598,1.97934 0.32377,1.29001 0.33431,2.75703 0.0234,3.26004 -0.34021,0.55048 0.36194,0.74645 1.76368,0.49227 1.80667,-0.32761 2.56166,0.0885 3.36684,1.85568 1.48591,3.26124 -0.55611,8.08262 -3.25977,7.69663 -1.54181,-0.22011 -2.05153,-1.12396 -2.49031,-4.41591 -0.30344,-2.27654 -0.61388,-3.59297 -0.68986,-2.92542 -0.0804,0.70638 -1.00326,1.09088 -2.20773,0.91981 -1.64412,-0.2335 -2.12658,-0.97493 -2.34691,-3.60661 -0.24836,-2.96666 -0.51258,-3.26772 -2.52948,-2.88216 -2.27944,0.43574 -2.77278,-0.71486 -2.32065,-5.41237 0.10722,-1.11397 -0.43489,-1.37873 -2.15121,-1.05063 -1.83482,0.35074 -2.40541,-0.003 -2.84787,-1.76598 -1.11823,-4.45539 2.6674,-9.41137 4.6896,-6.1394 z m 108.30261,0.48066 c 1.26592,1.26592 0.54713,5.60016 -1.18936,7.17165 -2.61367,2.36534 -6.47574,1.2417 -6.47574,-1.88407 0,-3.76316 1.62225,-5.90079 4.47812,-5.90079 1.41558,0 2.84972,0.27594 3.18698,0.61321 z m -40.51397,-0.0422 c 1.16596,1.16596 0.69457,6.52979 -0.67365,7.66531 -1.77606,1.474 -5.14023,0.88712 -6.39537,-1.11568 -1.4453,-2.30622 1.08501,-6.57583 4.10865,-6.93289 1.26771,-0.1497 2.59989,0.0227 2.96037,0.38326 z m -52.38706,0.0422 c 0.9218,0.9218 0.73705,5.71501 -0.29456,7.6426 -1.18747,2.21882 -4.45938,1.40717 -5.13209,-1.27307 -1.08342,-4.31669 2.85582,-8.94037 5.42665,-6.36953 z m 17.90568,2.33019 c 2.76106,2.76106 0.20931,8.48193 -3.54682,7.95175 -1.7931,-0.2531 -2.30723,-0.93439 -2.54071,-3.36678 -0.45759,-4.76717 3.17178,-7.50072 6.08753,-4.58497 z m 56.98236,0.82708 c 2.65482,0.98684 2.80778,5.39427 0.26701,7.69363 -2.61367,2.36534 -6.47574,1.2417 -6.47574,-1.88407 0,-4.78316 2.55029,-7.16949 6.20873,-5.80956 z m -37.55899,0.76175 c 1.64577,1.04171 1.69464,5.93568 0.0787,7.88272 -0.69542,0.83793 -2.25176,1.35581 -3.60259,1.19879 -1.84101,-0.21401 -2.44532,-0.86132 -2.67506,-2.8654 -0.32258,-2.8139 1.95421,-7.07764 3.76729,-7.05501 0.6207,0.007 1.71494,0.38525 2.43163,0.8389 z m -31.20136,3.28089 c 0.62738,0.75593 0.96216,2.30812 0.74397,3.44929 -0.3419,1.78811 -0.007,2.07487 2.42124,2.07487 2.49837,0 2.85029,0.3342 3.10302,2.94688 0.36287,3.75121 -1.20706,6.71115 -3.55953,6.71115 -2.14974,0 -3.74979,-3.45992 -2.97326,-6.42936 0.49179,-1.88065 0.38328,-1.93785 -1.49604,-0.78858 -1.781,1.08915 -2.18654,1.02302 -3.34999,-0.54632 -3.47153,-4.68258 1.45097,-11.82751 5.11059,-7.41793 z m 54.81708,1.85161 c 0.86316,3.4391 -1.83091,7.08008 -4.97048,6.71748 -2.05556,-0.23741 -2.52119,-0.7991 -2.7646,-3.33497 -0.3657,-3.80988 1.12946,-5.68874 4.52697,-5.68874 2.0395,0 2.75913,0.51732 3.20811,2.30623 z m -36.60041,-0.28264 c 2.88272,2.88271 -0.52101,9.79018 -4.24223,8.60912 -1.59659,-0.50674 -2.01249,-1.34828 -2.01249,-4.07205 0,-3.66358 1.28968,-5.64085 3.67925,-5.64085 0.80944,0 1.9684,0.4967 2.57547,1.10378 z m 59.78779,1.83962 c 2.65006,2.65005 0.0987,9.01416 -3.6137,9.01416 -3.67135,0 -4.76061,-5.23891 -1.72121,-8.27831 2.09975,-2.09975 3.7442,-2.32656 5.33491,-0.73585 z m -39.06135,0.42925 c 1.30764,1.30763 0.55923,6.50902 -1.1605,8.06535 -2.63097,2.38099 -5.58479,1.13155 -5.58479,-2.36233 0,-3.88506 1.54665,-6.31623 4.01822,-6.31623 1.16262,0 2.38981,0.27594 2.72707,0.61321 z m 22.50473,3.25 c 2.69036,2.69036 0.32124,9.01416 -3.37702,9.01416 -3.88981,0 -5.10368,-5.13252 -1.95789,-8.27831 2.09975,-2.09975 3.7442,-2.32657 5.33491,-0.73585 z m -36.30192,1.34906 c 1.03817,1.03816 0.67906,5.38382 -0.58809,7.11674 -0.73843,1.00987 -2.06746,1.52062 -3.44929,1.32557 -1.79309,-0.25309 -2.30723,-0.93439 -2.54071,-3.36678 -0.16099,-1.67721 0.20013,-3.64331 0.80248,-4.36911 1.12753,-1.35858 4.68798,-1.79406 5.77561,-0.70642 z m -46.22915,1.76832 c 0.58753,0.70793 0.88774,2.23132 0.66715,3.3853 -0.33414,1.74789 -0.006,2.09426 1.96133,2.07486 2.59364,-0.0256 3.4645,2.35185 2.40615,6.56867 -0.42397,1.68922 -1.08695,2.19198 -2.60572,1.97602 -1.60765,-0.2286 -2.09553,-0.98799 -2.3144,-3.60235 -0.24347,-2.90826 -0.53655,-3.26314 -2.40061,-2.9068 -2.44159,0.46674 -3.23467,-1.3802 -2.42671,-5.65142 0.55783,-2.94893 3.00217,-3.90548 4.71281,-1.84428 z m 108.37977,2.44748 c 1.07303,2.88207 -0.13764,5.59393 -2.94508,6.59692 -2.69654,0.96338 -5.24322,-0.52076 -5.24322,-3.05558 0,-4.82574 6.6408,-7.6978 8.1883,-3.54134 z m -40.99494,-1.45636 c 1.13202,1.13202 0.62713,6.50849 -0.71588,7.62308 -0.731,0.60667 -2.28318,0.96779 -3.4493,0.80248 -4.19421,-0.59457 -2.8507,-9.03877 1.43811,-9.03877 1.16262,0 2.38981,0.27594 2.72707,0.61321 z m -34.52361,1.41037 c 2.65064,2.65064 0.52873,9.01416 -3.00576,9.01416 -2.57592,0 -3.7258,-2.57397 -2.79919,-6.2659 0.92028,-3.66667 3.61213,-4.94108 5.80495,-2.74826 z m 57.90217,1.34503 c 1.75982,0.7101 1.39083,6.24605 -0.53233,7.98648 -4.7205,4.27199 -9.29179,-2.22083 -4.75659,-6.75603 1.82733,-1.82733 3.08474,-2.11986 5.28892,-1.23045 z m -37.6663,1.41441 c 1.67514,1.67514 1.32218,5.1165 -0.73585,7.17453 -4.45599,4.456 -8.74976,-0.8902 -5.00682,-6.23401 1.57539,-2.24917 4.03173,-2.65146 5.74267,-0.94052 z m -32.69933,1.72934 c 3.05821,1.78124 1.39265,9.12444 -2.06958,9.12444 -3.23117,0 -4.3326,-5.73436 -1.70868,-8.89598 1.19847,-1.44407 1.64485,-1.47106 3.77826,-0.22846 z m 53.80901,0.92518 c 2.47285,0.93376 2.73788,4.07637 0.60104,7.12712 -2.76901,3.95332 -7.69573,1.04808 -6.47445,-3.81791 0.75325,-3.00119 3.13513,-4.34319 5.87341,-3.30921 z m -34.4163,1.45398 c 1.20007,1.20006 0.58686,5.65421 -1.05809,7.68564 -3.43326,4.23991 -7.49805,-1.35694 -4.73503,-6.5197 0.9156,-1.71081 4.52235,-2.43672 5.79312,-1.16594 z m 20.23587,2.75943 c 1.13202,1.13203 0.62713,6.50849 -0.71588,7.62309 -0.731,0.60667 -2.28318,0.96779 -3.4493,0.80248 -4.19421,-0.59457 -2.85071,-9.03878 1.43811,-9.03878 1.16262,0 2.38981,0.27595 2.72707,0.61321 z m -49.98085,0.76122 c 0.62737,0.75594 0.95323,2.35502 0.72412,3.5535 -0.33582,1.75673 -0.0885,2.09326 1.27638,1.73635 4.08309,-1.06775 5.85503,4.26497 2.70837,8.15093 -1.48674,1.83604 -1.94612,1.96576 -3.21934,0.90908 -0.84933,-0.70487 -1.48515,-2.61082 -1.48515,-4.4519 0,-2.85361 -0.16804,-3.07987 -1.47925,-1.99166 -1.25683,1.04308 -1.67174,0.96443 -2.75943,-0.52308 -3.28683,-4.49501 0.76615,-11.56207 4.2343,-7.38322 z m 17.43224,2.21406 c 0.64313,1.20167 0.61956,2.65651 -0.0753,4.64977 -0.83479,2.39467 -1.43388,2.85192 -3.43308,2.62024 -1.99993,-0.23177 -2.47282,-0.81189 -2.71454,-3.33013 -0.161,-1.67721 0.20012,-3.64331 0.80248,-4.36911 1.54268,-1.85882 4.31333,-1.63941 5.42044,0.42923 z m 18.21487,0.69993 c 1.39269,0.56196 1.51308,5.27161 0.19759,7.7296 -1.68858,3.15513 -6.40632,1.65226 -6.40632,-2.04077 0,-4.52943 2.77674,-7.07366 6.20873,-5.68883 z M 97.5705,371.5228 c 1.08689,1.08689 0.73114,5.40444 -0.59469,7.21764 -0.78655,1.07566 -1.82474,1.48316 -2.81274,1.10403 -2.43349,-0.93382 -1.68675,-8.33779 0.87795,-8.70492 1.03261,-0.14781 2.17088,0.0246 2.52948,0.38325 z m 32.61549,2.79446 c 1.63439,0.65913 1.42604,6.34138 -0.29566,8.06308 -2.11403,2.11403 -3.99565,1.7698 -5.01754,-0.91795 -0.93794,-2.46697 -0.31897,-6.83474 0.96858,-6.83474 0.40967,0 1.29611,-0.17417 1.96986,-0.38703 0.67375,-0.21288 1.74239,-0.17838 2.37476,0.0766 z m -27.21868,4.67948 c 0.0802,0.88532 0.0804,2.35999 6.2e-4,3.27706 -0.097,1.11485 0.38808,1.57966 1.46393,1.40267 3.59748,-0.59182 5.16963,3.43281 2.95642,7.56826 -2.04392,3.81908 -6.23066,0.27018 -5.08173,-4.30752 0.51757,-2.06213 0.41414,-2.14491 -1.32957,-1.0641 -1.57236,0.97462 -2.0386,0.93964 -2.76845,-0.20773 -1.00519,-1.58019 -1.16387,-4.69596 -0.34751,-6.82336 0.77905,-2.03018 4.91983,-1.90471 5.10629,0.15472 z m 15.30711,0.41392 c 0.60708,0.60708 1.10377,2.18363 1.10377,3.50345 0,5.77655 -5.72124,7.69134 -6.26383,2.09639 -0.49999,-5.15543 2.42749,-8.33241 5.16006,-5.59984 z m -20.66512,9.62737 c 0.90978,0.90978 0.71618,6.07794 -0.28714,7.6651 -1.01743,1.60951 -2.94724,1.85141 -3.91458,0.49068 -1.40741,-1.97975 -0.73799,-6.84642 1.07521,-7.81682 2.09554,-1.12149 2.31969,-1.14579 3.12651,-0.33896 z m 189.63462,4.4842 c 42.78189,4.40004 89.03046,15.74544 115.95475,28.44527 17.74849,8.37173 21.76774,14.37561 14.88854,22.24021 -5.06469,5.79018 -28.14167,15.92523 -52.88424,23.22593 -21.46029,6.33222 -59.82282,14.24699 -85.31754,17.6023 -4.04718,0.53264 -17.09104,1.21357 -28.98637,1.51317 -17.0803,0.43019 -24.62305,0.21556 -35.87268,-1.02076 -47.43325,-5.21287 -82.98154,-13.78755 -108.98546,-26.2886 -11.31483,-5.43946 -15.59501,-9.47575 -15.59501,-14.70638 0,-2.85521 0.64628,-4.287 3.05838,-6.77565 5.10002,-5.26188 26.5353,-15.67065 46.56968,-22.61378 24.98912,-8.66027 67.12613,-18.3689 91.98122,-21.19304 14.55828,-1.65418 41.25666,-1.86156 55.18873,-0.42867 z m -38.05352,2.0365 c -4.38955,-0.26664 -6.9093,-0.15962 -5.63756,0.23944 2.13601,0.67027 2.079,0.72811 -0.80176,0.81327 -8.30191,0.24544 -33.68598,4.82933 -52.08744,9.40602 -20.33238,5.05693 -17.70287,4.3074 -39.55192,11.274 -25.98776,8.28623 -43.2941,15.77002 -52.65926,22.77148 -3.8654,2.8898 -4.82901,4.13706 -4.82901,6.25041 0,2.17345 0.85371,3.19477 4.82901,5.77717 8.59399,5.58273 24.60545,11.96687 45.30076,18.06245 14.30538,4.2135 46.70538,9.87229 73.58497,12.85191 11.08776,1.22909 34.35333,1.30516 48.30066,0.15792 31.50866,-2.59173 80.4557,-13.2527 111.28676,-24.23894 21.34092,-7.60456 34.15892,-14.14702 36.27495,-18.51516 1.1389,-2.35105 1.42059,-2.50816 1.96292,-1.09486 0.43515,1.13398 -0.19535,2.53333 -2.01576,4.47384 -1.92448,2.05147 -2.14302,2.56288 -0.79904,1.86991 3.19621,-1.64799 4.72689,-4.2026 4.53156,-7.56291 -0.345,-5.93513 -1.56991,-8.4786 -3.69121,-7.66458 -1.20222,0.46134 -1.16718,0.79758 0.25941,2.48931 l 1.64938,1.95593 -2.06633,-1.74929 c -1.70561,-1.44392 -1.86618,-1.9966 -0.91981,-3.16596 0.91612,-1.13198 0.91547,-1.27785 -0.003,-0.7259 -0.63237,0.37991 -1.14977,0.26697 -1.14977,-0.25098 0,-0.51796 -0.87778,-1.41151 -1.95062,-1.98568 -1.34241,-0.71843 -1.75772,-0.73181 -1.33195,-0.0429 0.38518,0.62323 0.0819,0.79507 -0.80353,0.4553 -0.78221,-0.30017 -1.2306,-0.85577 -0.99642,-1.23469 0.23418,-0.37891 -0.6224,-1.1665 -1.90351,-1.75022 -1.32821,-0.60517 -2.08591,-0.6675 -1.76301,-0.14503 0.32662,0.52847 -0.0356,0.68528 -0.85593,0.3705 -0.78221,-0.30017 -1.14973,-0.98664 -0.8167,-1.5255 0.37972,-0.61439 0.0348,-0.76072 -0.92509,-0.39239 -0.84186,0.32305 -1.53064,0.162 -1.53064,-0.35788 0,-0.51987 -0.41391,-0.68941 -0.91981,-0.37675 -0.50589,0.31266 -0.91981,0.14312 -0.91981,-0.37675 0,-0.51988 -0.68877,-0.68092 -1.53061,-0.35788 -1.11853,0.42922 -1.32554,0.25555 -0.76892,-0.64509 0.55399,-0.89637 0.35139,-1.07499 -0.74301,-0.65503 -1.8044,0.69242 -7.26763,-1.04923 -6.61313,-2.10822 0.25305,-0.40944 -0.43304,-0.51088 -1.52464,-0.22542 -1.2718,0.33258 -1.7674,0.16738 -1.37972,-0.4599 0.38768,-0.62729 -0.10792,-0.79249 -1.37972,-0.45991 -1.27179,0.33258 -1.7674,0.16738 -1.37971,-0.45991 0.38768,-0.62728 -0.10793,-0.79248 -1.37972,-0.4599 -1.47861,0.38666 -1.79453,0.21126 -1.23887,-0.68781 0.48302,-0.78155 0.38655,-0.98476 -0.27377,-0.57665 -1.44416,0.89254 -5.80735,-0.35325 -5.12185,-1.46241 0.35643,-0.57671 -0.20398,-0.67498 -1.50126,-0.26324 -1.53335,0.48666 -1.88534,0.3582 -1.35772,-0.49551 0.53519,-0.86594 0.0873,-0.99563 -1.80151,-0.52158 -1.83393,0.46028 -2.32966,0.333 -1.83298,-0.47065 0.47808,-0.77356 0.0898,-0.94702 -1.30392,-0.58256 -1.25963,0.32941 -1.76612,0.16531 -1.38635,-0.44916 0.39585,-0.6405 -0.25241,-0.75465 -1.91543,-0.33726 -1.77944,0.44661 -2.32327,0.32266 -1.86163,-0.4243 0.45052,-0.72894 0.0477,-0.86338 -1.30264,-0.43479 -1.24189,0.39416 -1.95482,0.22324 -1.95482,-0.46864 0,-0.63622 -0.76493,-0.88904 -1.83962,-0.608 -1.0118,0.26459 -1.83963,0.0576 -1.83963,-0.45991 0,-0.51754 -0.82783,-0.72449 -1.83962,-0.45991 -1.01179,0.26459 -1.83963,0.0576 -1.83963,-0.4599 0,-0.51754 -0.82783,-0.7245 -1.83962,-0.45991 -1.01179,0.26459 -1.83962,0.17103 -1.83962,-0.20791 0,-0.79273 -25.26835,-5.80287 -39.55192,-7.84224 -14.06359,-2.00797 -29.97084,-3.37746 -36.56249,-3.14775 -3.16182,0.1102 -5.99094,-0.0418 -6.28692,-0.33781 -0.29599,-0.29598 -1.79479,-0.10009 -3.33067,0.43532 -1.60554,0.5597 -6.1662,0.76854 -10.7296,0.49135 z m 27.47568,22.34628 c 3.79423,0.47092 8.01188,1.31391 9.37256,1.87332 1.36069,0.55941 2.85755,0.78005 3.32637,0.4903 0.46882,-0.28974 1.63207,0.35147 2.585,1.42493 1.72223,1.94006 1.71763,1.94899 -0.76905,1.4909 -1.3759,-0.25346 -2.28279,-0.10671 -2.01529,0.3261 0.70812,1.14576 -0.91671,0.96414 -2.11755,-0.23669 -1.16109,-1.1611 -3.33518,-0.22476 -2.52435,1.08719 0.29106,0.47094 0.13912,0.85625 -0.33762,0.85625 -0.47675,0 -1.11197,-0.93131 -1.4116,-2.06957 -0.52051,-1.9774 -0.67317,-1.91412 -3.4272,1.42049 -1.58534,1.91954 -3.56152,3.42406 -4.39152,3.34338 -2.77302,-0.26957 -3.92214,0.0571 -3.36602,0.95694 0.34079,0.55142 -0.95502,0.69597 -3.39501,0.37872 -10.16535,-1.32172 -15.69805,-1.44532 -17.66141,-0.39457 -1.46352,0.78325 -2.96503,0.83954 -5.20831,0.19524 l -3.15196,-0.90528 3.21935,-0.17726 c 2.26818,-0.12488 1.13385,-0.52823 -3.83932,-1.36519 -8.34821,-1.40497 -9.03806,-1.75125 -9.03806,-4.53685 0,-1.85633 0.66996,-2.25463 5.28893,-3.14439 7.42778,-1.43082 30.62644,-2.03611 38.86206,-1.01396 z m -28.51418,2.69889 c 2.27654,0.36281 5.67805,1.3423 7.55891,2.17663 4.63683,2.05685 16.07916,2.06858 19.00466,0.0195 3.60434,-2.52458 0.69105,-3.08086 -15.52582,-2.96459 -9.7335,0.0698 -13.69233,0.34541 -11.03775,0.76848 z m 36.77404,10.61442 c -0.63993,0.77107 -1.35293,1.21253 -1.58445,0.98101 -0.63788,-0.63789 0.65817,-2.38296 1.76981,-2.38296 0.60993,0 0.54014,0.52778 -0.18536,1.40195 z m -104.84015,1.8174 c 0,0.76651 -0.81761,1.37972 -1.83962,1.37972 -1.02201,0 -1.83962,-0.61321 -1.83962,-1.37972 0,-0.76651 0.81761,-1.37972 1.83962,-1.37972 1.02201,0 1.83962,0.61321 1.83962,1.37972 z m 149.00958,36.33258 c 0,0.50589 -0.43834,0.91981 -0.9741,0.91981 -0.53575,0 -0.71828,-0.41392 -0.40561,-0.91981 0.31266,-0.5059 0.751,-0.91981 0.9741,-0.91981 0.22309,0 0.40561,0.41391 0.40561,0.91981 z m -96.82773,-72.98164 c 0.62274,0.25196 1.86448,0.26729 2.75943,0.034 0.89495,-0.23321 0.38543,-0.43936 -1.13226,-0.4581 -1.51769,-0.0188 -2.24991,0.17206 -1.62717,0.42402 z m -7.341,0.92564 c 0.63237,0.25517 1.66716,0.25517 2.29953,0 0.63237,-0.25516 0.11498,-0.46394 -1.14976,-0.46394 -1.26474,0 -1.78214,0.20878 -1.14977,0.46394 z M 94.42593,439.70436 c -1.14413,1.45887 -1.11159,1.4914 0.34729,0.34728 1.53217,-1.20162 2.01943,-1.95696 1.26238,-1.95696 -0.191,0 -0.91535,0.72436 -1.60967,1.60968 z"
     id="path4017"
     inkscape:connector-curvature="0" />
</svg>
