<?xml version="1.0" encoding="UTF-8" standalone="no"?>
<svg
   xmlns:dc="http://purl.org/dc/elements/1.1/"
   xmlns:cc="http://creativecommons.org/ns#"
   xmlns:rdf="http://www.w3.org/1999/02/22-rdf-syntax-ns#"
   xmlns:svg="http://www.w3.org/2000/svg"
   xmlns="http://www.w3.org/2000/svg"
   xmlns:sodipodi="http://sodipodi.sourceforge.net/DTD/sodipodi-0.dtd"
   xmlns:inkscape="http://www.inkscape.org/namespaces/inkscape"
   version="1.0"
   width="500.000000pt"
   height="500.000000pt"
   viewBox="0 0 500.000000 500.000000"
   preserveAspectRatio="xMidYMid meet"
   id="svg4082"
   sodipodi:docname="icon.svg"
   inkscape:version="0.92.4 (5da689c313, 2019-01-14)">
  <defs
     id="defs4086" />
  <sodipodi:namedview
     pagecolor="#ffffff"
     bordercolor="#666666"
     borderopacity="1"
     objecttolerance="10"
     gridtolerance="10"
     guidetolerance="10"
     inkscape:pageopacity="0"
     inkscape:pageshadow="2"
     inkscape:window-width="1296"
     inkscape:window-height="704"
     id="namedview4084"
     showgrid="false"
     inkscape:zoom="0.708"
     inkscape:cx="373.2235"
     inkscape:cy="308.78758"
     inkscape:window-x="70"
     inkscape:window-y="27"
     inkscape:window-maximized="1"
     inkscape:current-layer="svg4082" />
  <metadata
     id="metadata4062">
Created by potrace 1.13, written by Peter Selinger 2001-2015
<rdf:RDF>
  <cc:Work
     rdf:about="">
    <dc:format>image/svg+xml</dc:format>
    <dc:type
       rdf:resource="http://purl.org/dc/dcmitype/StillImage" />
  </cc:Work>
</rdf:RDF>
</metadata>
  <path
     style="fill:#000000;stroke-width:1.20762765"
     d="m 191.57796,491.59694 c -9.69219,-2.66124 -20.23956,-8.498 -27.30212,-15.10871 -5.65625,-5.29439 -5.78849,-5.50414 -0.89083,-1.41355 7.14131,5.96435 21.15573,12.88262 29.63141,14.62754 4.09343,0.84272 26.96952,1.3175 63.48318,1.3175 43.76634,0.095 87.72601,-0.80932 104.88176,-40.88323 2.74011,-6.77666 2.76074,-7.26937 3.3956,-81.0872 l 0.63899,-74.2691 0.26673,71.49254 c 0.18114,48.52724 -0.16177,73.54815 -1.06754,77.89199 -3.41691,16.38499 -14.62821,31.41729 -29.35202,40.53857 -4.72557,2.92745 -9.81295,5.24601 -15.12058,6.80501 -5.62888,1.65342 -14.79292,1.91135 -64.60806,1.81864 -44.57367,-0.0828 -59.42027,-0.48423 -63.95652,-1.73 z m 38.21166,-18.36372 c 2.49073,-0.26032 6.56647,-0.26032 9.0572,0 2.49074,0.2603 0.45286,0.47354 -4.5286,0.47354 -4.98146,0 -7.01934,-0.21335 -4.5286,-0.47354 z m 28.3793,0.0798 c 0.83019,-0.3352 2.18877,-0.3352 3.01904,0 0.83027,0.33519 0.15121,0.60904 -1.50956,0.60904 -1.66046,0 -2.33975,-0.27385 -1.50948,-0.60904 z m 8.52882,-0.0284 c 0.87178,-0.34876 1.91336,-0.30596 2.31464,0.0956 0.40151,0.40151 -0.31164,0.68679 -1.58501,0.634 -1.40686,-0.0569 -1.69299,-0.34374 -0.72963,-0.7295 z m 4.83056,0 c 0.87171,-0.34876 1.91328,-0.30596 2.31457,0.0956 0.40151,0.40151 -0.31164,0.68679 -1.58501,0.634 -1.40679,-0.0569 -1.69297,-0.34374 -0.72956,-0.7295 z m 7.79705,-0.0151 c 1.17499,-0.30596 2.80529,-0.28598 3.62288,0.0428 0.81764,0.33092 -0.14416,0.58122 -2.13629,0.55699 -1.99259,-0.0201 -2.66154,-0.29526 -1.48659,-0.60119 z m 50.60476,-8.50281 c 5.00091,-4.10973 5.85893,-5.30629 4.95172,-6.90556 -0.39439,-0.69605 -0.27315,-0.86253 0.27029,-0.37014 1.10243,0.99873 4.22951,-1.16438 4.22951,-2.92568 0,-0.6219 -0.67894,-0.74013 -1.50951,-0.26246 -0.87706,0.50492 -1.08785,0.40793 -0.50348,-0.23045 0.55342,-0.60477 1.48111,-1.09935 2.06132,-1.09935 0.58052,0 1.91791,-1.08686 2.97263,-2.41528 1.28126,-1.61377 1.11489,-0.76095 -0.50137,2.57011 -2.29716,4.7345 -12.44745,14.94047 -14.8588,14.94047 -0.62188,0 0.6775,-1.48566 2.88718,-3.30153 z m -136.06737,-1.59633 c -1.99258,-0.58125 -5.5249,-2.75012 -7.8496,-4.81921 l -4.22673,-3.76224 4.73828,2.74104 c 2.60604,1.50764 8.04036,3.68658 12.07625,4.84218 6.2653,1.79411 6.72015,2.09785 3.11133,2.0783 -2.32463,-0.0151 -5.85694,-0.49847 -7.84953,-1.08007 z m 22.03918,0.47495 c 0.83027,-0.33519 2.18885,-0.33519 3.01905,0 0.83027,0.33519 0.1512,0.60905 -1.50949,0.60905 -1.66054,0 -2.33983,-0.27386 -1.50956,-0.60905 z m 92.08164,-1.44515 c 3.65305,-1.20061 8.46791,-3.13357 10.69963,-4.29546 2.2317,-1.16189 3.68928,-1.5164 3.23906,-0.78782 -1.42699,2.30885 -9.51271,5.80486 -15.14637,6.54871 l -5.43432,0.71758 z m -157.89073,-2.87984 c -1.64064,-2.07259 -6.55609,-15.59037 -5.90568,-16.24078 0.28956,-0.28956 1.19706,1.54835 2.01734,4.08359 0.82028,2.53521 2.51577,6.64734 3.7678,9.13807 2.28891,4.55364 2.33955,5.82258 0.12051,3.01912 z m 26.88471,-3.29881 c -2.58231,-2.64458 -4.42492,-5.07868 -4.09451,-5.40902 0.33021,-0.33018 2.98946,1.83341 5.90915,4.80837 2.91971,2.97492 4.7623,5.40894 4.09458,5.40894 -0.66754,0 -3.32686,-2.16374 -5.90922,-4.80829 z m 150.56987,-0.3238 c 5.77601,-7.13356 6.07175,-7.79561 4.66046,-10.43254 -0.91855,-1.71637 -0.72956,-3.55377 0.7168,-6.96885 1.79718,-4.24305 1.90058,-21.08261 1.21525,-197.85827 -0.41721,-107.56154 -1.22808,-194.857759 -1.82963,-196.913818 -2.82356,-9.651346 -10.3867,-18.006369 -20.55609,-22.708559 -5.43782,-2.514336 -6.97475,-2.581091 -59.44394,-2.581091 h -53.8618 l -8.26116,4.226723 c -9.79227,5.010062 -15.36538,11.873926 -17.72153,21.8258 -1.22964,5.193916 -1.55115,46.38567 -1.54972,198.566225 10e-4,180.85676 0.1263,192.32367 2.13879,197.3642 1.17537,2.94325 3.57239,7.2907 5.32669,9.66105 l 3.18965,4.30957 -4.37199,-4.11416 c -8.63388,-8.12482 -8.06861,6.5465 -8.10379,-210.34689 -0.0357,-214.504703 -0.55055,-198.706079 6.85988,-210.058326 3.63159,-5.563194 13.83199,-11.668252 22.15713,-13.261252 3.95231,-0.756239 26.87674,-1.270361 56.9011,-1.276138 46.45314,-0.007 50.74112,0.164741 56.30824,2.280135 10.37792,3.943307 15.06754,8.620464 21.3698,21.313036 l 2.97839,5.998438 0.0428,55.590577 c 0.0201,30.57478 0.1434,117.54186 0.26316,193.26012 0.11976,75.71826 -0.10617,142.17849 -0.50351,147.68947 -0.73461,10.19621 -1.50691,12.07127 -6.9224,16.80641 -4.96614,4.34225 -5.47271,3.14642 -1.00464,-2.37186 z m 11.92977,-23.34747 c 0.0569,-1.40681 0.34373,-1.69292 0.72964,-0.72956 0.34873,0.87176 0.30593,1.91334 -0.0953,2.31457 -0.40152,0.40152 -0.68679,-0.31164 -0.63401,-1.58501 z M 165.57879,411.8205 c 0.0571,-1.40679 0.34445,-1.6929 0.72964,-0.72959 0.34875,0.87173 0.30595,1.91336 -0.0956,2.3146 -0.40151,0.40151 -0.68676,-0.31167 -0.634,-1.58501 z m -22.73573,-3.52225 c 0.0151,-2.65676 0.26103,-3.60142 0.54985,-2.09921 0.28882,1.50214 0.27813,3.67587 -0.0201,4.83049 -0.30238,1.15461 -0.53845,-0.0742 -0.52489,-2.73128 z m 23.15979,-27.17163 c 0,-15.60856 0.17183,-21.99389 0.38224,-14.1896 0.21032,7.80427 0.21032,20.57494 0,28.37926 -0.21033,7.80429 -0.38224,1.41896 -0.38224,-14.18966 z m -23.36896,19.82523 c 0.0571,-1.40679 0.34375,-1.6929 0.72956,-0.72959 0.34875,0.87173 0.30596,1.91336 -0.0956,2.3146 -0.40151,0.40151 -0.68678,-0.31167 -0.634,-1.58501 z m 197.05247,-16.80613 c 0.0151,-2.65681 0.26102,-3.60147 0.54984,-2.09926 0.28883,1.50214 0.27814,3.67587 -0.0201,4.83049 -0.30239,1.15461 -0.53843,-0.0742 -0.52489,-2.73123 z m -196.81892,-1.81144 c 0,-2.98888 0.23549,-4.2116 0.52348,-2.71716 0.28812,1.49443 0.28812,3.93988 0,5.43432 -0.28812,1.49444 -0.52348,0.27172 -0.52348,-2.71716 z m 196.51439,-15.09535 c 0,-5.86708 0.39651,-10.27095 0.88097,-9.78644 0.88733,0.88733 0.53701,19.01367 -0.38511,19.95062 -0.27242,0.27672 -0.49566,-4.29712 -0.49566,-10.16418 z m -196.53877,-2.41528 c 0.0151,-2.65676 0.26103,-3.60142 0.54985,-2.09921 0.28882,1.50214 0.27813,3.67587 -0.0201,4.83049 -0.30238,1.15462 -0.53845,-0.0742 -0.52489,-2.73128 z m 198.05097,-14.49153 c 0.0151,-2.65676 0.261,-3.60142 0.54985,-2.09921 0.28883,1.50214 0.27813,3.67587 -0.0226,4.83048 -0.30239,1.15462 -0.53845,-0.075 -0.52489,-2.73127 z m -2.62447,-4.93112 c 0.0569,-1.40679 0.34374,-1.693 0.72958,-0.72964 0.34875,0.87178 0.30596,1.91336 -0.0956,2.31465 -0.40152,0.40151 -0.68679,-0.31165 -0.63401,-1.58501 z m 1.89484,-6.84325 c -0.82428,-6.8621 -1.09801,-84.95998 -0.29454,-84.13135 0.70888,0.73114 2.33697,90.47139 1.64155,90.47139 -0.32163,0 -0.92781,-2.85302 -1.34666,-6.34004 z m -174.40077,1.50956 c 0,-2.32471 0.24883,-3.27572 0.55199,-2.11335 0.30382,1.16234 0.30382,3.06435 0,4.22667 -0.30379,1.16237 -0.55199,0.21108 -0.55199,-2.11332 z m -0.18466,-6.74257 c 0.0571,-1.40686 0.34445,-1.69299 0.72963,-0.72963 0.34873,0.87176 0.30593,1.91334 -0.0956,2.31465 -0.40151,0.40151 -0.68679,-0.31238 -0.63401,-1.58502 z m 0.0956,-5.33371 c 0,-1.66051 0.27386,-2.3398 0.60905,-1.50953 0.33519,0.83024 0.33519,2.18882 0,3.01904 -0.33519,0.83027 -0.60905,0.1512 -0.60905,-1.50951 z m 0.29527,-35.0212 c 0,-10.29498 0.18542,-14.50658 0.4115,-9.35912 0.22592,5.14751 0.22592,13.57072 0,18.71828 -0.22618,5.14746 -0.4115,0.93586 -0.4115,-9.35916 z m 173.50762,-42.97142 c 0.0569,-1.40684 0.34375,-1.69297 0.72966,-0.72964 0.34873,0.87178 0.30593,1.91336 -0.0956,2.31465 -0.40154,0.40153 -0.68679,-0.31235 -0.63401,-1.58501 z m 0,-6.03814 c 0.0569,-1.40681 0.34375,-1.693 0.72966,-0.72956 0.34873,0.87168 0.30593,1.91326 -0.0956,2.31457 -0.40154,0.40151 -0.68679,-0.31164 -0.63401,-1.58501 z m 0.44645,-43.37396 c 4.2e-4,-22.58264 0.16328,-31.65032 0.36228,-20.15046 0.19901,11.49989 0.19826,29.9766 -7.8e-4,41.05932 -0.199,11.08275 -0.36155,1.67382 -0.36155,-20.90886 z m -133.67212,23.08536 c -10.83549,-3.98079 -15.40824,-10.5 -15.40824,-21.96713 0,-8.43782 3.29375,-14.82008 10.07277,-19.51793 4.08173,-2.82869 6.04221,-3.3376 12.85708,-3.3376 6.70148,0 8.85659,0.53986 12.93656,3.23968 12.09208,8.00215 14.34838,23.58475 4.96285,34.27434 -2.06321,2.34987 -5.17224,5.00728 -6.90894,5.90538 -5.05878,2.61602 -13.47463,3.25395 -18.51208,1.40326 z m 3.58678,-2.68149 c -0.40151,-0.40151 -1.44286,-0.4443 -2.31464,-0.0956 -0.96333,0.38511 -0.6775,0.67179 0.72963,0.72956 1.27302,0.0501 1.98625,-0.23323 1.58501,-0.63401 z m 14.20621,-1.67178 c 0.4229,-0.68465 -0.0642,-0.88705 -1.13635,-0.47498 -2.09214,0.8028 -2.47491,1.66837 -0.73779,1.66837 0.62475,0 1.46835,-0.53702 1.87414,-1.19377 z m -21.12491,-0.39155 c 0,-0.20756 -1.76615,-1.97397 -3.92484,-3.92477 l -3.92476,-3.54692 3.54693,3.92484 c 3.30618,3.65838 4.30267,4.47982 4.30267,3.54685 z m 7.5672,-2.50585 c -0.30309,-1.58607 0.0642,-4.03152 0.81372,-5.43433 1.1295,-2.11048 1.0256,-2.55056 -0.60191,-2.55056 -1.08188,0 -2.25124,-1.08686 -2.59864,-2.41528 -0.51062,-1.9518 -1.6472,-2.4152 -5.92504,-2.4152 -6.01849,0 -6.47284,1.07003 -2.92498,6.88868 1.80472,2.95992 7.12908,6.96087 11.65363,8.75704 0.0742,0.0284 -0.11346,-1.24428 -0.4165,-2.83035 z m 15.06277,-2.18656 c 1.91736,-1.59115 5.14542,-7.4642 5.14542,-9.36123 0,-0.69748 -2.03787,-1.26338 -4.5286,-1.25817 -4.84775,0.008 -5.67223,0.98836 -9.40018,11.15385 l -1.65809,4.52138 4.37983,-1.83003 c 2.40892,-1.00644 5.13665,-2.45808 6.06162,-3.2258 z m 3.33398,1.44744 c 1.20219,-1.32842 1.91406,-2.41528 1.58202,-2.41528 -0.33233,0 -1.58743,1.08686 -2.78962,2.41528 -1.20217,1.32841 -1.91407,2.41528 -1.58194,2.41528 0.33234,0 1.58737,-1.08687 2.78954,-2.41528 z m -15.47799,-1.43403 c -0.38581,-0.96344 -0.67179,-0.67753 -0.72963,0.72963 -0.0501,1.27302 0.23322,1.98625 0.634,1.58501 0.40151,-0.40151 0.44431,-1.44294 0.0956,-2.31464 z m -19.32209,-9.66105 c -0.38581,-0.96334 -0.6718,-0.67751 -0.72956,0.72956 -0.0501,1.27314 0.23322,1.98632 0.634,1.58501 0.40152,-0.40149 0.44431,-1.44279 0.0956,-2.31457 z m 23.32767,1.43403 c 0,-0.66397 -1.49444,-1.15341 -3.321,-1.08717 l -3.32101,0.12052 3.01912,0.96678 c 1.66047,0.53201 3.15491,1.02102 3.32093,1.08734 0.16605,0.0642 0.30165,-0.4229 0.30165,-1.08734 z m -0.28812,-3.24497 c -1.15462,-0.30238 -3.32835,-0.31308 -4.83056,-0.0201 -1.50214,0.28883 -0.5577,0.53629 2.09928,0.54985 2.65681,0.0151 3.88589,-0.22316 2.73128,-0.52489 z m 13.87363,-2.24191 c 3.72095,0.66752 4.14621,-0.63116 2.03289,-6.20882 -4.45079,-11.74707 -19.5043,-16.5998 -29.98278,-9.66547 -4.84611,3.20703 -9.78843,10.76688 -9.78855,14.97305 -1.6e-4,2.01913 1.13278,2.10036 17.20869,1.23336 9.46478,-0.51062 18.70321,-0.65969 20.52975,-0.33235 z m -21.23415,-1.35629 c -0.44287,-0.4429 -0.80508,-1.8603 -0.80508,-3.15 0,-1.93902 0.5591,-2.2046 3.23,-1.53424 2.81941,0.70747 3.03245,0.57269 1.67629,-1.06133 -0.85445,-1.0296 -1.26175,-2.63258 -0.90502,-3.5622 0.46428,-1.20916 -0.0428,-1.50918 -1.78241,-1.05441 -2.00343,0.52419 -2.3593,0.12831 -2.02303,-2.25003 0.30309,-2.14128 1.28353,-2.98609 3.80202,-3.27486 4.23857,-0.48638 7.2397,1.86721 6.41293,5.02861 -0.34445,1.31614 -0.0913,3.39195 0.56197,4.61296 1.93518,3.61584 -0.68535,7.05058 -5.37998,7.05058 -2.19064,0 -4.34524,-0.36228 -4.78804,-0.80508 z m 6.97491,-1.49759 c 0.37227,-0.60192 -0.4108,-0.81059 -1.7402,-0.46284 -2.81978,0.7374 -3.17623,1.55799 -0.6768,1.55799 0.95708,0 2.04472,-0.49282 2.41692,-1.09499 z m 66.55893,25.92458 c -7.04767,-2.60491 -10.62205,-5.63344 -13.65563,-11.57034 -4.97606,-9.73836 -3.09067,-20.3688 4.84895,-27.33986 11.22787,-9.85823 27.87409,-7.93504 35.87545,4.14478 4.74064,7.15698 5.12973,17.24956 0.95171,24.68323 -5.07422,9.02848 -18.14614,13.73196 -28.02048,10.08219 z m 3.82984,-2.61419 c -0.40151,-0.40149 -1.44289,-0.44428 -2.31465,-0.0954 -0.96336,0.3851 -0.67753,0.67179 0.72964,0.72956 1.27299,0.0501 1.98629,-0.23323 1.58501,-0.63401 z m 10.86865,0 c -0.40151,-0.40149 -1.44289,-0.44428 -2.31465,-0.0954 -0.96336,0.3851 -0.67753,0.67179 0.72964,0.72956 1.27299,0.0501 1.98629,-0.23323 1.58501,-0.63401 z m 7.70911,-10.64335 c 3.51098,-5.75762 3.00098,-6.74148 -3.49444,-6.74148 h -5.77344 l 0.3573,6.19455 c 0.2053,3.56718 -0.25747,6.93525 -1.09207,7.94075 -0.79698,0.96035 0.61687,0.52703 3.14192,-0.96263 2.52502,-1.48988 5.61248,-4.38391 6.86094,-6.43119 z m 0.54344,5.03289 3.54693,-3.92484 -3.92485,3.54692 c -3.65848,3.30624 -4.47982,4.30268 -3.54687,4.30268 0.20756,0 1.97399,-1.76615 3.92479,-3.92476 z m -21.69846,-4.5307 0.11473,-7.24367 h -5.78826 -5.78821 l 1.25218,3.59206 c 0.96142,2.75789 8.31837,10.90966 9.83477,10.89738 0.14265,-0.001 0.31167,-3.26188 0.37442,-7.24577 z m 9.50874,0.88663 c -0.58623,-2.3347 -1.33051,-2.87393 -3.2686,-2.36708 -2.09385,0.54771 -2.39674,0.22392 -1.82784,-1.95135 0.37512,-1.43418 0.22618,-2.32564 -0.33162,-1.98119 -0.5577,0.34448 -0.96663,2.28001 -0.90914,4.3009 0.0641,2.14286 0.47925,3.06747 1.00434,2.21836 1.23128,-1.99229 4.76658,-0.4507 4.76658,2.07832 0,1.12773 0.29811,1.75232 0.66254,1.38802 0.36442,-0.3644 0.32092,-2.02315 -0.0964,-3.68598 z m -21.3181,-1.49346 c -0.75781,-1.6633 -1.60534,-2.79674 -1.88342,-2.51873 -0.56412,0.56411 1.88447,5.54286 2.72586,5.54286 0.29454,0 -0.0848,-1.36087 -0.84244,-3.02413 z m 36.54374,-17.32349 c -4.42163,-8.66717 -14.61639,-13.21948 -24.17245,-10.79391 -8.69258,2.20639 -15.9932,12.23015 -15.64502,21.48056 l 0.11347,3.01904 0.84131,-3.01904 c 0.72621,-2.60599 1.49474,-2.99922 5.61582,-2.87393 2.62604,0.08 11.43163,0.21536 19.568,0.30168 l 14.79341,0.15699 0.21109,3.321 c 0.12327,1.94808 0.4008,1.23241 0.66965,-1.73113 0.31167,-3.43299 -0.32805,-6.59345 -1.99508,-9.86124 z m -19.41485,5.94009 c 0,-0.6183 -1.21724,-1.29732 -2.70484,-1.50956 -3.8829,-0.55412 -3.95936,-3.71836 -0.22618,-9.35952 4.3603,-6.58894 7.76153,-6.66967 7.76153,-0.18391 0,2.70854 0.64543,4.94652 1.50956,5.2367 2.29804,0.77158 -1.37177,6.94027 -4.12888,6.94027 -1.21616,0 -2.21117,-0.50565 -2.21117,-1.12368 z m 0,-6.85595 c 0,-0.99949 -2.34491,-1.56469 -2.88256,-0.69462 -0.34873,0.56412 0.15699,1.02604 1.12418,1.02604 0.96711,0 1.75838,-0.14895 1.75838,-0.33162 z m 2.74011,10.81033 c -0.81764,-0.33092 -2.44794,-0.35089 -3.62289,-0.0428 -1.17499,0.30593 -0.50635,0.57694 1.48654,0.6012 1.99259,0.0201 2.95393,-0.22618 2.13635,-0.557 z M 165.94407,182.47209 c 0.002,-7.97034 0.1975,-11.07376 0.43432,-6.89653 0.23675,4.17723 0.23474,10.69842 -0.005,14.49153 -0.23901,3.79313 -0.43218,0.37514 -0.43004,-7.595 z M 240.35596,164.829 c -12.92537,-7.76352 -15.58924,-24.42992 -5.70426,-35.68824 2.12029,-2.41493 5.61225,-5.12496 7.75994,-6.02226 5.3148,-2.22073 15.40697,-2.05421 20.4467,0.33732 5.31436,2.52183 11.09306,9.52819 12.04535,14.60436 0.65683,3.50143 1.19128,3.95643 4.64736,3.95643 6.74256,0 7.90239,-2.60612 7.90239,-17.75669 v -13.33977 l -3.82393,-0.7648 c -16.22946,-3.24583 -22.25663,-26.701931 -10.00852,-38.950057 3.00679,-3.006852 3.15699,-3.677442 2.40195,-10.728013 -0.58479,-5.457076 -0.31235,-8.700198 0.99066,-11.819372 3.04108,-7.27836 12.46002,-10.221807 20.08755,-6.277501 5.93131,3.067254 7.2591,6.171453 7.2591,16.971852 0,9.018413 0.24882,10.015204 3.17465,12.713326 4.24356,3.913282 6.48632,9.518838 6.48632,16.211544 0,10.139222 -5.87128,18.494751 -15.26112,21.718261 l -4.66474,1.60141 -0.3416,13.44475 c -0.368,14.47698 0.28027,16.37422 5.86985,17.16726 5.52462,0.78384 4.44902,9.41472 -1.63558,13.12461 -5.48568,3.34481 -9.32671,3.15961 -9.32671,-0.4493 0,-3.97761 -3.65542,-6.82913 -8.7544,-6.82913 -3.86094,0 -4.42719,0.40793 -5.15297,3.7126 -1.05064,4.78327 -7.30519,11.89054 -12.30085,13.97791 -6.08408,2.54208 -17.09963,2.08529 -22.09687,-0.91621 z m 16.30297,-0.4664 c -3.07253,-1.03937 -12.86808,-1.46884 -11.33343,-0.49708 0.91986,0.58265 4.11783,1.02453 7.10671,0.98231 2.98888,-0.0428 4.89089,-0.26101 4.22672,-0.48566 z m 7.07509,-2.90038 c 3.39283,-2.23684 7.99666,-8.13494 8.01228,-10.26481 0.005,-0.59621 -1.2277,0.74925 -2.73792,2.9903 -1.51026,2.24106 -4.57952,5.31031 -6.82058,6.82058 -2.24103,1.5102 -3.5867,2.74227 -2.99029,2.73792 0.5962,-0.005 2.63779,-1.03217 4.53651,-2.28399 z m -24.21533,-2.23663 c -2.07075,-1.82656 -4.34333,-4.40786 -5.05007,-5.73628 -0.71524,-1.34439 -1.30132,-1.69241 -1.3217,-0.78491 -0.0357,1.73456 7.50322,9.84212 9.15598,9.84212 0.53913,0 -0.71338,-1.49444 -2.78421,-3.32093 z m 19.69865,0.15332 c 4.41806,-2.0965 8.91408,-7.44496 8.91408,-10.60428 0,-3.18051 -3.00015,-2.17402 -4.37471,1.46769 -0.78564,2.08124 -3.05784,4.23764 -5.87284,5.57347 -6.36166,3.01876 -13.05202,1.06918 -16.5238,-4.81508 -2.21607,-3.75596 -5.8346,-5.69342 -5.8346,-3.12396 0,2.55093 5.8732,9.43212 9.68507,11.34726 5.23072,2.62801 8.71397,2.66652 14.0068,0.15475 z m 35.48186,-5.26024 c 1.59143,-1.00635 1.5661,-1.39089 -0.20907,-3.16618 -1.58986,-1.59029 -1.72987,-2.48552 -0.65755,-4.20282 1.07625,-1.72337 0.91528,-2.67659 -0.76594,-4.53424 -1.84966,-2.04387 -2.08001,-4.42684 -1.7578,-18.18409 0.23398,-9.99674 -0.0742,-15.83193 -0.83684,-15.83193 -0.76251,0 -1.07096,5.83519 -0.83676,15.83193 0.44788,19.1373 -0.17686,20.40111 -10.08467,20.40111 h -6.32035 l -0.84546,-4.52861 c -1.1641,-6.23506 -9.56414,-14.25412 -16.08538,-15.35589 -6.71239,-1.13407 -13.55979,1.02889 -17.95475,5.67153 -5.27807,5.5756 -6.4627,8.40359 -6.29967,15.03931 0.119,4.83891 0.27172,5.20718 0.91101,2.19277 0.63541,-2.99836 1.43665,-3.68764 4.64619,-3.99822 3.26301,-0.31593 3.99657,0.097 4.62552,2.60263 1.24235,4.95001 5.72466,8.28278 10.37385,7.71332 l 4.05692,-0.49708 -4.34147,-0.19327 c -11.79704,-0.52489 -11.55614,-17.10008 0.24882,-17.10008 7.12561,0 10.68829,8.15712 6.29939,14.42314 -1.13499,1.62045 -1.3456,2.46727 -0.48066,1.93268 0.8468,-0.52347 2.32036,-2.82008 3.27456,-5.10385 1.52506,-3.64991 2.19841,-4.10691 5.56555,-3.77735 2.89924,0.28384 4.0331,1.10904 4.66348,3.39403 0.52346,1.89759 0.87747,2.23406 0.95315,0.90572 0.0984,-1.73171 1.26529,-2.1099 6.4604,-2.09407 5.30325,0.0143 7.00865,0.60833 10.4285,3.62288 2.2486,1.98196 3.47132,3.60363 2.71716,3.60363 -0.75416,0 -1.37129,0.54343 -1.37129,1.2076 0,1.50478 1.26909,1.51363 3.62289,0.0285 z m -7.09365,-7.69143 c -1.02754,-1.23812 -0.81515,-2.11332 0.8866,-3.6534 1.98889,-1.79989 2.40652,-1.822 3.75376,-0.19899 1.7931,2.16068 0.83147,5.48019 -1.58766,5.48019 -0.93581,0 -2.30951,-0.73264 -3.0527,-1.62809 z m 11.33248,4.06305 c -0.3473,-0.56126 0.0498,-1.274 0.88604,-1.58323 1.11832,-0.41435 0.9647,-1.1412 -0.58479,-2.7653 -2.03274,-2.13108 -2.15826,-2.12594 -3.83263,0.15689 -1.51241,2.06219 -1.49359,2.6236 0.14969,4.44517 1.82209,2.0199 4.65536,1.8073 3.38149,-0.25389 z m -3.18527,-0.92539 c -1.50214,-1.91535 -1.45942,-1.95807 0.4557,-0.45571 1.16232,0.91157 2.11332,1.86257 2.11332,2.11332 0,0.99394 -0.99171,0.35445 -2.5693,-1.6574 z m -39.67807,-1.28256 c 5.39739,-4.37049 -0.89722,-11.96457 -6.74254,-8.13458 -3.3685,2.20717 -3.79605,5.66945 -1.04037,8.42513 2.47061,2.47062 4.46498,2.39616 7.78291,-0.29026 z m 31.05168,-40.80828 c -0.40151,-0.40151 -1.44289,-0.4443 -2.31464,-0.0956 -0.96336,0.38511 -0.67751,0.6718 0.72963,0.72957 1.27299,0.0499 1.98632,-0.2332 1.58501,-0.634 z m 14.20621,-1.67188 c 0.42289,-0.68463 -0.0642,-0.88696 -1.13638,-0.47425 -2.09206,0.80281 -2.47488,1.66838 -0.73776,1.66838 0.62472,0 1.46832,-0.53701 1.87414,-1.19384 z m -15.50345,-2.22222 c -2.32272,-2.56662 -2.65885,-9.932191 -0.54915,-12.041592 1.1271,-1.127089 -0.0805,-1.449153 -5.43432,-1.449153 -3.78591,0 -6.88348,0.462843 -6.88348,1.029027 0,2.214165 5.6994,9.318298 9.5664,11.924278 4.92755,3.32064 5.97378,3.49102 3.30082,0.53773 z m 7.42092,-0.44858 c 0.79703,-0.79704 1.41471,-2.29148 1.37262,-3.320931 -0.0498,-1.148268 -0.4985,-0.821423 -1.16873,0.845321 -1.30972,3.25838 -3.02184,3.47853 -4.69614,0.60405 -0.67677,-1.16239 -1.24745,-1.542796 -1.26763,-0.84539 -0.0428,1.35402 2.38147,4.16631 3.58615,4.16631 0.39864,0 1.3767,-0.65183 2.17373,-1.44915 z m 11.36058,-4.829135 c 0.99921,-1.528386 2.20339,-4.001645 2.67595,-5.496084 0.80979,-2.560621 0.52416,-2.717163 -4.95836,-2.717661 l -5.81757,-5.01e-4 v 7.119894 7.119887 l 3.14161,-1.6233 c 1.72794,-0.89289 3.95916,-2.873848 4.95837,-4.402235 z m 1.56106,3.863075 c 1.20217,-1.32841 1.91407,-2.415275 1.58194,-2.415275 -0.33235,0 -1.58745,1.086865 -2.78962,2.415275 -1.20219,1.32835 -1.91406,2.41521 -1.58194,2.41521 0.33233,0 1.58743,-1.08686 2.78962,-2.41521 z M 291.3782,96.381262 c -2.77095,-0.430751 -3.71881,-3.178937 -1.47932,-4.289622 0.68108,-0.337326 0.54484,-0.477109 -0.30168,-0.309512 -0.84687,0.167608 -1.70497,1.687206 -1.90694,3.377339 -0.33303,2.785552 -0.0498,3.005995 3.01912,2.358226 3.05457,-0.644703 3.12011,-0.755885 0.66895,-1.136572 z m 19.1443,-13.599931 c -0.71389,-2.38276 -2.92078,-5.924913 -4.90423,-7.871428 -2.38982,-2.345319 -3.61755,-4.764092 -3.63979,-7.17067 -0.0357,-3.561835 -0.13837,-3.62324 -5.49601,-3.197194 -3.00443,0.238909 -6.80846,0.09699 -8.45345,-0.315933 -2.54822,-0.639708 -2.99086,-1.45329 -2.99086,-5.498223 0,-3.262022 0.6611,-5.120531 2.1134,-5.939889 1.67108,-0.942948 1.80344,-1.505423 0.63257,-2.688279 -1.17638,-1.188206 -1.96791,-1.055127 -3.84869,0.646843 -1.30222,1.178506 -2.94535,1.785696 -3.65139,1.34938 -0.86521,-0.534873 -1.2837,2.318575 -1.2837,8.751688 0,8.233644 -0.35517,9.861232 -2.58586,11.845686 -3.66148,3.257528 -7.04646,11.217244 -6.88421,16.188225 0.0906,2.779994 0.31735,3.296682 0.6611,1.509559 0.5149,-2.674586 1.61641,-3.110758 7.60114,-3.010844 1.66053,0.02853 9.67616,0.104837 17.81253,0.171885 l 14.79341,0.121945 0.18115,3.320929 0.18114,3.320999 0.5299,-3.601061 c 0.29167,-1.980602 -0.0571,-5.550569 -0.76788,-7.933329 z m -25.48434,1.480031 c 0,-1.212594 1.35858,-3.481032 3.01912,-5.041013 3.59661,-3.378837 3.8637,-4.825281 0.74005,-4.008419 -2.63258,0.688205 -4.07582,-1.00692 -3.07576,-3.613184 0.92263,-2.404296 4.94061,-3.344678 8.50344,-1.990163 3.31245,1.259453 3.86458,5.401306 1.20483,9.038666 -1.45494,1.989803 -1.42975,2.490161 0.18467,3.670524 3.01263,2.20297 0.56766,4.148342 -5.21318,4.148342 -4.38726,0 -5.36307,-0.400799 -5.36307,-2.204753 z m 9.59392,-9.115899 c -0.29524,-0.285267 -1.56597,0.922192 -2.82399,2.683643 l -2.28734,3.202684 2.82408,-2.68357 c 1.55319,-1.47604 2.58244,-2.917206 2.28725,-3.202757 z m -0.72279,-3.473691 c -0.3081,-0.498503 -1.58252,-0.90572 -2.83247,-0.90572 -1.24997,0 -2.52462,0.407931 -2.83249,0.90572 -0.30809,0.497789 0.96676,0.905721 2.83249,0.905721 1.86571,0 3.14034,-0.407932 2.83247,-0.905721 z m -1.32293,17.616557 c -0.83025,-0.33519 -2.18883,-0.33519 -3.0191,0 -0.83022,0.335187 -0.1512,0.609041 1.50956,0.609041 1.66047,0 2.33976,-0.273854 1.50954,-0.609041 z m -2.07295,-33.979721 c -0.99908,-0.999073 -3.05947,1.190416 -3.05947,3.25118 0,3.688923 1.71793,4.056419 2.65112,0.566969 0.49065,-1.834193 0.67393,-3.552423 0.40863,-3.818363 z m 9.01678,3.309876 c 0,-1.289193 -0.54343,-2.343965 -1.2076,-2.343965 -0.66397,0 -1.20763,1.390674 -1.20763,3.090362 0,1.752678 0.52275,2.767226 1.20763,2.343963 0.66394,-0.410783 1.2076,-1.801172 1.2076,-3.09036 z m 1.59357,-6.872569 c -2.20319,-6.242555 -9.34797,-9.908012 -14.95061,-7.669956 l -2.94593,1.176796 3.07945,0.07631 c 3.59883,0.08914 5.97776,2.10933 5.97776,5.075672 0,1.538298 1.21258,2.227648 4.5286,2.574531 2.49073,0.260304 4.6474,0.564825 4.7926,0.676792 0.14542,0.111983 -0.0712,-0.748039 -0.4821,-1.910356 z m -13.99689,-4.654406 c -0.40151,-0.401511 -1.44288,-0.444301 -2.31464,-0.09555 -0.96336,0.385822 -0.67753,0.671801 0.72963,0.729639 1.27299,0.04994 1.9863,-0.233198 1.58501,-0.634005 z m 52.7243,74.998741 c 0.002,-8.63458 0.19473,-12.00843 0.42717,-7.49744 0.23323,4.51092 0.23096,11.57554 -0.005,15.69914 -0.23523,4.12359 -0.42576,0.43289 -0.42362,-8.2017 z m -174.17695,-1.81144 c 0,-1.66054 0.27385,-2.33982 0.60902,-1.50956 0.33519,0.83027 0.33519,2.18885 0,3.01905 -0.33517,0.83027 -0.60902,0.1512 -0.60902,-1.50949 z m 41.79129,-9.65584 c -5.94196,-1.78919 -11.23021,-5.83641 -13.95067,-10.676733 -4.66567,-8.301394 -3.09927,-21.641023 3.20034,-27.253994 2.22757,-1.984812 2.58196,-3.616609 2.58196,-11.889976 0,-11.067407 1.93452,-15.527689 7.97895,-18.395971 4.89819,-2.324281 9.3019,-2.323994 13.79785,9.26e-4 5.18422,2.680933 7.20624,7.568688 7.20624,17.41979 0,7.796759 0.33806,8.946029 4.07333,13.8392 13.89861,18.208198 -3.13772,43.505838 -24.888,36.956758 z m 8.4113,-1.94245 c -0.40151,-0.40151 -1.44288,-0.4443 -2.31457,-0.0956 -0.96343,0.38583 -0.67753,0.67181 0.72956,0.72957 1.27307,0.0499 1.98632,-0.2332 1.58501,-0.634 z m -0.57837,-2.48545 c -0.8302,-0.33519 -2.18878,-0.33519 -3.01905,0 -0.83027,0.33519 -0.1512,0.60904 1.50956,0.60904 1.66046,0 2.33975,-0.27385 1.50949,-0.60904 z m -15.00966,-3.72879 c -1.69584,-1.82656 -3.68299,-4.407865 -4.41592,-5.736207 -0.73293,-1.328413 -1.34909,-1.754887 -1.36927,-0.947799 -0.0357,1.505778 6.89759,10.005006 8.16389,10.005006 0.38725,0 -0.68322,-1.49444 -2.3787,-3.321 z m 8.82343,1.69484 c -1.35843,-1.63679 -1.08578,-10.380416 0.39867,-12.782076 0.52987,-0.857084 -1.45856,-1.290972 -5.91536,-1.290972 -3.88217,0 -6.71323,0.534876 -6.71323,1.267652 0,2.987737 3.98016,8.549147 8.14298,11.377846 5.07048,3.44545 6.04403,3.78549 4.08709,1.42755 z m 18.86632,-6.827709 c 4.06626,-5.955577 3.58829,-7.245339 -2.68494,-7.245339 h -5.40209 l 0.26957,7.189282 c 0.25819,6.886046 0.37158,7.122816 2.68501,5.612546 1.32834,-0.86728 3.63793,-3.367641 5.13237,-5.556489 z m -10.54252,0.63329 c -0.84018,-1.012339 -2.00443,-1.840608 -2.58729,-1.840608 -0.58266,0 -0.10919,0.996293 1.05355,2.213951 2.49046,2.609116 3.75374,2.301596 1.53374,-0.372986 z m -2.34667,-5.851812 c 1.83426,-0.417202 1.75053,-0.501354 -0.37655,-0.375836 -1.8322,0.10768 -2.77486,0.958351 -2.85438,2.575953 -0.0828,1.685569 0.0284,1.799247 0.37655,0.375839 0.27242,-1.121454 1.55663,-2.280633 2.85438,-2.575885 z m 1.99543,2.073958 c -0.40151,-0.401511 -1.44286,-0.444302 -2.31465,-0.09558 -0.96333,0.385824 -0.6775,0.671803 0.72964,0.729568 1.27301,0.04994 1.98624,-0.233198 1.58501,-0.634005 z m -2.61182,-6.516126 c 16.43533,0 19.84562,-0.298103 19.84562,-1.73285 0,-3.223938 -2.55327,-8.515629 -5.70083,-11.815163 -2.73201,-2.863861 -3.19875,-4.55806 -3.65506,-13.264958 -0.61617,-11.763104 -1.53585,-13.874716 -7.0443,-16.176316 -3.57915,-1.495438 -4.67978,-1.495438 -8.25896,0 -5.78939,2.418986 -7.24604,5.816081 -6.96112,16.234866 0.21964,8.028538 -0.0642,9.232289 -2.96978,12.680091 -4.361,5.171523 -6.50507,10.677734 -6.28835,16.148859 0.14416,3.640997 0.28314,3.893817 0.68395,1.2464 l 0.50277,-3.320929 z m -1.89168,-5.547434 c 0,-3.358297 -0.55913,-4.486027 -2.4737,-4.986597 -3.28019,-0.857798 -2.55227,-3.640142 1.61005,-6.153482 2.96342,-1.789475 3.49923,-1.815577 4.51006,-0.218933 0.63116,0.996293 1.15547,4.936179 1.16561,8.755322 0.0151,6.144925 -0.25959,6.943814 -2.39674,6.943814 -1.9672,0 -2.41528,-0.805096 -2.41528,-4.339759 z m 2.04009,-6.226936 c -0.30382,-1.162389 -0.55199,-0.211108 -0.55199,2.113326 0,2.324706 0.24882,3.275713 0.55199,2.113323 0.30379,-1.162316 0.30379,-3.06433 0,-4.226649 z m -8.84897,-12.981545 c -1.11846,-2.914637 0.30452,-11.185368 2.50128,-14.538031 1.34212,-2.048356 3.05756,-2.973047 5.51528,-2.973047 4.89452,0 7.75418,4.601346 7.80794,12.563558 l 0.0428,6.154695 -7.56324,0.36015 c -6.0349,0.287405 -7.71277,-0.02853 -8.30285,-1.567111 z m 4.72379,-6.964067 c -0.81892,-1.524748 -2.74539,0.304523 -2.74539,2.606908 0,3.428544 1.73284,4.205682 2.52132,1.130725 0.39653,-1.546715 0.49707,-3.228646 0.22392,-3.737633 z m 9.33086,2.808162 c 0,-2.403013 -1.57424,-4.132583 -2.7193,-2.987593 -0.94716,0.947155 0.4115,5.331556 1.65254,5.331556 0.58693,0 1.06676,-1.054773 1.06676,-2.343963 z m -3.92477,-7.618966 c -0.27672,-0.830196 -1.22778,-1.509487 -2.11332,-1.509487 -0.88562,0 -1.83662,0.679648 -2.1134,1.509487 -0.29954,0.89802 0.557,1.50956 2.1134,1.50956 1.55648,0 2.41264,-0.611898 2.11332,-1.50956 z m 1.71295,-2.392957 c -0.89616,-0.896163 -1.05328,-0.424333 -0.52773,1.584085 0.42717,1.632937 0.97445,2.180362 1.2759,1.275925 0.29029,-0.871276 -0.0428,-2.158253 -0.74787,-2.86001 z m -6.98839,0.820711 c 0.41223,-1.07467 0.20957,-1.559407 -0.47425,-1.136357 -0.65682,0.405793 -1.19384,1.249182 -1.19384,1.8742 0,1.737059 0.86565,1.354302 1.66847,-0.737843 z m 6.48305,39.685832 c -1.16232,-0.303809 -3.06433,-0.303809 -4.22665,0 -1.16239,0.303809 -0.21108,0.551992 2.11332,0.551992 2.32471,0 3.27572,-0.248897 2.11333,-0.551992 z M 331.10153,32.049056 c -2.89388,-3.360294 -4.89922,-6.472051 -4.45627,-6.914926 0.96404,-0.964059 8.69904,7.902804 9.51948,10.912506 0.31662,1.162319 0.49065,2.113039 0.38724,2.112755 -0.10416,-3.57e-4 -2.55655,-2.749967 -5.45037,-6.110335 z"
     id="path21"
     inkscape:connector-curvature="0"
     sodipodi:nodetypes="ccccccccccscccccscccscccccccccccccccccccsccsccscccccccccscsscccccccscccccccscccccccsccccccccccccccccscsccccsccccccccccccsccsccccccccccscssccccccccccccccccccccccsccsccscccccsccssccscccccccccccsccccscscccccccccccsccscccsccscscccccsccccccscscccccccccccccccccccccccccccccccsccccccccsccccscccccccccccccccccccscccccccccscccccccccccccccscccccsccscccccccccccccscsccccscccccccccccccccccssccccccscscccccssccccccccccccccccccsccscccsccccccccscsccsccccccccsccccccccsscccccscccccccccccsccccccccccccccsccccssccccccccsccsccccccscscscccccccccscccsccccsccccccccccccccccccscccsccccscscccsccscccssscscsccsccccccccccccccsccscccsccsccccccccssccccscccssccccsccccccsccccccccccccccsscccccccccssccccssscsccccsccccccscccscsscscsccccccccsccccsccccccc" />
</svg>
